<svg xmlns="http://www.w3.org/2000/svg" xmlns:xlink="http://www.w3.org/1999/xlink" fill="none" viewBox="0 0 1744 436"><path fill="#FFEE53" d="M122.027 40.553C128.365 20.012 147.352 6 168.848 6H1681.04c31.94 0 55.34 30.071 47.5 61.035l-84.12 332c-5.51 21.739-25.07 36.965-47.5 36.965H66.4c-32.984 0-56.547-31.931-46.821-63.448z"/><circle cx="283.448" cy="211.449" r="51.5" stroke="url(#a)" stroke-width="81.333" transform="rotate(31.593 283.448 211.449)"/><circle cx="283.448" cy="211.449" r="51.5" stroke="url(#b)" stroke-width="81.333" transform="rotate(31.593 283.448 211.449)"/><circle cx="283.902" cy="211.975" r="104.542" stroke="url(#c)" stroke-width="6" transform="rotate(-46.683 283.902 211.975)"/><circle cx="283.902" cy="211.975" r="104.542" stroke="url(#d)" stroke-width="6" transform="rotate(-46.683 283.902 211.975)"/><circle cx="284" cy="212.001" r="146.971" stroke="url(#e)" stroke-width="6" transform="rotate(-46.683 284 212.001)"/><g fill="freeze" class="bubles-wrapper" data-ignore="true"><animate xlink:href="#mycircle" attributeName="cy" begin="0s" data-ignore="true" dur="5s" from="170" repeatCount="indefinite" to="130"/><animate xlink:href="#mycircle2" attributeName="cy" begin="0s" data-ignore="true" dur="3s" from="170" repeatCount="indefinite" to="130"/><animate xlink:href="#mycircle3" attributeName="cy" begin="0s" data-ignore="true" dur="7s" from="170" repeatCount="indefinite" to="130"/><animate xlink:href="#mycircle4" attributeName="cy" begin="0s" data-ignore="true" dur="11s" from="170" repeatCount="indefinite" to="130"/><animate xlink:href="#mycircle5" attributeName="cy" begin="0s" data-ignore="true" dur="9s" from="170" repeatCount="indefinite" to="130"/></g><g stroke-width="81.333" filter="url(#f)" shape-rendering="crispEdges" transform="rotate(31.593 1442.45 211.449)"><circle cx="1442.45" cy="211.449" r="51.5" stroke="url(#g)"/><circle cx="1442.45" cy="211.449" r="51.5" stroke="url(#h)"/></g><circle cx="1442.9" cy="211.975" r="104.542" stroke="url(#i)" stroke-width="6" transform="rotate(-46.683 1442.9 211.975)"/><circle cx="1442.9" cy="211.975" r="104.542" stroke="url(#j)" stroke-width="6" transform="rotate(-46.683 1442.9 211.975)"/><circle cx="1443" cy="212.001" r="146.971" stroke="url(#k)" stroke-width="6" transform="rotate(-46.683 1443 212.001)"/><path stroke="url(#l)" stroke-linecap="round" stroke-width="6" d="m420.5 159.501 35.608 16.492a21 21 0 0 1 12.17 18.611l2.222 104.897v0a9.734 9.734 0 0 0 8.972 9.705l220.361 17.311a21 21 0 0 0 11.612-2.452L757 299.501m0 0 56.5 55.5m-56.5-55.5c7.667-28.167 23.8-84.9 27-86.5m0 0c3.2-1.6 31-.667 44.5 0m-44.5 0v-84.979a21 21 0 0 1 6.543-15.231l22.957-21.79"/><path stroke="url(#m)" stroke-linecap="round" stroke-width="6" d="m1358.5 276.001-35.39 43.734c-5.25 6.491-14.44 8.207-21.68 4.048l-35.31-20.282m0 0-67.12 61m67.12-61c-7.2-28.167-22.34-84.9-25.35-86.5m0 0c-3-1.6-29.1-.667-41.77 0m41.77 0v-87.013a17 17 0 0 0-4.91-11.955l-22.78-23.032"/><defs><linearGradient id="a" x1="360.576" x2="233.374" y1="158.602" y2="299.834" gradientUnits="userSpaceOnUse"><stop stop-color="#fff"/><stop offset="1" stop-color="#D0D2E4" stop-opacity="0"/></linearGradient><linearGradient id="b" x1="360.576" x2="233.374" y1="158.602" y2="299.834" gradientUnits="userSpaceOnUse"><stop stop-color="#fff"/><stop offset="1" stop-color="#fff" stop-opacity="0"/></linearGradient><linearGradient id="c" x1="217.959" x2="225.474" y1="184.083" y2="315.105" gradientUnits="userSpaceOnUse"><stop stop-color="#fff"/><stop offset="1" stop-color="#D0D2E4" stop-opacity="0"/></linearGradient><linearGradient id="d" x1="391.308" x2="225.474" y1="230.48" y2="315.105" gradientUnits="userSpaceOnUse"><stop stop-color="#fff"/><stop offset="1" stop-color="#D0D2E4" stop-opacity="0"/></linearGradient><linearGradient id="e" x1="272.054" x2="202.521" y1="124.992" y2="355.82" gradientUnits="userSpaceOnUse"><stop stop-color="#fff"/><stop offset="1" stop-color="#D0D2E4" stop-opacity="0"/></linearGradient><linearGradient id="g" x1="1519.58" x2="1392.37" y1="158.602" y2="299.834" gradientUnits="userSpaceOnUse"><stop stop-color="#fff"/><stop offset="1" stop-color="#D0D2E4" stop-opacity="0"/></linearGradient><linearGradient id="h" x1="1519.58" x2="1392.37" y1="158.602" y2="299.834" gradientUnits="userSpaceOnUse"><stop stop-color="#fff"/><stop offset="1" stop-color="#fff" stop-opacity="0"/></linearGradient><linearGradient id="i" x1="1376.96" x2="1384.47" y1="184.083" y2="315.105" gradientUnits="userSpaceOnUse"><stop stop-color="#fff"/><stop offset="1" stop-color="#D0D2E4" stop-opacity="0"/></linearGradient><linearGradient id="j" x1="1550.31" x2="1384.47" y1="230.48" y2="315.105" gradientUnits="userSpaceOnUse"><stop stop-color="#fff"/><stop offset="1" stop-color="#D0D2E4" stop-opacity="0"/></linearGradient><linearGradient id="k" x1="1592.78" x2="1361.52" y1="237.807" y2="355.82" gradientUnits="userSpaceOnUse"><stop stop-color="#fff"/><stop offset="1" stop-color="#D0D2E4" stop-opacity="0"/></linearGradient><linearGradient id="l" x1="772.5" x2="143.01" y1="298.001" y2="347.882" gradientUnits="userSpaceOnUse"><stop stop-color="#fff"/><stop offset="1" stop-color="#fff" stop-opacity="0"/></linearGradient><linearGradient id="m" x1="1251.57" x2="1842.93" y1="302.001" y2="345.989" gradientUnits="userSpaceOnUse"><stop stop-color="#fff"/><stop offset="1" stop-color="#fff" stop-opacity="0"/></linearGradient><filter id="f" width="240.359" height="240.359" x="1322.27" y="72.269" color-interpolation-filters="sRGB" filterUnits="userSpaceOnUse"><feFlood flood-opacity="0" result="BackgroundImageFix"/><feColorMatrix in="SourceAlpha" result="hardAlpha" values="0 0 0 0 0 0 0 0 0 0 0 0 0 0 0 0 0 0 127 0"/><feOffset dy="-19"/><feGaussianBlur stdDeviation="14"/><feComposite in2="hardAlpha" operator="out"/><feColorMatrix values="0 0 0 0 0.874722 0 0 0 0 0.778828 0 0 0 0 0.391944 0 0 0 1 0"/><feBlend in2="BackgroundImageFix" result="effect1_dropShadow_369_1336"/><feBlend in="SourceGraphic" in2="effect1_dropShadow_369_1336" result="shape"/></filter></defs></svg>