<svg xmlns="http://www.w3.org/2000/svg" xmlns:xlink="http://www.w3.org/1999/xlink" fill="none" viewBox="0 0 366 1294"><path fill="#FFEE53" d="M0 50C0 22.938 21.938 1 49 1h267c27.062 0 49 21.938 49 49v1195c0 27.06-21.938 49-49 49H49c-27.062 0-49-21.94-49-49z"/><circle cx="181.448" cy="188.447" r="51.5" stroke="url(#a)" stroke-width="81.333" transform="rotate(31.593 181.448 188.447)"/><circle cx="181.448" cy="188.447" r="51.5" stroke="url(#b)" stroke-width="81.333" transform="rotate(31.593 181.448 188.447)"/><circle cx="181.899" cy="188.978" r="104.542" stroke="url(#c)" stroke-width="6" transform="rotate(-46.683 181.899 188.978)"/><circle cx="181.899" cy="188.978" r="104.542" stroke="url(#d)" stroke-width="6" transform="rotate(-46.683 181.899 188.978)"/><circle cx="182" cy="189" r="146.971" stroke="url(#e)" stroke-width="6" transform="rotate(-90 182 189)"/><circle id="f" cx="168" cy="133" r="2.5" fill="#309AD6" data-ignore="true"/><animate xlink:href="#f" fill="freeze" attributeName="cy" begin="0s" data-ignore="true" dur="5s" from="147" repeatCount="indefinite" to="110"/><circle id="g" cx="171" cy="143" r="2.5" fill="#309AD6" data-ignore="true"/><animate xlink:href="#g" fill="freeze" attributeName="cy" begin="0s" data-ignore="true" dur="3s" from="147" repeatCount="indefinite" to="110"/><circle id="h" cx="166.5" cy="143.5" r="2" fill="#309AD6" data-ignore="true"/><animate xlink:href="#h" fill="freeze" attributeName="cy" begin="0s" data-ignore="true" dur="7s" from="147" repeatCount="indefinite" to="110"/><circle id="i" cx="170.5" cy="137.5" r="2" fill="#309AD6" data-ignore="true"/><animate xlink:href="#i" fill="freeze" attributeName="cy" begin="0s" data-ignore="true" dur="11s" from="147" repeatCount="indefinite" to="110"/><circle id="j" cx="167" cy="139" r="2.5" fill="#309AD6" data-ignore="true"/><animate xlink:href="#j" fill="freeze" attributeName="cy" begin="0s" data-ignore="true" dur="9s" from="147" repeatCount="indefinite" to="110"/><path fill="url(#k)" d="M0 0h191.07v207.644H0z" transform="scale(1 -1)rotate(35.986 1980.788 -284.213)"/><g stroke-width="81.333" filter="url(#l)" shape-rendering="crispEdges" transform="rotate(31.593 178.448 1141.45)"><circle cx="178.448" cy="1141.45" r="51.5" stroke="url(#m)"/><circle cx="178.448" cy="1141.45" r="51.5" stroke="url(#n)"/></g><circle cx="178.902" cy="1141.97" r="104.542" stroke="url(#o)" stroke-width="6" transform="rotate(-46.683 178.902 1141.97)"/><circle cx="178.902" cy="1141.97" r="104.542" stroke="url(#p)" stroke-width="6" transform="rotate(-46.683 178.902 1141.97)"/><circle cx="179" cy="1142" r="146.971" stroke="url(#q)" stroke-width="6" transform="rotate(-90 179 1142)"/><g filter="url(#r)"><path fill="url(#s)" d="M102 1053h133v162H102z" shape-rendering="crispEdges"/></g><circle cx="81" cy="1211" r="31" fill="#fff" stroke="#fff" stroke-width="4"/><path fill="#401F1F" d="M78.825 1212.42v-3.26c.831 0 1.577-.1 2.236-.31a5.8 5.8 0 0 0 1.763-.9q.774-.555 1.161-1.29c.258-.49.387-1 .387-1.55 0-.57-.129-1.09-.387-1.54-.258-.46-.63-.81-1.118-1.04-.487-.25-1.118-.38-1.892-.38q-1.72 0-2.838.99t-1.118 2.58h-6.665c0-1.78.43-3.37 1.29-4.78.889-1.43 2.136-2.55 3.741-3.35 1.605-.83 3.469-1.25 5.59-1.25 2.265 0 4.185.37 5.762 1.12s2.766 1.75 3.569 3.01c.831 1.26 1.247 2.67 1.247 4.21 0 1.72-.573 3.16-1.72 4.3q-1.677 1.725-4.558 2.58c-1.92.58-4.07.86-6.45.86m1.806 15.27c-1.806 0-3.426-.27-4.859-.82q-2.15-.81-3.655-2.28a10.8 10.8 0 0 1-2.279-3.31 9.8 9.8 0 0 1-.774-3.83h7.138q0 1.47.645 2.46c.43.66 1.003 1.14 1.72 1.46.745.31 1.52.47 2.322.47q1.29 0 2.236-.39c.66-.25 1.175-.67 1.548-1.24.373-.58.559-1.28.559-2.11 0-.63-.129-1.2-.387-1.72s-.66-.96-1.204-1.33c-.516-.4-1.175-.71-1.978-.91q-1.204-.3-2.838-.3v-3.7c1.978 0 3.784.18 5.418.52 1.663.32 3.11.83 4.343 1.55 1.233.69 2.179 1.58 2.838 2.66.66 1.09.989 2.4.989 3.92 0 1.75-.473 3.29-1.419 4.64-.946 1.32-2.293 2.37-4.042 3.14-1.749.75-3.856 1.12-6.321 1.12"/><path stroke="#fff" stroke-width="4" d="M75 283v115.468a15 15 0 0 1-11.746 14.643l-3.227.717a15 15 0 0 0-11.742 14.99L50.5 524.5m44 45 80.919 10.818a15 15 0 0 1 13.004 14.368L190.5 657m2 58v41m2.5 67.5V868m6 61.5v66"/><defs><linearGradient id="a" x1="258.576" x2="131.374" y1="135.6" y2="276.833" gradientUnits="userSpaceOnUse"><stop stop-color="#fff"/><stop offset="1" stop-color="#D0D2E4" stop-opacity="0"/></linearGradient><linearGradient id="b" x1="258.576" x2="131.374" y1="135.6" y2="276.833" gradientUnits="userSpaceOnUse"><stop stop-color="#fff"/><stop offset="1" stop-color="#fff" stop-opacity="0"/></linearGradient><linearGradient id="c" x1="115.956" x2="123.472" y1="161.085" y2="292.108" gradientUnits="userSpaceOnUse"><stop stop-color="#fff"/><stop offset="1" stop-color="#D0D2E4" stop-opacity="0"/></linearGradient><linearGradient id="d" x1="289.305" x2="123.472" y1="207.483" y2="292.108" gradientUnits="userSpaceOnUse"><stop stop-color="#fff"/><stop offset="1" stop-color="#D0D2E4" stop-opacity="0"/></linearGradient><linearGradient id="e" x1="170.054" x2="100.52" y1="101.991" y2="332.819" gradientUnits="userSpaceOnUse"><stop stop-color="#fff"/><stop offset="1" stop-color="#fff" stop-opacity="0"/></linearGradient><linearGradient id="m" x1="255.576" x2="128.374" y1="1088.6" y2="1229.83" gradientUnits="userSpaceOnUse"><stop stop-color="#fff"/><stop offset="1" stop-color="#D0D2E4" stop-opacity="0"/></linearGradient><linearGradient id="n" x1="255.576" x2="128.374" y1="1088.6" y2="1229.83" gradientUnits="userSpaceOnUse"><stop stop-color="#fff"/><stop offset="1" stop-color="#fff" stop-opacity="0"/></linearGradient><linearGradient id="o" x1="112.959" x2="120.474" y1="1114.08" y2="1245.11" gradientUnits="userSpaceOnUse"><stop stop-color="#fff"/><stop offset="1" stop-color="#fff" stop-opacity="0"/></linearGradient><linearGradient id="p" x1="286.308" x2="120.474" y1="1160.48" y2="1245.11" gradientUnits="userSpaceOnUse"><stop stop-color="#fff"/><stop offset="1" stop-color="#D0D2E4" stop-opacity="0"/></linearGradient><linearGradient id="q" x1="328.782" x2="97.521" y1="1167.81" y2="1285.82" gradientUnits="userSpaceOnUse"><stop stop-color="#fff"/><stop offset="1" stop-color="#fff" stop-opacity="0"/></linearGradient><pattern id="k" width="1" height="1" patternContentUnits="objectBoundingBox"><use xlink:href="#t" transform="matrix(.00111 0 0 .00102 0 .08)"/></pattern><pattern id="s" width="1" height="1" patternContentUnits="objectBoundingBox"><use xlink:href="#u" transform="matrix(.00244 0 0 .002 0 -.004)"/></pattern><filter id="l" width="240.359" height="240.359" x="58.269" y="1002.27" color-interpolation-filters="sRGB" filterUnits="userSpaceOnUse"><feFlood flood-opacity="0" result="BackgroundImageFix"/><feColorMatrix in="SourceAlpha" result="hardAlpha" values="0 0 0 0 0 0 0 0 0 0 0 0 0 0 0 0 0 0 127 0"/><feOffset dy="-19"/><feGaussianBlur stdDeviation="14"/><feComposite in2="hardAlpha" operator="out"/><feColorMatrix values="0 0 0 0 0.874722 0 0 0 0 0.778828 0 0 0 0 0.391944 0 0 0 1 0"/><feBlend in2="BackgroundImageFix" result="effect1_dropShadow_38_173"/><feBlend in="SourceGraphic" in2="effect1_dropShadow_38_173" result="shape"/></filter><filter id="r" width="165.4" height="194.4" x="85.8" y="1040.8" color-interpolation-filters="sRGB" filterUnits="userSpaceOnUse"><feFlood flood-opacity="0" result="BackgroundImageFix"/><feColorMatrix in="SourceAlpha" result="hardAlpha" values="0 0 0 0 0 0 0 0 0 0 0 0 0 0 0 0 0 0 127 0"/><feOffset dy="4"/><feGaussianBlur stdDeviation="8.1"/><feComposite in2="hardAlpha" operator="out"/><feColorMatrix values="0 0 0 0 0 0 0 0 0 0 0 0 0 0 0 0 0 0 0.11 0"/><feBlend in2="BackgroundImageFix" result="effect1_dropShadow_38_173"/><feBlend in="SourceGraphic" in2="effect1_dropShadow_38_173" result="shape"/></filter><image id="t" width="900" height="730" href="obj_inner-svg-mobile-bubls.png"/><image id="u" width="409" height="502" href="obj_mobile_jeludok2.png"/></defs></svg>