<svg xmlns="http://www.w3.org/2000/svg" width="46" height="46" fill="none" viewBox="0 0 46 46"><circle cx="23" cy="23" r="5.75" stroke="#513951" stroke-width="3"/><path stroke="#513951" stroke-linecap="round" stroke-width="3" d="m27.792 13.416 2.875-3.833m5.75 3.834 1.917-1.917M23 9.584l-1.916-1.917m-.958 5.749-2.619.702m-4.09-4.534L11.5 7.667m1.52 9.859-1.122-2.467"/><path fill="#513951" d="m23.959 42.166.069 1.499a1.5 1.5 0 0 0 1.137-2.39zm.85-4.547.893 1.206zm12.526-9.262-.892-1.206zm-9.314 7.782 1.206-.892zm1.342-5.463.892 1.206zm5.616.317 1.206-.892zm6.473-2.786-.974 1.141a1.5 1.5 0 0 0 2.417-.735zM35.62 31.86l-1.206.892a1.5 1.5 0 0 0 2.267.168zm.194-.195 1.061 1.061a1.5 1.5 0 0 0 .419-1.308zm-7.793 5.31-.451 1.43a1.5 1.5 0 0 0 1.511-.37zm.355-.356 1.06 1.06a1.5 1.5 0 0 0 .146-1.952zM5.739 34.367a1.5 1.5 0 0 0 2.504-1.652zm9.552 4.534a1.5 1.5 0 1 0-1.31 2.698zM5.334 23c0-9.757 7.91-17.667 17.667-17.667v-3C11.587 2.333 2.334 11.586 2.334 23zM23.001 5.333c9.757 0 17.666 7.91 17.666 17.667h3c0-11.414-9.253-20.667-20.666-20.667zm2.164 35.941c-.425-.574-.37-1.778.537-2.449l-1.784-2.412c-2.167 1.603-2.628 4.667-1.165 6.645zm4.062-6.027c-.54-.73-.447-2.274 1.028-3.365L28.47 29.47c-2.368 1.752-3.477 5.099-1.657 7.56zm1.028-3.365c1.475-1.09 2.978-.727 3.518.003l2.412-1.784c-1.82-2.462-5.346-2.382-7.714-.63zm7.972-2.32c.934-.69 1.868-.54 2.252-.214l1.946-2.283c-1.69-1.439-4.205-1.229-5.982.086zM40.667 23c0 1.666-.23 3.276-.66 4.8l2.888.813A20.7 20.7 0 0 0 43.667 23zM23.89 40.668c-.254.012-.499-.002-.89-.002v3c.208 0 .69.014 1.028-.001zm9.883-8.783.64.867 2.413-1.784-.641-.867zm3.52-.467c-.083-.5.16-1.283.934-1.855l-1.784-2.412c-1.532 1.132-2.407 2.977-2.108 4.762zm-.612 1.502.194-.194-2.121-2.121-.195.194zM25.7 38.825c.671-.495 1.395-.57 1.869-.42l.901-2.862c-1.491-.47-3.2-.13-4.553.87zm1.113-1.794.356.48 2.412-1.784-.355-.48zm2.267 1.004.355-.355-2.121-2.122-.355.355zm-20.838-5.32A17.6 17.6 0 0 1 5.334 23h-3c0 4.197 1.253 8.105 3.405 11.367zM23 40.666c-2.767 0-5.382-.635-7.71-1.765l-1.31 2.698A20.6 20.6 0 0 0 23 43.666z"/><path stroke="#513951" stroke-width="3" d="M3.834 24.917s4.218 3.833 7.667 3.833c2.323 0 4.995-1.74 6.492-2.875m12.674 3.833c-.958-.958-2.93-1.65-3.833-2.446"/><path stroke="#513951" stroke-linecap="round" stroke-width="3" d="m31.913 17.205.127 2.708m7.593-.583-3.217 2.833M10.858 24.23l1.6-2.188M7.06 19.837l-.151-2.707"/></svg>