<svg xmlns="http://www.w3.org/2000/svg" width="1469" height="848" fill="none" viewBox="0 0 1469 848"><path fill="url(#a)" fill-opacity=".2" fill-rule="evenodd" d="M230.802 280.376a11.895 11.895 0 0 1-14.514 4.729 11.9 11.9 0 0 0-8.133-.265l-28.402 9.305a25 25 0 0 0-9.261 5.468l-14.087 13.128a19.98 19.98 0 0 0-5.764 19.465 19.98 19.98 0 0 1-5.188 18.908l-6.878 6.945a20.4 20.4 0 0 0-5.547 10.55l-1.851 9.755c-1.494 7.867-10.008 12.266-17.348 9.063-4.913-2.143-10.708-.866-14.213 3.19a12.24 12.24 0 0 0-.159 15.818l2.461 2.966a16.79 16.79 0 0 1 3.104 15.736l-8.912 28.481a25 25 0 0 0 .006 14.95l12.108 38.585a22.02 22.02 0 0 1-8.295 24.567l-7.162 5.064a11.66 11.66 0 0 1-15.008-1.311 11.66 11.66 0 0 0-13.383-2.273l-18.018 8.775a24.67 24.67 0 0 1-14.151 2.262c-14.748-2.023-27.913 9.379-28.016 24.265l-.19 27.56a25 25 0 0 0 5.367 15.652l18.209 23.094a25 25 0 0 1 5.327 14.056l.37 6.502a21.93 21.93 0 0 0 7.682 15.45 21.92 21.92 0 0 1 7.64 14.872l3.025 36.175c.565 6.762 6.365 11.874 13.144 11.586a12.65 12.65 0 0 0 11.216-7.958l19.848-49.824a25 25 0 0 1 11.636-12.899l7.83-4.097a15.74 15.74 0 0 1 14.303-.149c9.332 4.636 20.513-.909 22.47-11.144l5.551-29.037a23.28 23.28 0 0 1 9.946-14.996l16.741-11.17c4.222-2.817 9.967-.881 11.623 3.916a7.746 7.746 0 0 0 9.648 4.862l6.077-1.913a14.3 14.3 0 0 1 6.497-.488l26.478 4.135a25 25 0 0 1 19.146 14.913l11.64 27.358a25 25 0 0 0 16.688 14.401l9.795 2.558a22.4 22.4 0 0 1 15.045 13.124l1.544 3.737a15.86 15.86 0 0 0 13.537 9.769l10 .712c7.486.534 12.819-7.131 9.718-13.965-2.485-5.475.445-11.883 6.212-13.586l6.841-2.019a16.1 16.1 0 0 0 6.645-3.877l4.892-4.739a25 25 0 0 1 21.466-6.708l76.641 12.655a25 25 0 0 1 7.66 2.59l7.816 4.154a18.45 18.45 0 0 1 9.725 17.836 18.45 18.45 0 0 0 4.132 13.262l7.909 9.619a25 25 0 0 0 20.373 9.101l5.707-.242c11.942-.508 22.573 7.509 25.368 19.13l10.711 44.52a25 25 0 0 0 16.276 17.828l11.997 4.069c1.647.559 3.347.944 5.073 1.15l12.068 1.437a25 25 0 0 1 18.448 11.911l3.732 6.184a25 25 0 0 0 7.024 7.535l18.027 12.679a25 25 0 0 0 25.196 2.091l41.39-19.856a25 25 0 0 1 13.879-2.271l16.869 2.084a13.77 13.77 0 0 1 9.989 6.368 13.77 13.77 0 0 0 11.135 6.462l27.199 1.07c7.991.314 13.544-7.857 10.309-15.171a10.81 10.81 0 0 1 1.368-11.025l4.04-5.171a21.76 21.76 0 0 1 25.264-6.793l17.894 7.194c1.843.74 3.59 1.698 5.206 2.852l12.431 8.879a22.31 22.31 0 0 0 26.315-.279 22.3 22.3 0 0 1 15.321-4.347l23.45 2.081a25 25 0 0 1 11.347 3.898l5.141 3.318a25 25 0 0 0 16.335 3.84l19.357-2.163a25.02 25.02 0 0 0 15.52-7.81l18.35-19.708a24.98 24.98 0 0 1 16.44-7.895l26.25-1.95c11.87-.882 21.48-10.017 22.95-21.833l4.65-37.252c.52-4.126-1.1-8.231-4.29-10.895-5.87-4.891-5.86-13.902.02-18.78l15.6-12.953a25 25 0 0 1 9.66-4.958l16.31-4.248a24.99 24.99 0 0 1 22.77 5.388l38.99 34.15a21.1 21.1 0 0 0 23.09 3.128 21.1 21.1 0 0 1 8.85-2.099l12.35-.196c6.06-.096 11.8 2.74 15.4 7.616l.74 1.006a16.32 16.32 0 0 0 13.17 6.617 16.32 16.32 0 0 0 13.19-6.779l.66-.91c9.17-12.741 29.05-8.989 32.95 6.221l5.21 20.31a14.664 14.664 0 0 1-8.87 17.298 14.66 14.66 0 0 0-9.02 10.654l-.53 2.527c-1.3 6.2.51 12.642 4.84 17.264l6.86 7.326a15.72 15.72 0 0 1 4.21 9.677l.51 7.667a6.844 6.844 0 0 0 13.67-.262l.14-4.7a11.33 11.33 0 0 1 7.47-10.339l10.78-3.915a24.98 24.98 0 0 0 16.17-19.673l6.36-41.03c.33-2.17.38-4.374.14-6.556l-10.91-99.357a24.97 24.97 0 0 0-7.2-14.97l-13.54-13.504c-3.87-3.867-3.35-10.289 1.1-13.479a8.87 8.87 0 0 1 11.68 1.192l48.59 52.647c3.51 3.792 9.74 2.786 11.87-1.913l.48-1.059a4.36 4.36 0 0 1 2.39-2.265c3.93-1.522 3.63-7.166-.42-8.275l-9.21-2.515a7.5 7.5 0 0 1-4.29-3.106l-16.59-25.128a25.2 25.2 0 0 1-3.68-9.002l-.78-4.036a25 25 0 0 0-9.02-14.823l-56.09-44.429c-6.53-5.171-16.21-1.538-17.73 6.651-1.11 6.03-6.93 9.998-12.95 8.84l-3.99-.768c-7.87-1.513-15.54 3.385-17.49 11.157l-.19.792a15.95 15.95 0 0 1-12.19 11.739l-2.62.554c-12.48 2.632-24.26-6.799-24.41-19.553l-1.2-97.277a25.02 25.02 0 0 1 7.79-18.436l26.59-25.248c3-2.85 5.13-6.497 6.14-10.512l1.96-7.846c1.48-5.939 7.09-9.901 13.18-9.322 4.84.46 9.5-1.949 11.91-6.162l4.12-7.174a25 25 0 0 0-.13-25.115l-17.18-29.237a16.34 16.34 0 0 1-1.74-12.377l1.62-6.237c1.77-6.84 9.38-10.318 15.71-7.175l1.85.917a8.22 8.22 0 0 0 9.42-1.496 8.23 8.23 0 0 0 1.82-9.07l-1.31-3.108c-2.39-5.653 1.5-11.973 7.62-12.392a8.95 8.95 0 0 1 9.26 6.634l21.21 80.261a25.1 25.1 0 0 0 4.62 9.193l10.85 13.608a24.9 24.9 0 0 0 6.53 5.76l48.46 29.571a23.4 23.4 0 0 0 6.51 2.721c18.66 4.653 34.62-14.007 27.13-31.721l-14.83-35.075a25 25 0 0 0-2.78-4.927l-17.92-24.744a24.96 24.96 0 0 0-10.3-8.271l-32.34-14.032a25.05 25.05 0 0 1-9.41-7.112l-7.89-9.654a25 25 0 0 1-4.55-23.124l3.57-11.7c1.16-3.794 1.21-7.84.15-11.663l-1.56-5.628a12.3 12.3 0 0 1 4.5-13.154 12.31 12.31 0 0 0 3.77-15.098l-29.96-63.714a12.96 12.96 0 0 1 3.43-15.469l1.24-1.036a10.23 10.23 0 0 0 3.48-9.881c-1.08-5.417-6.27-8.995-11.72-8.084l-15.19 2.536a20.196 20.196 0 0 1-21.87-11.917l-1.62-3.733a11.23 11.23 0 0 0-6.89-6.256c-8.47-2.712-10.6-13.703-3.76-19.38l10.94-9.073a19.2 19.2 0 0 0 4.46-5.36l4.02-7.191a21.755 21.755 0 0 0-4.45-26.794c-10.54-9.46-27.17-6.485-33.77 6.041l-6.35 12.046a24.9 24.9 0 0 1-6.23 7.646l-52.5 43.214a25.03 25.03 0 0 0-8.16 12.434L1185 138.351l-10.34 51.236a14.84 14.84 0 0 1-7.8 10.287l-2.62 1.339a11.42 11.42 0 0 1-14.47-3.517 11.42 11.42 0 0 0-12.75-4.221l-3.83 1.222a16.95 16.95 0 0 0-11.45 12.786l-.87 4.344a24.48 24.48 0 0 1-21.31 19.491l-14.15 1.563c-2.48.274-4.91.919-7.2 1.912l-16.56 7.176c-10.96 4.754-23.76 1.082-30.53-8.763l-3.35-4.871-4.12-5.335c-4.26-5.53-1.92-13.607 4.64-16.006l2.27-.832a7.59 7.59 0 0 0 4.79-8.808c-1.13-4.94-6.69-7.407-11.11-4.928l-24.444 13.716-17.619 9.139c-6.057 3.142-8.681 10.413-6.026 16.699a13.08 13.08 0 0 0 15.388 7.559l10.751-2.84c6.67-1.761 13.48 2.357 15.01 9.085.5 2.175 1.58 4.173 3.13 5.775l11 11.357 1.5 2.048c7.76 10.573 6.03 25.344-3.96 33.839l-18.22 15.49c-8.27 7.024-20.551 6.466-28.143-1.278a20.66 20.66 0 0 0-19.209-5.713l-21.392 4.722-44.133 15.153a25 25 0 0 1-11.52 1.123l-3.937-.541a18.23 18.23 0 0 1-15.402-21.601l1.164-5.878a21.9 21.9 0 0 0-7.625-21.215l-2.236-1.827a14.67 14.67 0 0 0-10.379-3.271 14.67 14.67 0 0 1-11.64-4.43l-9.216-9.528a13.91 13.91 0 0 1-3.569-12.741 13.91 13.91 0 0 0-6.507-15.056l-6.906-4.068a24.9 24.9 0 0 1-8.303-7.985l-6.644-10.332a15.4 15.4 0 0 1-1.915-4.33l-2.016-7.537c-1.744-6.521-9.406-9.366-14.984-5.564a9.8 9.8 0 0 0-3.794 11.138l3.053 9.349c.719 2.199.958 4.527.702 6.826a16.2 16.2 0 0 0 9.701 16.679l4.934 2.123a23.45 23.45 0 0 1 13.371 15.419l1.772 6.55c3.244 11.989-2.806 24.542-14.206 29.474l-49.873 21.577a11.39 11.39 0 0 0-6.759 12.033c.85 6.075-3.263 11.733-9.305 12.797l-16.444 2.898a13.04 13.04 0 0 0-10.444 9.928 13.035 13.035 0 0 1-12.987 10.123l-1.476-.032a14.8 14.8 0 0 0-4.799.688l-3.051.965a25 25 0 0 1-19.714-2l-5.892-3.284a16.38 16.38 0 0 1-7.718-9.624c-3.337-11.195-16.988-15.394-26.041-8.01l-10.39 8.475a25 25 0 0 0-8.344 12.893l-4.981 18.563a11.094 11.094 0 0 1-20.491 2.362l-4.075-7.606a22.57 22.57 0 0 0-22.054-11.81l-.826.079a23.8 23.8 0 0 1-12.312-2.108l-32.559-15.124a25 25 0 0 0-6.698-2.031l-45.218-7.018a25 25 0 0 1-11.72-5.132l-3.318-2.637a23.56 23.56 0 0 0-20.075-4.483 23.55 23.55 0 0 1-12.982-.616l-10.641-3.607a25 25 0 0 0-12.68-.887l-5.084.963a23.1 23.1 0 0 1-17.709-3.889l-7.368-5.255a6.32 6.32 0 0 0-5.952-.747c-4.699 1.822-9.534-2.32-8.456-7.243l4.098-18.704a16.6 16.6 0 0 1 3.477-7.091l.87-1.042c9.659-11.556 28.244-8.077 33.068 6.192 3.35 9.911 14.078 15.316 24.07 12.216 8.863-2.75 14.623-11.398 13.658-20.627l-4.905-46.929a12.5 12.5 0 0 1 .471-4.925c2.282-7.512-2.858-15.241-10.669-16.041l-10.763-1.102a21.4 21.4 0 0 0-15.572 4.6l-80.056 64.287a25 25 0 0 1-18.192 5.378l-30.13-3.076a12.37 12.37 0 0 0-11.746 5.746zm390.135-38.224a25 25 0 0 0-12.558 2.842l-76.609 40.182c-9.912 5.199-14.413 16.957-10.507 27.446l1.122 3.012a17.391 17.391 0 0 0 32.465.333l7.627-19.261a25 25 0 0 1 12.495-13.367l33.535-15.969a25 25 0 0 1 10.341-2.425l34.144-.558c3.68-.06 7.061-2.04 8.913-5.221 3.991-6.856-.76-15.493-8.687-15.793z" clip-rule="evenodd"/><path fill="url(#b)" d="m1185 138.351-3.37-.962-.03.134-.03.136zm-157.23 89.984 2.88-1.984-.06-.077-.05-.075zm-27.974-22.193 1.614 3.107.05-.027.05-.028zm31.634 56.774 2.82-2.071-.14-.192-.17-.171zm-89.424 49.108-.754-3.418-.194.043-.189.064zm-288.788-68.651-.132 3.498zm-44.839 1.621 1.626 3.1zm12.558-2.842-.133 3.497zm-89.167 43.024 1.626 3.1zm-10.507 27.446 3.28-1.222zM242.76 274.291l.355-3.482zm-11.746 5.746 2.967 1.856zm60.068-8.048 2.192 2.729zm-18.192 5.378-.355 3.482zm113.82-74.265.356-3.482zm-15.572 4.6 2.191 2.729zm26.335-3.498-.357 3.482zm10.198 20.966 3.481-.364zm4.905 46.929 3.481-.364zm-70.796 2.219 2.686 2.245zm-4.347 8.133-3.419-.749zm3.477-7.091-2.686-2.245zm-7.575 25.795 3.419.749zm14.408 7.99-2.032 2.85zm25.077 9.144.651 3.439zm-17.709-3.889 2.032-2.849zm35.473 3.813-1.124 3.314zm-12.68-.887-.652-3.439zm23.321 4.494 1.124-3.314zm33.057 5.099-2.178 2.74zm15.038 7.769-.537 3.458zm-11.72-5.132-2.177 2.74zm63.636 14.181-1.475 3.174zm-6.698-2.031-.537 3.458zm51.569 19.263-.335-3.484zm-12.312-2.108 1.475-3.174zm35.192 13.839 3.085-1.653zm-22.054-11.81-.334-3.484zm26.129 19.416-3.086 1.653zm20.491-2.362 3.38.907zm13.325-31.456-2.212-2.712zm-8.344 12.893 3.38.907zm18.734-21.368-2.212-2.713zm33.759 17.634-1.704 3.057zm25.606 5.284-1.055-3.337zm-19.714-2 1.704-3.057zm27.564.347-.076 3.499zm-4.799.688-1.056-3.337zm6.275-.656.076-3.5zm23.431-20.051.607 3.447zm16.444-2.898-.607-3.447zm16.064-24.83-1.39-3.212zm64.079-51.051 3.379-.914zm-14.206 29.474 1.39 3.212zm-.937-51.443-1.383 3.215zm13.371 15.419-3.379.914zM785.9 236.388l1.383-3.215zm-10.403-23.505 3.327-1.087zm-3.053-9.349 3.327-1.086zm18.778-5.574 3.382-.904zm3.931 11.867-2.943 1.893zm-1.915-4.33 3.381-.904zm16.862 22.647 1.776-3.016zm-8.303-7.985 2.944-1.893zm15.209 12.053-1.777 3.016zm10.076 27.797 2.515-2.433zm9.216 9.528-2.516 2.433zm22.019 7.701 2.215-2.711zm9.861 23.042-3.433-.68zm-7.625-21.215-2.215 2.71zm6.461 27.093-3.434-.68zm15.402 21.601.476-3.467zm15.457-.582 1.137 3.311zm-11.52 1.123.476-3.467zm77.045-20.998.754 3.418zm47.352 6.991 2.26 2.666zm22.18-49.329-2.82 2.071zm-3.96 33.839-2.27-2.667zm-8.54-47.244 2.51-2.434zm-18.14-14.86.9 3.384zm-10.751 2.84-.893-3.384zm-9.362-24.258-1.611-3.107zm42.063-22.855 1.71 3.052zm6.32 13.736-1.2-3.287zm-2.27.832-1.21-3.287zm33.36 34.975-1.39-3.211zm-30.53-8.763 2.88-1.985zm54.29-.325.38 3.479zm-7.2 1.912-1.39-3.212zm42.66-22.966 3.43.691zm12.32-17.13 1.07 3.334zm-11.45 12.786-3.43-.692zm42.5-6.27-1.6-3.118zm10.42-11.626-3.43-.692zm-7.8 10.287 1.59 3.117zm39.84-121.359-2.23-2.702zm-8.16 12.434-3.36-.961zm66.89-63.294-3.09-1.632zm-6.23 7.646-2.22-2.703zm12.58-19.692 3.1 1.632zm29.74 33.304-2.24-2.694zm4.46-5.36-3.06-1.709zm-15.4 14.434-2.23-2.694zm10.65 25.635-3.21 1.388zm23.49 15.65.58 3.452zm-21.87-11.917 3.21-1.388zm37.06 9.38-.58-3.451zm8.24 17.966-2.24-2.689zm-4.67 16.505 3.17-1.489zm3.43-15.469-2.24-2.688zm26.53 79.183-3.17 1.489zm-8.27 28.252 3.37-.936zm1.41 17.291 3.35 1.022zm.15-11.663 3.37-.936zm.83 46.487-2.71 2.215zm-4.55-23.124-3.35-1.022zm21.85 39.89-1.39 3.211zm-9.41-7.112 2.71-2.215zm52.05 29.415-2.83 2.053zm-10.3-8.271 1.4-3.211zm31 37.942-3.22 1.363zm-2.78-4.927-2.83 2.053zm17.61 40.002-3.22 1.363zm-33.64 29 1.83-2.988zm-54.99-35.331 2.73-2.181zm6.53 5.76-1.83 2.988zm-22-28.561 3.38-.894zm4.62 9.193 2.74-2.181zm-25.83-89.454-3.39.894zm-16.88 5.758 3.22-1.36zm1.31 3.108-3.23 1.36zm-11.24 10.566 1.55-3.135zm-17.56 6.258 3.39.877zm15.71-7.175-1.55 3.135zm-15.59 25.789-3.02 1.773zm-1.74-12.377 3.39.877zm19.05 66.729-3.03-1.742zm-.13-25.115-3.01 1.774zm-3.99 32.289 3.04 1.742zm-25.09 15.484 3.39.85zm-8.1 18.358 2.41 2.538zm6.14-10.512 3.39.849zm-40.52 54.196 3.5-.043zm7.79-18.436 2.41 2.538zm-6.59 115.713 3.5-.043zm39.22 7.26 3.39.849zm-12.19 11.739-.72-3.424zm29.87-23.688.66-3.437zm-17.49 11.157-3.39-.849zm21.48-10.389.66-3.437zm30.68-15.491 2.18-2.744zm65.11 59.252 3.43-.668zm-9.02-14.823 2.17-2.743zm13.48 27.861-2.92 1.928zm-3.68-9.002 3.44-.668zm24.56 37.236.92-3.376zm-4.29-3.106 2.92-1.929zm13.5 5.621.92-3.376zm-1.97 10.54 3.19 1.445zm-12.35 2.972-2.57 2.374zm11.87-1.913 3.19 1.445zm-60.46-50.734 2.57-2.374zm-12.78 12.287-2.47 2.478zm20.74 28.474-3.48.383zm-7.2-14.97-2.47 2.478zm17.97 120.883-3.46-.536zm.14-6.556 3.48-.382zm-22.67 67.259-1.19-3.29zm16.17-19.673-3.45-.536zm-34.42 33.927-3.5-.1zm7.47-10.339 1.19 3.29zm-7.61 15.039-3.49-.1zm-13.67.262-3.49.234zm-4.72-17.344-2.55 2.394zm4.21 9.677 3.49-.234zm-15.91-34.267-3.43-.717zm4.84 17.264 2.55-2.393zm-4.31-19.791-3.43-.717zm17.89-27.952-3.39.87zm-38.16-26.531 2.84 2.045zm32.95 6.221-3.39.87zm-33.61-5.311 2.84 2.046zm-26.36.162-2.81 2.081zm-16.14-8.622.05 3.499zm15.4 7.616 2.81-2.08zm-27.75-7.42.05 3.499zm-31.94-1.029-2.31 2.633zm-61.76-39.538-.88-3.387zm22.77 5.388 2.31-2.633zm-48.74 3.818-2.24-2.693zm9.66-4.958.89 3.387zm-25.26 17.911 2.23 2.693zm4.27 29.675-3.47-.433zm-27.6 59.085-.26-3.49zm22.95-21.833-3.47-.434zm-65.64 31.678-2.57-2.385zm16.44-7.895-.26-3.491zm-50.31 35.413.38 3.478zm15.52-7.81 2.56 2.385zm-51.212 6.133-1.898 2.94zm16.335 3.84.389 3.478zm-32.823-11.056.31-3.486zm11.347 3.898-1.898 2.94zm-34.797-5.979-.31 3.486zm-41.636 4.626-2.035 2.848zm-17.637-11.731 1.306-3.248zm5.206 2.852 2.034-2.848zm-48.364-3.253-2.758-2.155zm25.264-6.793-1.305 3.247zm-29.304 11.964-2.758-2.155zm-11.677 26.196.137-3.497zm-27.199-1.07.138-3.497zm-21.124-12.83-.429 3.474zm-30.748.187-1.514-3.156zm13.879-2.271-.429 3.473zm-80.465 20.036 2.014-2.863zm25.196 2.091-1.514-3.155zm-50.247-22.305-2.997 1.808zm7.024 7.535 2.013-2.863zm-29.204-25.63.414-3.475zm18.448 11.911-2.996 1.808zm-35.589-14.498-1.124 3.315zm5.073 1.15.415-3.476zM573.84 776.99l3.403-.819zm16.276 17.828 1.124-3.315zm-52.355-81.478.149 3.497zm25.368 19.13-3.402.818zm-51.448-27.989-2.704 2.223zm-7.909-9.619-2.703 2.223zm-13.857-31.098 1.643-3.09zm-15.476-6.744-.57 3.453zm7.66 2.59-1.643 3.091zm-105.767-8.537 2.435 2.514zm-4.892 4.739 2.435 2.514zm-13.486 5.896-.991-3.356zm-15.93 27.551-.248 3.492zm-23.537-10.481-3.235 1.336zm13.537 9.769.248-3.491zm-15.081-13.506 3.235-1.336zm-41.528-30.083-3.22 1.37zm16.688 14.401.884-3.387zm-47.474-56.672.54-3.458zm-32.975-3.647-1.051-3.338zm6.497-.488-.54 3.458zm-12.574 2.401 1.051 3.339zm-21.271-8.778-1.943-2.912zm-26.687 26.166 3.438.657zm9.946-14.996-1.943-2.911zm-52.27 55.326 1.622 3.101zm-7.83 4.097 1.622 3.101zm-31.484 62.723 3.251 1.295zm-48.404-90.683-2.749 2.167zm5.327 14.056-3.494.199zm-23.536-37.15 2.749-2.167zm36.99-69.739-1.532-3.146zm18.018-8.775-1.533-3.147zm43.848-26.047-3.34 1.048zm-8.295 24.567 2.02 2.858zm-3.819-78.102 3.34 1.045zm.006 14.95 3.34-1.048zm5.802-59.167-2.693 2.235zm3.104 15.736 3.34 1.045zm26.155-46.773-3.439-.653zm1.851-9.755-3.438-.653zm519.964-104.222.057 3.5zm-44.485 2.983-1.505-3.16zm10.341-2.425-.057-3.5zm-462.443 47.796 2.386 2.561zm406.072-16.035-3.255-1.288zm12.495-13.367 1.505 3.16zm-395.219 10.806 1.089 3.326zm-9.261 5.468-2.386-2.56zm384.358 16.354 3.254 1.288zm-324.048-35.591-2.967-1.856zm291.583 35.258-3.28 1.222zm-314.23-30.794-1.09-3.326zm-27.313 12.631 28.403-9.305-2.18-6.652-28.402 9.305zm-22.051 17.831 14.087-13.128-4.772-5.121-14.087 13.128zm-17.729 45.22 6.878-6.945-4.974-4.926-6.878 6.945zm-6.447 18.494 1.852-9.755-6.877-1.305-1.852 9.755zm-30.003 28.15-2.461-2.966-5.387 4.47 2.461 2.966zm-5.161 47.497 8.911-28.481-6.681-2.091-8.911 28.482zm12.112 51.443L99.456 467.52l-6.68 2.096 12.108 38.585zm-16.775 33.536 7.161-5.064-4.041-5.716-7.161 5.064zm-46.897 5.48 18.018-8.776-3.066-6.293-18.018 8.776zM7.5 596.087l.19-27.561-7-.049-.19 27.561zm22.824 36.554-18.208-23.094-5.497 4.334 18.208 23.094zm6.444 22.525-.37-6.502-6.99.399.372 6.502zm18.34 66.405-3.024-36.175-6.976.583 3.024 36.175zm37.468-47.199L72.73 724.195l6.503 2.591 19.848-49.823zm21.096-18.802-7.831 4.096 3.245 6.203 7.83-4.097zm40.508-37.886-5.551 29.037 6.875 1.315 5.552-29.038zm28.182-28.421-16.741 11.171 3.885 5.823 16.742-11.171zm28.24 6.439-6.077 1.912 2.102 6.678 6.077-1.913zm34.566 3.527-26.478-4.135-1.08 6.916 26.478 4.136zm33.467 44.359-11.64-27.358-6.441 2.74 11.64 27.358zm24.147 14.943-9.796-2.559-1.769 6.773 9.796 2.559zm18.939 18.911-1.544-3.737-6.47 2.672 1.544 3.737zm20.551 8.326-10.001-.712-.497 6.982 10.001.713zm21.531-29.436-6.841 2.02 1.981 6.713 6.842-2.019zm10.093-7.773-4.892 4.738 4.87 5.029 4.892-4.739zm101.112 5.008-76.641-12.655-1.14 6.906 76.641 12.655zm16.549 7.107-7.817-4.154-3.285 6.181 7.817 4.154zm22.826 41.585-7.908-9.62-5.407 4.446 7.908 9.619zm23.228 7.584-5.707.243.298 6.993 5.707-.242zm39.631 66.328-10.711-44.52-6.805 1.637 10.71 44.521zm25.995 19.402-11.998-4.07-2.249 6.629 11.998 4.07zm16.43 2.426-12.067-1.438-.829 6.951 12.068 1.438zm24.762 19.762-3.731-6.184-5.993 3.616 3.731 6.184zm24.069 19.159-18.028-12.679-4.027 5.726 18.028 12.679zm63.058-18.058-41.39 19.857 3.028 6.311 41.39-19.857zm32.692-.505-16.87-2.084-.858 6.947 16.869 2.085zm48.03 13.877-27.198-1.07-.275 6.994 27.198 1.07zm12.822-30.025-4.04 5.171 5.516 4.31 4.04-5.172zm47.222-.692-17.894-7.194-2.611 6.495 17.894 7.194zm18.365 12.131-12.431-8.879-4.068 5.696 12.43 8.879zm63.362-3.183-23.451-2.082-.619 6.973 23.451 2.081zm18.076 7.761-5.141-3.318-3.796 5.881 5.141 3.318zm33.404 1.14-19.356 2.163.778 6.956 19.348-2.163zm31.69-26.425-18.35 19.708 5.13 4.77 18.35-19.708zm45-10.95-26.25 1.949.52 6.981 26.24-1.949zm24.39-56.028-4.65 37.251 6.94.867 4.66-37.251zm12.56-44.888-15.6 12.953 4.47 5.386 15.6-12.953zm27.33-9.9-16.31 4.248 1.77 6.774 16.3-4.248zm64.95 40.293-38.99-34.151-4.61 5.265 38.98 34.151zm41.92-.035-12.35.196.11 6.999 12.35-.196zm19.02 10.042-.75-1.006-5.62 4.161.74 1.006zm21.36-1.038-.66.91 5.68 4.092.66-.911zm44.39 27.708-5.21-20.31-6.78 1.739 5.21 20.31zm-18.38 32.065.52-2.527-6.85-1.434-.53 2.527zm10.83 21.48-6.87-7.326-5.11 4.786 6.87 7.327zm5.65 19.503-.51-7.667-6.99.468.52 7.667zm6.82-4.828-.13 4.7 6.99.2.14-4.7zm20.56-17.444-10.79 3.915 2.39 6.58 10.78-3.915zm20.26-57.949-6.35 41.03 6.91 1.071 6.36-41.03zm-10.79-104.994 10.91 99.356 6.96-.764-10.91-99.357zm-19.73-26.379 13.54 13.504 4.94-4.956-13.53-13.504zm66.42 35.508-48.6-52.647-5.15 4.748 48.6 52.647zm6.58-2.043-.48 1.058 6.38 2.891.48-1.059zm-4.98-8.234 9.21 2.516 1.85-6.753-9.21-2.515zm-22.87-29.682 16.59 25.128 5.84-3.857-16.59-25.128zm-4.98-14.297.79 4.036 6.87-1.337-.79-4.036zm-63.84-57.178 56.09 44.43 4.34-5.487-56.08-44.43zm-33.16 15.417 3.99.768 1.32-6.874-3.99-.768zm-13.63 9.361.2-.793-6.79-1.697-.2.793zm-17.48 14.868 2.63-.553-1.45-6.849-2.62.553zm-29.82-120.211 1.19 97.276 7-.085-1.2-97.277zm35.46-46.265-26.59 25.247 4.82 5.077 26.59-25.248zm7.11-16.669-1.96 7.845 6.79 1.699 1.96-7.845zm29.58-23.551-4.12 7.174 6.07 3.484 4.12-7.174zm-17.3-50.837 17.19 29.238 6.03-3.547-17.18-29.238zm-.49-21.263-1.61 6.237 6.77 1.753 1.62-6.237zm22.5-8.517-1.84-.916-3.11 6.269 1.84.916zm5.15-9.179 1.31 3.108 6.45-2.72-1.31-3.108zm44.7 72.249-21.21-80.262-6.77 1.789 21.22 80.262zm14.82 21.514-10.84-13.608-5.48 4.362 10.85 13.609zm54.09 34.524-48.47-29.571-3.65 5.976 48.47 29.571zm13.76-59.724 14.83 35.075 6.44-2.726-14.83-35.075zm-20.31-28.981 17.92 24.744 5.67-4.106-17.92-24.744zm-41.2-21.145 32.34 14.032 2.79-6.422-32.35-14.032zm-18.62-17.762 7.89 9.654 5.42-4.43-7.89-9.654zm-1.62-38.062-3.57 11.701 6.7 2.044 3.57-11.7zm-1.43-15.331 1.56 5.628 6.74-1.873-1.56-5.628zm-21.49-91.414 29.96 63.714 6.34-2.978-29.96-63.714zm5.6-20.683-1.24 1.037 4.48 5.377 1.24-1.037zm-20.61-9.288 15.18-2.536-1.15-6.904-15.19 2.536zm-27.28-17.714 1.61 3.732 6.43-2.775-1.61-3.732zm1.26-38.79-10.93 9.073 4.47 5.387 10.93-9.074zm7.66-11.567-4.02 7.191 6.11 3.417 4.02-7.191zm-38.41-5.366 6.35-12.046-6.19-3.264-6.35 12.046zm-59.61 51.93 52.51-43.214-4.45-5.405-52.51 43.215zm-20.56 58.095 13.55-47.401-6.73-1.923-13.55 47.401zm-10.27 50.967 10.34-51.236-6.86-1.384-10.34 51.236zm-12.26 14.051 2.62-1.339-3.18-6.235-2.63 1.339zm-31.57-6.299 3.82-1.222-2.13-6.668-3.82 1.222zm-9.96 14.487.87-4.343-6.86-1.384-.87 4.344zm-38.51 23.842 14.15-1.563-.76-6.958-14.16 1.563zm-22.74 8.82 16.55-7.176-2.78-6.423-16.56 7.177zm-38.17-14.86 3.35 4.87 5.77-3.969-3.35-4.87zm-4-5.184 4.11 5.336 5.55-4.273-4.11-5.335zm8.48-22.261-2.28.832 2.41 6.573 2.27-.831zm-27.85 6.319 24.44-13.716-3.42-6.104-24.447 13.716zm-17.721 9.194 17.621-9.139-3.225-6.214-17.619 9.139zm17.611 14.927-10.754 2.84 1.787 6.768 10.757-2.84zm32.54 27.167-11-11.357-5.02 4.869 10.99 11.357zm1.81 2.412-1.5-2.049-5.65 4.142 1.51 2.048zm-22.74 54.065 18.22-15.49-4.53-5.333-18.22 15.49zm-70.25-1.518 21.392-4.721-1.508-6.836-21.392 4.722zm-43.75 15.047 44.133-15.154-2.274-6.621-44.132 15.154zm-17.071.739 3.938.54.952-6.934-3.937-.541zM864.745 299.6l-1.165 5.878 6.867 1.36 1.164-5.878zm-8.643-19.652 2.236 1.827 4.429-5.42-2.235-1.828zm-31.536-17.506 9.216 9.528 5.032-4.866-9.217-9.528zm-16.243-31.283 6.906 4.069 3.553-6.032-6.906-4.068zM792.21 211.72l6.643 10.332 5.888-3.786-6.644-10.332zm-4.369-12.855 2.016 7.536 6.762-1.808-2.015-7.537zm-9.017 12.931-3.053-9.348-6.654 2.173 3.053 9.349zm13.393 23.5-4.934-2.123-2.766 6.43 4.934 2.123zm17.139 24.27-1.773-6.55-6.757 1.828 1.773 6.55zm-66.069 55.177 49.874-21.577-2.779-6.424-49.874 21.577zm-33.29 27.963 16.445-2.898-1.215-6.894-16.444 2.898zm-25.59 20.071 1.476.032.152-6.999-1.477-.031zm-6.718 1.491 3.05-.965-2.111-6.674-3.05.965zm-28.366-5.564 5.892 3.284 3.408-6.114-5.891-3.284zM609.09 349.2l10.39-8.475-4.424-5.425-10.39 8.476zm-12.157 29.651 4.981-18.563-6.76-1.814-4.982 18.563zm-31.031-4.499 4.074 7.607 6.171-3.305-4.075-7.607zm-19.461-9.899.827-.079-.669-6.968-.827.079zm-46.68-17.542 32.56 15.125 2.949-6.349-32.56-15.125zm-50.978-8.765 45.218 7.018 1.074-6.917-45.219-7.018zm-16.679-8.487 3.319 2.637 4.355-5.48-3.319-2.637zm-42.644-8.132 10.641 3.608 2.248-6.629-10.642-3.608zm-15.989.201 5.084-.963-1.303-6.878-5.084.963zm-27.76-9.733 7.368 5.255 4.064-5.699-7.368-5.255zm-11.697-30.293-4.098 18.704 6.838 1.498 4.098-18.704zm5.081-9.628-.871 1.041 5.372 4.489.87-1.041zm65.095-46.54 4.905 46.929 6.962-.728-4.905-46.929zm-17.837-18.951 10.763 1.103.714-6.964-10.764-1.102zm-93.079 68.135 80.055-64.287-4.383-5.458-80.055 64.287zm-50.87 3.055 30.131 3.076.711-6.964-30.131-3.076zm-8.635 4.46.212-.34-5.934-3.713-.212.34zm299.627 6.043 76.609-40.182-3.252-6.199-76.609 40.182zm-7.731 26.136-1.122-3.012-6.559 2.443 1.121 3.013zm33.557-18.994-7.626 19.26 6.508 2.577 7.627-19.26zm47.78-31.208-33.535 15.969 3.01 6.32 33.535-15.969zm45.933-3.322-34.144.557.114 6.999 34.144-.557zm-32.131-15.239 32.282 1.222.265-6.995-32.282-1.222zm44.126 15.277c5.319-9.138-1.013-20.65-11.579-21.05l-.265 6.995c5.287.2 8.456 5.961 5.794 10.534zm-54.925-12.832a21.5 21.5 0 0 1 10.799-2.445l.265-6.995a28.5 28.5 0 0 0-14.316 3.241zm-79.861 33.983c-11.472 6.017-16.682 19.626-12.16 31.766l6.559-2.443c-3.291-8.837.501-18.744 8.853-23.124zm-287.029-11.268a15.87 15.87 0 0 0-15.068 7.371l5.934 3.713a8.87 8.87 0 0 1 8.423-4.12zm45.776-1.549a21.5 21.5 0 0 1-15.645 4.625l-.711 6.964c7.45.76 14.9-1.442 20.739-6.131zm98.175-69.64a24.9 24.9 0 0 0-18.12 5.353l4.383 5.458a17.9 17.9 0 0 1 13.024-3.848zm24.425 21.643c2.922-9.62-3.66-19.517-13.661-20.541l-.714 6.964c5.621.575 9.319 6.136 7.677 11.542zm-.339 3.543a9 9 0 0 1 .339-3.543l-6.698-2.035a16 16 0 0 0-.603 6.306zm-11.197 71.263c10.441-3.24 17.242-13.428 16.102-24.334l-6.962.728c.789 7.552-3.93 14.66-11.214 16.92zm-28.423-14.439c3.965 11.73 16.638 18.096 28.423 14.439l-2.074-6.686c-8.199 2.544-16.982-1.902-19.718-9.994zm-27.066-5.067c7.905-9.46 23.118-6.611 27.066 5.067l6.631-2.241c-5.698-16.858-27.657-20.969-39.068-7.315zm-3.614 6.637a13.1 13.1 0 0 1 2.744-5.596l-5.372-4.489a20.1 20.1 0 0 0-4.21 8.587zm-.326 21.935c-2.096.812-4.253-1.035-3.772-3.231l-6.838-1.498c-1.675 7.649 5.839 14.086 13.14 11.255zm9.249 1.161a9.81 9.81 0 0 0-9.249-1.161l2.53 6.526a2.82 2.82 0 0 1 2.655.334zm22.393 8.554a19.6 19.6 0 0 1-15.025-3.299l-4.064 5.699a26.6 26.6 0 0 0 20.392 4.478zm19.539.048a28.5 28.5 0 0 0-14.455-1.011l1.303 6.878c3.64-.69 7.396-.427 10.905.762zm21.695 4.132a20.07 20.07 0 0 1-11.053-.524l-2.248 6.629a27.06 27.06 0 0 0 14.911.707zm23.057 5.149a27.06 27.06 0 0 0-23.057-5.149l1.61 6.812a20.06 20.06 0 0 1 17.092 3.817zm13.397 7.05a21.5 21.5 0 0 1-10.078-4.413l-4.355 5.48a28.5 28.5 0 0 0 13.36 5.85zm52.854 9.333a28.5 28.5 0 0 0-7.635-2.315l-1.074 6.917c1.993.309 3.932.897 5.76 1.747zm43.062 16.923a20.3 20.3 0 0 1-10.502-1.798l-2.949 6.349a27.3 27.3 0 0 0 14.12 2.417zm26.3 13.562a26.07 26.07 0 0 0-25.473-13.641l.669 6.968a19.07 19.07 0 0 1 18.634 9.978zm12.352 11.447a7.59 7.59 0 0 1-8.277-3.84l-6.171 3.305a14.59 14.59 0 0 0 15.909 7.381zm5.748-5.457a7.59 7.59 0 0 1-5.748 5.457l1.461 6.846a14.59 14.59 0 0 0 11.048-10.489zm14.494-33.261a28.5 28.5 0 0 0-9.512 14.698l6.76 1.814a21.5 21.5 0 0 1 7.176-11.088zm41.997 1.247c-4.051-13.588-20.62-18.685-31.607-9.723l4.424 5.425c7.118-5.806 17.851-2.504 20.475 6.298zm6.069 7.567a12.88 12.88 0 0 1-6.069-7.567l-6.708 2a19.88 19.88 0 0 0 9.368 11.681zm22.846 5.004a21.5 21.5 0 0 1-16.955-1.72l-3.408 6.114a28.5 28.5 0 0 0 22.474 2.28zm8.98-1.815a18.3 18.3 0 0 0-5.93.85l2.111 6.674a11.4 11.4 0 0 1 3.668-.526zm10.977-7.373a9.534 9.534 0 0 1-9.5 7.404l-.152 6.999a16.535 16.535 0 0 0 16.475-12.841zm13.248-12.594a16.53 16.53 0 0 0-13.248 12.594l6.823 1.562a9.53 9.53 0 0 1 7.639-7.262zm22.89-11.763a7.89 7.89 0 0 1-6.446 8.865l1.215 6.894c7.897-1.392 13.274-8.787 12.164-16.729zm8.835-15.73a14.89 14.89 0 0 0-8.835 15.73l6.933-.97a7.89 7.89 0 0 1 4.681-8.336zm62.091-46.925c2.789 10.311-2.414 21.106-12.217 25.348l2.779 6.424c12.995-5.622 19.892-19.932 16.195-33.6zm-13.148-19.668a19.95 19.95 0 0 1 11.375 13.118l6.757-1.828a26.95 26.95 0 0 0-15.366-17.72zm-16.731-22.405a19.7 19.7 0 0 0 11.797 20.282l2.766-6.43a12.705 12.705 0 0 1-7.606-13.077zm-.55-5.351c.564 1.724.751 3.549.55 5.351l6.957.775a19.7 19.7 0 0 0-.853-8.3zm2.097-24.466a13.3 13.3 0 0 0-5.15 15.117l6.654-2.173a6.3 6.3 0 0 1 2.439-7.16zm20.337 7.552c-2.368-8.851-12.767-12.712-20.337-7.552l3.943 5.784c3.585-2.444 8.51-.615 9.631 3.577zm3.493 10.878a11.9 11.9 0 0 1-1.478-3.341l-6.762 1.808a18.8 18.8 0 0 0 2.353 5.319zm13.779 17.194a21.4 21.4 0 0 1-7.135-6.862l-5.888 3.786a28.4 28.4 0 0 0 9.47 9.107zm15.05 22.912a17.41 17.41 0 0 0-8.144-18.844l-3.553 6.032a10.41 10.41 0 0 1 4.87 11.267zm2.671 9.536a10.41 10.41 0 0 1-2.671-9.536l-6.827-1.545a17.41 17.41 0 0 0 4.467 15.947zm18.08 12.901a11.18 11.18 0 0 1-8.863-3.373l-5.032 4.866a18.17 18.17 0 0 0 14.417 5.487zm12.855 4.05a18.17 18.17 0 0 0-12.855-4.05l.522 6.98a11.17 11.17 0 0 1 7.903 2.491zm11.079 26.433a25.4 25.4 0 0 0-8.844-24.605l-4.429 5.42a18.4 18.4 0 0 1 6.407 17.825zm.423 15.917a14.73 14.73 0 0 1-1.587-10.039l-6.867-1.36a21.73 21.73 0 0 0 2.341 14.81zm10.858 7.415a14.73 14.73 0 0 1-10.858-7.415l-6.113 3.411a21.73 21.73 0 0 0 16.018 10.939zm13.845-.425a21.5 21.5 0 0 1-9.908.966l-.952 6.934c4.418.607 8.916.169 13.133-1.279zm88.37-13.303a24.16 24.16 0 0 0-22.463-6.68l1.508 6.836a17.16 17.16 0 0 1 15.956 4.745zm23.373 1.062c-6.86 5.834-17.068 5.371-23.373-1.062l-4.999 4.901c8.877 9.055 23.242 9.708 32.902 1.494zm21.63-44.591c6.67 9.093 5.18 21.796-3.41 29.101l4.53 5.333c11.39-9.683 13.37-26.523 4.52-38.575zm-16.22-20.474a15.7 15.7 0 0 0 4.03 7.433l5.02-4.869a8.8 8.8 0 0 1-2.23-4.119zm-10.7-6.478c4.75-1.256 9.6 1.681 10.7 6.478l6.82-1.555c-1.97-8.658-10.72-13.958-19.31-11.691zm-30.264-6.742c3.211 7.604 11.526 11.689 19.507 9.582l-1.787-6.768a9.58 9.58 0 0 1-11.271-5.537zm7.64-21.167c-7.678 3.983-11.004 13.199-7.64 21.167l6.449-2.723a9.58 9.58 0 0 1 4.414-12.23zm58.194-15.599c-1.65-7.219-9.77-10.825-16.23-7.201l3.42 6.104c2.38-1.335 5.38-.006 5.98 2.654zm-7 12.874a11.09 11.09 0 0 0 7-12.874l-6.83 1.557a4.076 4.076 0 0 1-2.57 4.743zm-5.33 11.415c-2.82-3.657-1.27-8.997 3.06-10.584l-2.41-6.573c-8.77 3.212-11.9 14.025-6.2 21.429zm33.83 17.894c-9.43 4.088-20.43.93-26.26-7.537l-5.77 3.969c7.73 11.223 22.32 15.409 34.82 9.99zm24.76-9.356a28.5 28.5 0 0 0-8.2 2.179l2.78 6.423a21.5 21.5 0 0 1 6.19-1.644zm32.42-18.267a20.99 20.99 0 0 1-18.26 16.704l.76 6.958a27.99 27.99 0 0 0 24.36-22.279zm14.69-19.772a20.44 20.44 0 0 0-13.82 15.428l6.86 1.384a13.44 13.44 0 0 1 9.09-10.144zm20.48 4.294a14.92 14.92 0 0 0-16.66-5.516l2.13 6.668a7.91 7.91 0 0 1 8.84 2.927zm10.03 2.438a7.916 7.916 0 0 1-10.03-2.438l-5.69 4.079a14.93 14.93 0 0 0 18.91 4.594zm8.59-9.2a11.34 11.34 0 0 1-5.96 7.861l3.18 6.235a18.3 18.3 0 0 0 9.64-12.712zm33.24-113.082a28.53 28.53 0 0 0-9.29 14.175l6.73 1.923a21.5 21.5 0 0 1 7.01-10.693zm57.87-49.79a21.7 21.7 0 0 1-5.36 6.575l4.45 5.405a28.6 28.6 0 0 0 7.1-8.716zm45.54-19.06c-12.23-10.982-31.53-7.529-39.19 7.014l6.19 3.264c5.54-10.51 19.49-13.006 28.33-5.069zm5.17 31.107c5.76-10.303 3.62-23.221-5.17-31.107l-4.67 5.21c6.34 5.698 7.9 15.035 3.73 22.48zm-9.3 13.536a22.4 22.4 0 0 0 5.28-6.345l-6.11-3.417a15.5 15.5 0 0 1-3.64 4.375zm-8.35 22.427c-5.83-1.869-7.29-9.442-2.58-13.353l-4.47-5.387c-8.97 7.441-6.18 21.85 4.92 25.406zm9.05 8.202a14.76 14.76 0 0 0-9.05-8.202l-2.13 6.666a7.76 7.76 0 0 1 4.75 4.31zm19.69 13.585a16.696 16.696 0 0 1-18.08-9.853l-6.43 2.775c4.32 10.009 14.92 15.778 25.67 13.982zm30.93 8.311c-1.46-7.269-8.43-12.069-15.74-10.847l1.15 6.904c3.59-.6 7.01 1.755 7.72 5.321zm-4.68 13.258a13.75 13.75 0 0 0 4.68-13.258l-6.87 1.378a6.73 6.73 0 0 1-2.29 6.503zm-3.74 12.328a9.44 9.44 0 0 1 2.5-11.291l-4.48-5.377a16.445 16.445 0 0 0-4.36 19.646zm25.11 83.106c6.02-4.491 8.04-12.597 4.85-19.392l-6.34 2.978a8.81 8.81 0 0 1-2.7 10.805zm-3.22 9.413a8.81 8.81 0 0 1 3.22-9.413l-4.19-5.609a15.8 15.8 0 0 0-5.77 16.895zm1.39 19.249a24.37 24.37 0 0 0 .17-13.621l-6.74 1.873c.88 3.18.84 6.547-.13 9.703zm.34 31.587a21.5 21.5 0 0 1-3.91-19.887l-6.7-2.044a28.51 28.51 0 0 0 5.19 26.361zm15.98 15.77a21.55 21.55 0 0 1-8.09-6.116l-5.42 4.43a28.55 28.55 0 0 0 10.73 8.108zm44.09 23.461c-3-4.139-7.06-7.395-11.74-9.429l-2.79 6.422a21.5 21.5 0 0 1 8.86 7.113zm21.08 30.361c-.84-1.986-1.9-3.87-3.16-5.617l-5.67 4.106a22 22 0 0 1 2.39 4.237zm-16.37 71.556c21.47 5.35 39.82-16.109 31.2-36.481l-6.44 2.726c6.36 15.057-7.2 30.917-23.06 26.962zm-7.48-3.13a26.8 26.8 0 0 0 7.48 3.13l1.7-6.793a19.7 19.7 0 0 1-5.53-2.313zm-55.91-36.137a28.6 28.6 0 0 0 7.44 6.566l3.65-5.976a21.5 21.5 0 0 1-5.62-4.953zm-16.11-24.088c1.01 3.82 2.8 7.389 5.26 10.479l5.48-4.362a21.6 21.6 0 0 1-3.98-7.906zm-26.85-84.298a5.434 5.434 0 0 1 5.63 4.036l6.77-1.789c-1.52-5.766-6.93-9.639-12.88-9.231zm-4.64 7.54c-1.45-3.44.92-7.285 4.64-7.54l-.48-6.984c-8.51.583-13.93 9.378-10.61 17.244zm-1.28 16.036a11.73 11.73 0 0 0 2.59-12.928l-6.45 2.72a4.72 4.72 0 0 1-1.04 5.211zm-13.43 2.132a11.73 11.73 0 0 0 13.43-2.132l-4.9-4.997a4.735 4.735 0 0 1-5.42.86zm-12.61 4.001c1.21-4.688 6.43-7.071 10.77-4.917l3.11-6.269c-8.32-4.133-18.33.439-20.66 9.433zm-.25 15.963a12.83 12.83 0 0 1-1.37-9.726l-6.77-1.753a19.85 19.85 0 0 0 2.1 15.026zm17.33 57.868a28.5 28.5 0 0 0-.15-28.63l-6.03 3.547a21.52 21.52 0 0 1 .11 21.599zm-19.4 15.079c6.2.59 12.18-2.501 15.28-7.905l-6.07-3.484a8.9 8.9 0 0 1-8.55 4.42zm-9.46 6.687a8.89 8.89 0 0 1 9.46-6.687l.66-6.969c-7.81-.743-15 4.338-16.91 11.957zm-9.08 20.046a25.35 25.35 0 0 0 7.12-12.201l-6.79-1.699a18.26 18.26 0 0 1-5.15 8.824zm-33.29 41.103a21.52 21.52 0 0 1 6.7-15.855l-4.82-5.077a28.47 28.47 0 0 0-8.87 21.018zm21.39 113.448c-10.32 2.177-20.06-5.622-20.19-16.171l-7 .085c.18 14.961 13.99 26.023 28.63 22.935zm12.13-9.716a12.45 12.45 0 0 1-9.51 9.163l1.45 6.849a19.44 19.44 0 0 0 14.85-14.315zm21.74-14.538c-9.69-1.864-19.15 4.171-21.54 13.745l6.79 1.697c1.49-5.968 7.39-9.73 13.43-8.568zm12.84-5.273a7.547 7.547 0 0 1-8.85 6.041l-1.32 6.874c7.93 1.525 15.59-3.699 17.06-11.64zm23.35-8.757c-8.6-6.808-21.35-2.024-23.35 8.757l6.89 1.275c1.03-5.595 7.65-8.078 12.11-4.545zm66.36 61.328a28.47 28.47 0 0 0-10.28-16.898l-4.34 5.487a21.5 21.5 0 0 1 7.75 12.748zm3.95 11.777a21.4 21.4 0 0 1-3.16-7.741l-6.87 1.337a28.4 28.4 0 0 0 4.19 10.261zm18.88 26.787a4.02 4.02 0 0 1-2.29-1.659l-5.84 3.857a11 11 0 0 0 6.28 4.554zm9.98 17.428c7.07-2.743 6.54-12.915-.77-14.913l-1.85 6.753c.27.072.39.186.47.283.09.118.16.293.17.504a.9.9 0 0 1-.12.518c-.06.104-.18.23-.43.33zm-.47.448a.85.85 0 0 1 .47-.448l-2.53-6.525a7.86 7.86 0 0 0-4.32 4.083zm-18.11 3.901c5.2 5.632 14.46 4.139 17.63-2.842l-6.38-2.891c-1.09 2.419-4.3 2.936-6.1.985zm-55.66-53.368a5.355 5.355 0 0 1 7.06.721l5.15-4.748a12.367 12.367 0 0 0-16.29-1.662zm-.66 8.156c-2.35-2.34-2.03-6.226.66-8.156l-4.08-5.689c-6.21 4.45-6.93 13.407-1.53 18.801zm21.74 30.57a28.5 28.5 0 0 0-8.21-17.066l-4.94 4.956a21.53 21.53 0 0 1 6.19 12.875zm10.75 106.83c.38-2.473.44-4.986.16-7.473l-6.96.764a21.3 21.3 0 0 1-.12 5.638zm-24.8 63.458a28.5 28.5 0 0 0 18.44-22.428l-6.91-1.071a21.51 21.51 0 0 1-13.91 16.919zm-15.94 11.064a7.84 7.84 0 0 1 5.16-7.149l-2.39-6.58a14.84 14.84 0 0 0-9.77 13.529zm-11.23 14.723c5.88.428 10.92-4.132 11.09-10.023l-6.99-.2a3.35 3.35 0 0 1-3.59 3.241zm-9.57-9.627c.34 5.146 4.43 9.252 9.57 9.627l.51-6.982a3.344 3.344 0 0 1-3.1-3.113zm-3.78-15.184a12.15 12.15 0 0 1 3.26 7.517l6.99-.468a19.2 19.2 0 0 0-5.14-11.836zm-12.58-27.701c-1.53 7.316.6 14.92 5.71 20.374l5.11-4.786a15.91 15.91 0 0 1-3.96-14.154zm11.71-15.724a18.16 18.16 0 0 0-11.18 13.197l6.85 1.434c.78-3.69 3.36-6.74 6.87-8.11zm6.75-13.168a11.165 11.165 0 0 1-6.75 13.168l2.54 6.521c8.55-3.337 13.27-12.534 10.99-21.428zm-31.93-25.356c7.44-10.332 23.56-7.289 26.72 5.046l6.78-1.739c-4.64-18.086-28.27-22.548-39.18-7.398zm-16.68 9.144a19.82 19.82 0 0 0 16.02-8.233l-5.68-4.092a12.81 12.81 0 0 1-10.36 5.325zm-15.99-8.036a19.82 19.82 0 0 0 15.99 8.036l-.02-7a12.8 12.8 0 0 1-10.34-5.197zm-13.28-7.204c4.94-.078 9.6 2.23 12.54 6.198l5.62-4.161a22.27 22.27 0 0 0-18.27-9.036zm-19.73 1.948a17.65 17.65 0 0 1 7.38-1.752l-.11-6.999c-3.57.057-7.09.892-10.31 2.448zm-26.92-3.647a24.61 24.61 0 0 0 26.92 3.647l-3.04-6.303a17.6 17.6 0 0 1-19.26-2.609zm-58.57-38.784a21.51 21.51 0 0 1 19.59 4.633l4.61-5.265a28.5 28.5 0 0 0-25.96-6.142zm-24.62 8.512a21.6 21.6 0 0 1 8.32-4.264l-1.77-6.774a28.6 28.6 0 0 0-11.02 5.652zm-15.61 26.352c-4.19-3.489-4.18-9.919.01-13.399l-4.47-5.386c-7.56 6.275-7.57 17.869-.03 24.161zm5.53 14.017a15.72 15.72 0 0 0-5.53-14.017l-4.49 5.376a8.71 8.71 0 0 1 3.07 7.774zm-30.83 62.142c13.54-1.006 24.49-11.42 26.17-24.891l-6.94-.867c-1.27 10.162-9.53 18.018-19.74 18.777zm-40.38 8.739a21.5 21.5 0 0 1 14.14-6.79l-.52-6.981a28.53 28.53 0 0 0-18.75 9.001zm-36.05 28.611a28.5 28.5 0 0 0 17.7-8.903l-5.13-4.77a21.47 21.47 0 0 1-13.34 6.717zm-37.97-2.215a28.5 28.5 0 0 0 18.622 4.378l-.778-6.956a21.5 21.5 0 0 1-14.048-3.303zm-14.899-6.67a21.5 21.5 0 0 1 9.758 3.352l3.796-5.881a28.5 28.5 0 0 0-12.935-4.443zm-36.368 1.584a18.8 18.8 0 0 1 12.917-3.665l.619-6.973a25.8 25.8 0 0 0-17.725 5.029zm-30.444.323a25.81 25.81 0 0 0 30.444-.323l-4.189-5.609a18.81 18.81 0 0 1-22.186.236zm-16.907-11.332a21.6 21.6 0 0 1 4.477 2.453l4.068-5.696a28.5 28.5 0 0 0-5.934-3.252zm-39.095-1.494a18.26 18.26 0 0 1 21.201-5.7l2.611-6.495a25.26 25.26 0 0 0-29.328 7.886zm-4.965 12.626a7.3 7.3 0 0 1 .925-7.454l-5.516-4.31a14.31 14.31 0 0 0-1.811 14.596zm-13.648 20.084c10.579.416 17.93-10.401 13.648-20.084l-6.402 2.832c2.187 4.945-1.568 10.47-6.971 10.258zm-41.164-9.174a17.27 17.27 0 0 0 13.966 8.104l.275-6.994a10.27 10.27 0 0 1-8.305-4.82zm-7.45-4.749a10.27 10.27 0 0 1 7.45 4.749l5.936-3.71a17.27 17.27 0 0 0-12.527-7.987zm-28.805-.132a21.5 21.5 0 0 1 11.936-1.953l.858-6.947a28.5 28.5 0 0 0-15.822 2.589zm-70.113 17.473a28.5 28.5 0 0 0 28.723 2.384l-3.028-6.311a21.5 21.5 0 0 1-21.668-1.799zm-26.035-21.269a28.5 28.5 0 0 0 8.007 8.59l4.027-5.726a21.5 21.5 0 0 1-6.041-6.48zM618.84 804.95a21.5 21.5 0 0 1 15.866 10.243l5.993-3.616a28.5 28.5 0 0 0-21.031-13.578zm-17.851-2.748a28.5 28.5 0 0 0 5.783 1.31l.829-6.951a21.5 21.5 0 0 1-4.363-.988zm-30.552-24.393a28.5 28.5 0 0 0 18.554 20.323l2.249-6.629a21.5 21.5 0 0 1-13.997-15.332zm-32.527-60.972c10.27-.437 19.412 6.457 21.817 16.451l6.805-1.637c-3.187-13.248-15.306-22.387-28.92-21.808zm-28.933-10.133a28.5 28.5 0 0 0 23.226 10.375l-.298-6.993a21.5 21.5 0 0 1-17.521-7.827zm-12.825-25.397a21.95 21.95 0 0 0 4.917 15.778l5.407-4.446a14.95 14.95 0 0 1-3.348-10.745zm-7.879-14.452a14.95 14.95 0 0 1 7.879 14.452l6.976.587a21.95 21.95 0 0 0-11.57-21.22zm-14.404-6.382a21.5 21.5 0 0 1 6.587 2.228l3.285-6.181a28.5 28.5 0 0 0-8.732-2.953zm-95.102-6.886a21.5 21.5 0 0 1 18.461-5.769l1.14-6.906a28.5 28.5 0 0 0-24.471 7.647zm-12.981 9.459a19.6 19.6 0 0 0 8.089-4.72l-4.87-5.029a12.6 12.6 0 0 1-5.201 3.035zm-10.857 10.801c-1.606-3.539.288-7.681 4.015-8.782l-1.981-6.713c-7.806 2.304-11.772 10.977-8.408 18.388zm-13.153 18.904c10.132.721 17.351-9.654 13.153-18.904l-6.374 2.893c2.005 4.418-1.443 9.373-6.282 9.028zm-26.524-12.637a19.36 19.36 0 0 0 16.523 11.924l.497-6.982a12.36 12.36 0 0 1-10.55-7.614zm-14.238-14.81a18.9 18.9 0 0 1 12.694 11.073l6.47-2.672a25.9 25.9 0 0 0-17.395-15.174zm-28.819-18.976a28.5 28.5 0 0 0 19.023 16.417l1.769-6.773a21.5 21.5 0 0 1-14.351-12.384zm-28.106-40.182a21.5 21.5 0 0 1 16.466 12.824l6.441-2.74a28.5 28.5 0 0 0-21.827-17.001zm-31.384-3.767a10.8 10.8 0 0 1 4.906-.369l1.08-6.916a17.8 17.8 0 0 0-8.088.608zm-20.085-5.146c1.988 5.758 8.198 8.887 14.008 7.059l-2.102-6.678a4.246 4.246 0 0 1-5.289-2.665zm-6.371-2.147c2.314-1.544 5.463-.483 6.371 2.147l6.617-2.284c-2.404-6.965-10.745-9.775-16.874-5.686zm-25.192 23.912a19.78 19.78 0 0 1 8.45-12.741l-3.885-5.823a26.78 26.78 0 0 0-11.441 17.25zm-33.016 42.658c11.407 5.667 25.073-1.11 27.464-13.62l-6.875-1.315c-1.522 7.96-10.217 12.272-17.474 8.666zm-11.124.116a12.25 12.25 0 0 1 11.124-.116l3.115-6.269a19.25 19.25 0 0 0-17.483.183zM99.08 676.963a21.5 21.5 0 0 1 10.007-11.094l-3.245-6.203a28.5 28.5 0 0 0-13.265 14.706zm-34.166 59.982a16.15 16.15 0 0 0 14.318-10.159l-6.503-2.591a9.15 9.15 0 0 1-8.112 5.757zm-16.781-14.791c.721 8.633 8.125 15.159 16.78 14.791l-.296-6.993a9.15 9.15 0 0 1-9.509-8.381zm-9.445-48.672a18.42 18.42 0 0 1 6.42 12.497l6.977-.583a25.43 25.43 0 0 0-8.86-17.246zm-8.908-17.917a25.43 25.43 0 0 0 8.908 17.917l4.536-5.332a18.42 18.42 0 0 1-6.455-12.984zm-4.952-18.59a21.5 21.5 0 0 1 4.582 12.088l6.988-.399a28.5 28.5 0 0 0-6.073-16.023zM.501 596.038a28.5 28.5 0 0 0 6.119 17.843l5.497-4.334a21.5 21.5 0 0 1-4.616-13.46zm32.181-55.269C15.842 538.459.81 551.48.692 568.477l6.999.049c.088-12.773 11.385-22.558 24.04-20.822zm12.143-1.94a21.17 21.17 0 0 1-12.143 1.94l-.951 6.935a28.16 28.16 0 0 0 16.16-2.582zm35.42-5.82a15.16 15.16 0 0 0-17.402-2.956l3.066 6.293a8.16 8.16 0 0 1 9.364 1.591zm10.502.917a8.156 8.156 0 0 1-10.503-.917l-4.97 4.928a15.16 15.16 0 0 0 19.514 1.705zm14.137-25.725a18.51 18.51 0 0 1-6.976 20.661l4.041 5.716a25.515 25.515 0 0 0 9.614-28.472zM92.77 452.573a28.5 28.5 0 0 0 .007 17.043l6.679-2.096a21.5 21.5 0 0 1-.005-12.857zm6.455-40.937a13.29 13.29 0 0 1 2.456 12.455l6.681 2.091a20.29 20.29 0 0 0-3.75-19.016zm-2.257-23.308a15.74 15.74 0 0 0-.204 20.342l5.387-4.47a8.74 8.74 0 0 1 .113-11.295zm18.261-4.108c-6.299-2.749-13.74-1.124-18.261 4.108l5.296 4.577c2.489-2.88 6.637-3.809 10.165-2.27zm12.509-6.509c-1.066 5.617-7.188 8.831-12.509 6.509l-2.8 6.415c9.358 4.084 20.266-1.501 22.186-11.619zm8.35-22.115a23.9 23.9 0 0 0-6.498 12.36l6.877 1.305a16.9 16.9 0 0 1 4.595-8.739zm516.961-87.709a14.01 14.01 0 0 0 11.881-6.961l-6.05-3.521a7.01 7.01 0 0 1-5.945 3.483zm-505.803 65.168a16.48 16.48 0 0 1-4.28 15.596l4.974 4.926a23.48 23.48 0 0 0 6.097-22.219zm462.766-62.525a21.5 21.5 0 0 1 8.893-2.086l-.114-6.999a28.5 28.5 0 0 0-11.789 2.765zm-455.993 39.651a23.48 23.48 0 0 0-6.773 22.874l6.791-1.697a16.48 16.48 0 0 1 4.754-16.056zm411.712-12.186c2-5.052 5.84-9.16 10.746-11.496l-3.01-6.32a28.5 28.5 0 0 0-14.245 15.239zm-387.068-7.176a28.5 28.5 0 0 0-10.557 6.234l4.772 5.121c2.282-2.127 5-3.732 7.964-4.703zm359.144 39.617a20.89 20.89 0 0 0 20.297-13.181l-6.508-2.577a13.89 13.89 0 0 1-13.496 8.764zm-322.822-42.083a15.394 15.394 0 0 0 18.784-6.12l-5.934-3.713a8.395 8.395 0 0 1-10.243 3.337zm304.12 28.503a20.89 20.89 0 0 0 18.702 13.58l.293-6.994a13.89 13.89 0 0 1-12.435-9.03zm-301.513-34.999a15.4 15.4 0 0 0-10.527-.343l2.18 6.652a8.4 8.4 0 0 1 5.74.187z"/><defs><linearGradient id="a" x1="734.46" x2="734.881" y1="4" y2="705.933" gradientUnits="userSpaceOnUse"><stop stop-color="#fff"/><stop offset="1" stop-color="#fff" stop-opacity="0"/></linearGradient><linearGradient id="b" x1="734.46" x2="734.46" y1="4" y2="844.334" gradientUnits="userSpaceOnUse"><stop stop-color="#fff"/><stop offset="1" stop-color="#fff" stop-opacity="0"/></linearGradient></defs></svg>