<svg width="58" height="92" viewBox="0 0 58 92" fill="none" xmlns="http://www.w3.org/2000/svg"><rect x="56.001" y="2" width="87.948" height="54" rx="27" transform="rotate(90 56.001 2)" fill="#fff" stroke="#401F1F" stroke-width="4"/><path fill-rule="evenodd" clip-rule="evenodd" d="M15.195 55.939c.457-.447 1.179-.433 1.665 0l10.96 9.567V24.498c0-.634.53-1.152 1.179-1.152.648 0 1.178.518 1.178 1.152v41.008l10.96-9.553c.501-.418 1.193-.461 1.65-.014.457.446.486 1.224.015 1.642 0 0-12.816 11.412-12.964 11.528-.147.115-.412.345-.84.345-.427 0-.721-.23-.84-.345-.117-.116-12.963-11.528-12.963-11.528a1.153 1.153 0 0 1-.338-.821c0-.303.118-.59.338-.821Z" fill="#401F1F"/></svg>