<svg  viewBox="0 0 366 1294" fill="none" xmlns="http://www.w3.org/2000/svg" xmlns:xlink="http://www.w3.org/1999/xlink">
<style>


.tt-o {
  opacity: 0;
  transition-property: opacity;
  transition-timing-function: cubic-bezier(0.4, 0, 0.2, 1);
}

.intersect-media--active .tt-o {
    opacity: 1;
}

.duration-500{
  	transition-duration: 500ms;
}

.delay-\[1100ms\] {
    transition-delay: 1100ms;
}
.delay-\[900ms\] {
    transition-delay: 900ms;
}

.delay-\[600ms\] {
    transition-delay: 600ms;
}

.delay-300{
  transition-delay: 300ms;
}

.delay-500{
  transition-delay: 500ms;
}

.delay-700{
  transition-delay: 700ms;
}


</style>
<path d="M0 50C0 22.9381 21.938 1 49 1H316C343.062 1 365 22.938 365 50V1245C365 1272.06 343.062 1294 316 1294H49C21.9381 1294 0 1272.06 0 1245V50Z" fill="#FFEE53"/>
<rect class="tt-o duration-500 delay-300" width="175.274" height="190.478" transform="matrix(0.809163 -0.587585 -0.587585 -0.809163 210.032 257.902)" fill="url(#pattern0)"/>
<rect class="tt-o duration-500 delay-300" width="198.684" height="215.919" transform="matrix(0.809163 -0.587585 -0.587585 -0.809163 127.069 320.474)" fill="url(#pattern1)"/>
<circle cx="181.448" cy="188.447" r="51.5" transform="rotate(31.5933 181.448 188.447)" stroke="url(#paint0_linear_38_173)" stroke-width="81.3333"/>
<circle cx="181.448" cy="188.447" r="51.5" transform="rotate(31.5933 181.448 188.447)" stroke="url(#paint1_linear_38_173)" stroke-width="81.3333"/>
<circle cx="181.899" cy="188.978" r="104.542" transform="rotate(-46.6828 181.899 188.978)" stroke="url(#paint2_linear_38_173)" stroke-width="6"/>
<circle cx="181.899" cy="188.978" r="104.542" transform="rotate(-46.6828 181.899 188.978)" stroke="url(#paint3_linear_38_173)" stroke-width="6"/>
<circle cx="182" cy="189" r="146.971" transform="rotate(-90 182 189)" stroke="url(#paint4_linear_38_173)" stroke-width="6"/>
<g class="tt-o duration-500 delay-300" filter="url(#filter0_d_38_173)">
<rect x="105" y="99.9995" width="133" height="162" fill="url(#pattern2)" shape-rendering="crispEdges"/>
</g>
<circle data-ignore="true" id="mycircle" cx="168" cy="133" r="2.5" fill="#309AD6"/>
  <animate
    data-ignore="true"
    xlink:href="#mycircle"
    attributeName="cy"
    from="147"
    to="110"
    dur="5s"
    begin="0s"
    repeatCount="indefinite"
    fill="freeze"/>

<circle data-ignore="true" id="mycircle2" cx="171" cy="143" r="2.5" fill="#309AD6"/>
<animate
  data-ignore="true"
  xlink:href="#mycircle2"
  attributeName="cy"
  from="147"
  to="110"
  dur="3s"
  begin="0s"
  repeatCount="indefinite"
  fill="freeze"/>

<circle data-ignore="true" id="mycircle3" cx="166.5" cy="143.5" r="2" fill="#309AD6"/>
<animate
  data-ignore="true"
  xlink:href="#mycircle3"
  attributeName="cy"
  from="147"
  to="110"
  dur="7s"
  begin="0s"
  repeatCount="indefinite"
  fill="freeze"/>

<circle data-ignore="true" id="mycircle4" cx="170.5" cy="137.5" r="2" fill="#309AD6"/>
<animate
  data-ignore="true"
  xlink:href="#mycircle4"
  attributeName="cy"
  from="147"
  to="110"
  dur="11s"
  begin="0s"
  repeatCount="indefinite"
  fill="freeze"/>

<circle data-ignore="true" id="mycircle5" cx="167" cy="139" r="2.5" fill="#309AD6"/>
<animate
  data-ignore="true"
  xlink:href="#mycircle5"
  attributeName="cy"
  from="147"
  to="110"
    dur="9s"
    begin="0s"
  repeatCount="indefinite"
  fill="freeze"/>

<circle class="tt-o duration-500 delay-300" cx="72" cy="258" r="31" fill="white" stroke="white" stroke-width="4"/>
<path class="tt-o duration-500 delay-300" d="M62.924 252.586V246.265L77.372 243.341V274H70.363V250.737L62.924 252.586Z" fill="#401F1F"/>
<g  class="tt-o duration-500 delay-500" filter="url(#filter1_d_38_173)">
<rect x="50" y="408" width="284" height="176" fill="url(#pattern3)" shape-rendering="crispEdges"/>
</g>
<circle class="tt-o duration-500 delay-500" cx="74" cy="546" r="31" fill="white" stroke="white" stroke-width="4"/>
<path class="tt-o duration-500 delay-500" d="M60.86 562L74.276 548.111C75.0787 547.222 75.7667 546.42 76.34 545.703C76.942 544.986 77.3863 544.284 77.673 543.596C77.9883 542.879 78.146 542.12 78.146 541.317C78.146 540.858 78.06 540.4 77.888 539.941C77.716 539.482 77.458 539.081 77.114 538.737C76.77 538.364 76.34 538.078 75.824 537.877C75.308 537.648 74.706 537.533 74.018 537.533C73.1007 537.533 72.2837 537.762 71.567 538.221C70.879 538.68 70.3487 539.325 69.976 540.156C69.632 540.987 69.46 541.948 69.46 543.037H62.322C62.322 540.887 62.7663 538.923 63.655 537.146C64.5437 535.369 65.8767 533.95 67.654 532.889C69.46 531.828 71.653 531.298 74.233 531.298C76.0963 531.298 77.7447 531.585 79.178 532.158C80.6113 532.703 81.801 533.448 82.747 534.394C83.7217 535.311 84.4527 536.329 84.94 537.447C85.4273 538.565 85.671 539.697 85.671 540.844C85.671 542.478 85.2697 543.983 84.467 545.359C83.6643 546.706 82.618 547.939 81.328 549.057L74.319 555.335H86.359V562H60.86Z" fill="#401F1F"/>
<path class="tt-o duration-500 delay-[600ms]" d="M26.975 642.569C29.4064 633.951 37.2694 628 46.2236 628H334.837C347.706 628 357.225 639.977 354.321 652.514L341.348 708.514C339.248 717.58 331.171 724 321.864 724H30.4236C17.1635 724 7.57444 711.331 11.1751 698.569L26.975 642.569Z" fill="white"/>
<g class="tt-o duration-500 delay-[600ms]" filter="url(#filter2_d_38_173)">
<path d="M120.178 666.726V663.99H129.7V666.726H120.178ZM127.792 659.4H130.834V672H127.792V659.4ZM119.332 659.4H122.374V672H119.332V659.4ZM141.6 666.06L133.248 672.63L133.338 669.66L141.69 663.09L141.6 666.06ZM135.876 663.72V670.092L133.248 672.63V663.72H135.876ZM141.69 663.09V672H139.08V665.628L141.69 663.09ZM147.699 667.86V667.05C148.083 667.05 148.359 666.978 148.527 666.834C148.707 666.678 148.797 666.486 148.797 666.258C148.797 666.03 148.713 665.85 148.545 665.718C148.377 665.574 148.155 665.502 147.879 665.502C147.675 665.502 147.489 665.544 147.321 665.628C147.165 665.712 147.045 665.826 146.961 665.97C146.877 666.114 146.829 666.282 146.817 666.474H144.351C144.351 665.886 144.495 665.376 144.783 664.944C145.083 664.5 145.491 664.158 146.007 663.918C146.535 663.666 147.153 663.54 147.861 663.54C148.521 663.54 149.109 663.648 149.625 663.864C150.141 664.068 150.543 664.35 150.831 664.71C151.131 665.058 151.281 665.46 151.281 665.916C151.281 666.528 150.987 667.02 150.399 667.392C149.823 667.752 148.923 667.908 147.699 667.86ZM147.825 672.18C146.649 672.18 145.719 671.91 145.035 671.37C144.363 670.818 143.979 670.086 143.883 669.174H146.457C146.553 669.522 146.715 669.792 146.943 669.984C147.171 670.164 147.459 670.254 147.807 670.254C148.071 670.254 148.299 670.218 148.491 670.146C148.683 670.062 148.833 669.954 148.941 669.822C149.049 669.678 149.103 669.504 149.103 669.3C149.103 669.096 149.049 668.928 148.941 668.796C148.845 668.652 148.689 668.544 148.473 668.472C148.269 668.388 148.011 668.346 147.699 668.346V667.32C148.959 667.26 149.931 667.44 150.615 667.86C151.299 668.268 151.641 668.844 151.641 669.588C151.641 670.104 151.473 670.56 151.137 670.956C150.813 671.34 150.363 671.64 149.787 671.856C149.211 672.072 148.557 672.18 147.825 672.18ZM153.497 663.72H156.107V672H153.497V663.72ZM159.113 663.72H162.353L158.825 667.14L162.713 672H159.527L155.567 667.14L159.113 663.72ZM163.154 667.86C163.154 666.984 163.358 666.222 163.766 665.574C164.174 664.926 164.738 664.422 165.458 664.062C166.178 663.702 166.988 663.522 167.888 663.522C168.788 663.522 169.592 663.702 170.3 664.062C171.02 664.422 171.584 664.926 171.992 665.574C172.412 666.222 172.622 666.984 172.622 667.86C172.622 668.724 172.412 669.48 171.992 670.128C171.584 670.776 171.02 671.28 170.3 671.64C169.592 672 168.788 672.18 167.888 672.18C166.988 672.18 166.178 672 165.458 671.64C164.738 671.28 164.174 670.776 163.766 670.128C163.358 669.48 163.154 668.724 163.154 667.86ZM165.944 667.86C165.944 668.292 166.034 668.664 166.214 668.976C166.394 669.276 166.628 669.51 166.916 669.678C167.204 669.846 167.528 669.93 167.888 669.93C168.236 669.93 168.554 669.846 168.842 669.678C169.142 669.51 169.376 669.276 169.544 668.976C169.724 668.664 169.814 668.292 169.814 667.86C169.814 667.428 169.724 667.056 169.544 666.744C169.376 666.432 169.142 666.192 168.842 666.024C168.554 665.856 168.236 665.772 167.888 665.772C167.528 665.772 167.204 665.856 166.916 666.024C166.628 666.192 166.394 666.432 166.214 666.744C166.034 667.056 165.944 667.428 165.944 667.86ZM182.178 672L181.044 666.33L182.412 663.09L184.914 672H182.178ZM178.524 669.642L182.412 663.09L182.592 666.744L179.064 672.558L178.524 669.642ZM179.064 672.558L175.59 666.744L175.77 663.09L179.604 669.642L179.064 672.558ZM173.268 672L175.77 663.09L177.138 666.33L176.004 672H173.268ZM185.584 667.86C185.584 666.984 185.788 666.222 186.196 665.574C186.604 664.926 187.168 664.422 187.888 664.062C188.608 663.702 189.418 663.522 190.318 663.522C191.218 663.522 192.022 663.702 192.73 664.062C193.45 664.422 194.014 664.926 194.422 665.574C194.842 666.222 195.052 666.984 195.052 667.86C195.052 668.724 194.842 669.48 194.422 670.128C194.014 670.776 193.45 671.28 192.73 671.64C192.022 672 191.218 672.18 190.318 672.18C189.418 672.18 188.608 672 187.888 671.64C187.168 671.28 186.604 670.776 186.196 670.128C185.788 669.48 185.584 668.724 185.584 667.86ZM188.374 667.86C188.374 668.292 188.464 668.664 188.644 668.976C188.824 669.276 189.058 669.51 189.346 669.678C189.634 669.846 189.958 669.93 190.318 669.93C190.666 669.93 190.984 669.846 191.272 669.678C191.572 669.51 191.806 669.276 191.974 668.976C192.154 668.664 192.244 668.292 192.244 667.86C192.244 667.428 192.154 667.056 191.974 666.744C191.806 666.432 191.572 666.192 191.272 666.024C190.984 665.856 190.666 665.772 190.318 665.772C189.958 665.772 189.634 665.856 189.346 666.024C189.058 666.192 188.824 666.432 188.644 666.744C188.464 667.056 188.374 667.428 188.374 667.86ZM205.381 663.72V672H202.771V666.186H199.711V669.12C199.711 669.768 199.591 670.308 199.351 670.74C199.111 671.16 198.703 671.478 198.127 671.694C197.563 671.898 196.783 672 195.787 672V669.57C196.147 669.57 196.453 669.504 196.705 669.372C196.969 669.228 197.101 668.922 197.101 668.454V663.72H205.381ZM208.928 668.436V666.924H213.608C213.56 666.588 213.47 666.306 213.338 666.078C213.218 665.85 213.044 665.676 212.816 665.556C212.6 665.424 212.33 665.358 212.006 665.358C211.634 665.358 211.31 665.442 211.034 665.61C210.77 665.766 210.56 666 210.404 666.312C210.248 666.612 210.17 666.984 210.17 667.428L210.134 667.86C210.134 668.424 210.218 668.88 210.386 669.228C210.566 669.576 210.8 669.828 211.088 669.984C211.376 670.14 211.7 670.218 212.06 670.218C212.396 670.218 212.69 670.176 212.942 670.092C213.206 670.008 213.434 669.888 213.626 669.732C213.818 669.564 213.98 669.366 214.112 669.138L216.542 669.732C216.266 670.236 215.936 670.674 215.552 671.046C215.168 671.406 214.694 671.688 214.13 671.892C213.578 672.084 212.9 672.18 212.096 672.18C211.1 672.18 210.248 671.994 209.54 671.622C208.844 671.25 208.31 670.74 207.938 670.092C207.578 669.432 207.398 668.688 207.398 667.86C207.398 667.704 207.404 667.554 207.416 667.41C207.428 667.266 207.446 667.122 207.47 666.978C207.59 666.294 207.836 665.694 208.208 665.178C208.592 664.662 209.102 664.26 209.738 663.972C210.386 663.684 211.16 663.54 212.06 663.54C213.02 663.54 213.83 663.708 214.49 664.044C215.162 664.38 215.666 664.86 216.002 665.484C216.35 666.108 216.524 666.858 216.524 667.734C216.524 667.806 216.524 667.908 216.524 668.04C216.524 668.16 216.512 668.292 216.488 668.436H208.928ZM218.22 663.72H220.83V672H218.22V663.72ZM223.836 663.72H227.076L223.548 667.14L227.436 672H224.25L220.29 667.14L223.836 663.72ZM237.368 663.72L231.968 675.96H229.232L231.248 671.334L227.666 663.72H230.654L233.336 670.362L231.932 670.344L234.578 663.72H237.368ZM246.989 663.72V672H244.379V666.186H241.319V669.12C241.319 669.768 241.199 670.308 240.959 670.74C240.719 671.16 240.311 671.478 239.735 671.694C239.171 671.898 238.391 672 237.395 672V669.57C237.755 669.57 238.061 669.504 238.313 669.372C238.577 669.228 238.709 668.922 238.709 668.454V663.72H246.989ZM251.976 672H249.168L251.67 668.238H254.244L251.976 672ZM257.502 672H254.784V663.72H257.502V672ZM255.72 667.212V669.03H253.146C252.582 669.03 252.036 668.934 251.508 668.742C250.992 668.55 250.572 668.256 250.248 667.86C249.936 667.452 249.78 666.936 249.78 666.312C249.78 665.676 249.936 665.172 250.248 664.8C250.572 664.428 250.992 664.158 251.508 663.99C252.036 663.81 252.582 663.72 253.146 663.72H255.72V665.88H253.524C253.296 665.88 253.098 665.904 252.93 665.952C252.774 665.988 252.654 666.054 252.57 666.15C252.486 666.246 252.444 666.378 252.444 666.546C252.444 666.702 252.486 666.834 252.57 666.942C252.654 667.038 252.774 667.11 252.93 667.158C253.098 667.194 253.296 667.212 253.524 667.212H255.72ZM262 675.96H259.282V663.72H262V675.96ZM268.768 667.86C268.768 668.82 268.576 669.63 268.192 670.29C267.82 670.95 267.334 671.448 266.734 671.784C266.146 672.12 265.51 672.288 264.826 672.288C264.106 672.288 263.482 672.108 262.954 671.748C262.438 671.376 262.042 670.86 261.766 670.2C261.49 669.528 261.352 668.748 261.352 667.86C261.352 666.96 261.49 666.18 261.766 665.52C262.042 664.86 262.438 664.35 262.954 663.99C263.482 663.618 264.106 663.432 264.826 663.432C265.51 663.432 266.146 663.6 266.734 663.936C267.334 664.272 267.82 664.77 268.192 665.43C268.576 666.078 268.768 666.888 268.768 667.86ZM265.906 667.86C265.906 667.428 265.816 667.062 265.636 666.762C265.456 666.462 265.216 666.234 264.916 666.078C264.616 665.922 264.286 665.844 263.926 665.844C263.614 665.844 263.308 665.922 263.008 666.078C262.72 666.222 262.48 666.444 262.288 666.744C262.096 667.044 262 667.416 262 667.86C262 668.304 262.096 668.676 262.288 668.976C262.48 669.276 262.72 669.504 263.008 669.66C263.308 669.804 263.614 669.876 263.926 669.876C264.286 669.876 264.616 669.798 264.916 669.642C265.216 669.486 265.456 669.258 265.636 668.958C265.816 668.658 265.906 668.292 265.906 667.86ZM271.256 668.652V666.618H277.952V668.652H271.256ZM276.728 663.72H279.338V672H276.728V663.72ZM270.41 663.72H273.038V672H270.41V663.72ZM283.59 669.534C283.59 669.726 283.644 669.888 283.752 670.02C283.86 670.14 284.004 670.236 284.184 670.308C284.364 670.368 284.562 670.398 284.778 670.398C285.114 670.398 285.42 670.344 285.696 670.236C285.984 670.128 286.212 669.948 286.38 669.696C286.548 669.444 286.632 669.096 286.632 668.652L286.92 669.66C286.92 670.188 286.782 670.644 286.506 671.028C286.242 671.4 285.876 671.688 285.408 671.892C284.952 672.084 284.436 672.18 283.86 672.18C283.284 672.18 282.768 672.084 282.312 671.892C281.856 671.688 281.496 671.4 281.232 671.028C280.98 670.644 280.854 670.182 280.854 669.642C280.854 669.09 280.998 668.616 281.286 668.22C281.586 667.824 282.006 667.518 282.546 667.302C283.086 667.086 283.716 666.978 284.436 666.978C284.856 666.978 285.252 667.026 285.624 667.122C286.008 667.206 286.338 667.32 286.614 667.464C286.902 667.596 287.106 667.728 287.226 667.86V669.138C286.914 668.91 286.59 668.742 286.254 668.634C285.93 668.514 285.534 668.454 285.066 668.454C284.754 668.454 284.484 668.502 284.256 668.598C284.04 668.682 283.872 668.802 283.752 668.958C283.644 669.114 283.59 669.306 283.59 669.534ZM282.528 666.276L281.61 664.44C282.078 664.212 282.636 663.996 283.284 663.792C283.944 663.588 284.646 663.486 285.39 663.486C286.134 663.486 286.794 663.594 287.37 663.81C287.958 664.014 288.414 664.314 288.738 664.71C289.074 665.106 289.242 665.592 289.242 666.168V672H286.632V666.708C286.632 666.36 286.5 666.084 286.236 665.88C285.984 665.664 285.63 665.556 285.174 665.556C284.778 665.556 284.4 665.598 284.04 665.682C283.692 665.766 283.386 665.868 283.122 665.988C282.858 666.096 282.66 666.192 282.528 666.276ZM293.759 672H290.951L293.453 668.238H296.027L293.759 672ZM299.285 672H296.567V663.72H299.285V672ZM297.503 667.212V669.03H294.929C294.365 669.03 293.819 668.934 293.291 668.742C292.775 668.55 292.355 668.256 292.031 667.86C291.719 667.452 291.563 666.936 291.563 666.312C291.563 665.676 291.719 665.172 292.031 664.8C292.355 664.428 292.775 664.158 293.291 663.99C293.819 663.81 294.365 663.72 294.929 663.72H297.503V665.88H295.307C295.079 665.88 294.881 665.904 294.713 665.952C294.557 665.988 294.437 666.054 294.353 666.15C294.269 666.246 294.227 666.378 294.227 666.546C294.227 666.702 294.269 666.834 294.353 666.942C294.437 667.038 294.557 667.11 294.713 667.158C294.881 667.194 295.079 667.212 295.307 667.212H297.503ZM119.098 685.72H124.408V687.97H121.78V694H119.098V685.72ZM133.901 688.06L125.549 694.63L125.639 691.66L133.991 685.09L133.901 688.06ZM128.177 685.72V692.092L125.549 694.63V685.72H128.177ZM133.991 685.09V694H131.381V687.628L133.991 685.09ZM138.272 691.534C138.272 691.726 138.326 691.888 138.434 692.02C138.542 692.14 138.686 692.236 138.866 692.308C139.046 692.368 139.244 692.398 139.46 692.398C139.796 692.398 140.102 692.344 140.378 692.236C140.666 692.128 140.894 691.948 141.062 691.696C141.23 691.444 141.314 691.096 141.314 690.652L141.602 691.66C141.602 692.188 141.464 692.644 141.188 693.028C140.924 693.4 140.558 693.688 140.09 693.892C139.634 694.084 139.118 694.18 138.542 694.18C137.966 694.18 137.45 694.084 136.994 693.892C136.538 693.688 136.178 693.4 135.914 693.028C135.662 692.644 135.536 692.182 135.536 691.642C135.536 691.09 135.68 690.616 135.968 690.22C136.268 689.824 136.688 689.518 137.228 689.302C137.768 689.086 138.398 688.978 139.118 688.978C139.538 688.978 139.934 689.026 140.306 689.122C140.69 689.206 141.02 689.32 141.296 689.464C141.584 689.596 141.788 689.728 141.908 689.86V691.138C141.596 690.91 141.272 690.742 140.936 690.634C140.612 690.514 140.216 690.454 139.748 690.454C139.436 690.454 139.166 690.502 138.938 690.598C138.722 690.682 138.554 690.802 138.434 690.958C138.326 691.114 138.272 691.306 138.272 691.534ZM137.21 688.276L136.292 686.44C136.76 686.212 137.318 685.996 137.966 685.792C138.626 685.588 139.328 685.486 140.072 685.486C140.816 685.486 141.476 685.594 142.052 685.81C142.64 686.014 143.096 686.314 143.42 686.71C143.756 687.106 143.924 687.592 143.924 688.168V694H141.314V688.708C141.314 688.36 141.182 688.084 140.918 687.88C140.666 687.664 140.312 687.556 139.856 687.556C139.46 687.556 139.082 687.598 138.722 687.682C138.374 687.766 138.068 687.868 137.804 687.988C137.54 688.096 137.342 688.192 137.21 688.276ZM154.669 685.72V694H152.059V688.186H148.999V691.12C148.999 691.768 148.879 692.308 148.639 692.74C148.399 693.16 147.991 693.478 147.415 693.694C146.851 693.898 146.071 694 145.075 694V691.57C145.435 691.57 145.741 691.504 145.993 691.372C146.257 691.228 146.389 690.922 146.389 690.454V685.72H154.669ZM165.649 685.72L160.249 697.96H157.513L159.529 693.334L155.947 685.72H158.935L161.617 692.362L160.213 692.344L162.859 685.72H165.649ZM169.258 697.96H166.54V685.72H169.258V697.96ZM176.026 689.86C176.026 690.82 175.834 691.63 175.45 692.29C175.078 692.95 174.592 693.448 173.992 693.784C173.404 694.12 172.768 694.288 172.084 694.288C171.364 694.288 170.74 694.108 170.212 693.748C169.696 693.376 169.3 692.86 169.024 692.2C168.748 691.528 168.61 690.748 168.61 689.86C168.61 688.96 168.748 688.18 169.024 687.52C169.3 686.86 169.696 686.35 170.212 685.99C170.74 685.618 171.364 685.432 172.084 685.432C172.768 685.432 173.404 685.6 173.992 685.936C174.592 686.272 175.078 686.77 175.45 687.43C175.834 688.078 176.026 688.888 176.026 689.86ZM173.164 689.86C173.164 689.428 173.074 689.062 172.894 688.762C172.714 688.462 172.474 688.234 172.174 688.078C171.874 687.922 171.544 687.844 171.184 687.844C170.872 687.844 170.566 687.922 170.266 688.078C169.978 688.222 169.738 688.444 169.546 688.744C169.354 689.044 169.258 689.416 169.258 689.86C169.258 690.304 169.354 690.676 169.546 690.976C169.738 691.276 169.978 691.504 170.266 691.66C170.566 691.804 170.872 691.876 171.184 691.876C171.544 691.876 171.874 691.798 172.174 691.642C172.474 691.486 172.714 691.258 172.894 690.958C173.074 690.658 173.164 690.292 173.164 689.86ZM177.181 689.86C177.181 688.984 177.385 688.222 177.793 687.574C178.201 686.926 178.765 686.422 179.485 686.062C180.205 685.702 181.015 685.522 181.915 685.522C182.815 685.522 183.619 685.702 184.327 686.062C185.047 686.422 185.611 686.926 186.019 687.574C186.439 688.222 186.649 688.984 186.649 689.86C186.649 690.724 186.439 691.48 186.019 692.128C185.611 692.776 185.047 693.28 184.327 693.64C183.619 694 182.815 694.18 181.915 694.18C181.015 694.18 180.205 694 179.485 693.64C178.765 693.28 178.201 692.776 177.793 692.128C177.385 691.48 177.181 690.724 177.181 689.86ZM179.971 689.86C179.971 690.292 180.061 690.664 180.241 690.976C180.421 691.276 180.655 691.51 180.943 691.678C181.231 691.846 181.555 691.93 181.915 691.93C182.263 691.93 182.581 691.846 182.869 691.678C183.169 691.51 183.403 691.276 183.571 690.976C183.751 690.664 183.841 690.292 183.841 689.86C183.841 689.428 183.751 689.056 183.571 688.744C183.403 688.432 183.169 688.192 182.869 688.024C182.581 687.856 182.263 687.772 181.915 687.772C181.555 687.772 181.231 687.856 180.943 688.024C180.655 688.192 180.421 688.432 180.241 688.744C180.061 689.056 179.971 689.428 179.971 689.86ZM189.113 690.652V688.618H195.809V690.652H189.113ZM194.585 685.72H197.195V694H194.585V685.72ZM188.267 685.72H190.895V694H188.267V685.72ZM198.855 689.86C198.855 688.984 199.059 688.222 199.467 687.574C199.875 686.926 200.439 686.422 201.159 686.062C201.879 685.702 202.689 685.522 203.589 685.522C204.489 685.522 205.293 685.702 206.001 686.062C206.721 686.422 207.285 686.926 207.693 687.574C208.113 688.222 208.323 688.984 208.323 689.86C208.323 690.724 208.113 691.48 207.693 692.128C207.285 692.776 206.721 693.28 206.001 693.64C205.293 694 204.489 694.18 203.589 694.18C202.689 694.18 201.879 694 201.159 693.64C200.439 693.28 199.875 692.776 199.467 692.128C199.059 691.48 198.855 690.724 198.855 689.86ZM201.645 689.86C201.645 690.292 201.735 690.664 201.915 690.976C202.095 691.276 202.329 691.51 202.617 691.678C202.905 691.846 203.229 691.93 203.589 691.93C203.937 691.93 204.255 691.846 204.543 691.678C204.843 691.51 205.077 691.276 205.245 690.976C205.425 690.664 205.515 690.292 205.515 689.86C205.515 689.428 205.425 689.056 205.245 688.744C205.077 688.432 204.843 688.192 204.543 688.024C204.255 687.856 203.937 687.772 203.589 687.772C203.229 687.772 202.905 687.856 202.617 688.024C202.329 688.192 202.095 688.432 201.915 688.744C201.735 689.056 201.645 689.428 201.645 689.86ZM211.795 689.68H214.747C215.323 689.68 215.839 689.74 216.295 689.86C216.751 689.98 217.111 690.19 217.375 690.49C217.639 690.79 217.771 691.21 217.771 691.75C217.771 692.374 217.561 692.908 217.141 693.352C216.733 693.784 216.055 694 215.107 694H211.795V692.29H214.189C214.573 692.29 214.837 692.206 214.981 692.038C215.137 691.858 215.215 691.666 215.215 691.462C215.215 691.354 215.197 691.252 215.161 691.156C215.125 691.06 215.065 690.976 214.981 690.904C214.909 690.832 214.807 690.772 214.675 690.724C214.543 690.676 214.381 690.652 214.189 690.652H211.795V689.68ZM211.795 690.04V688.978H214.009C214.153 688.978 214.273 688.96 214.369 688.924C214.477 688.876 214.567 688.816 214.639 688.744C214.711 688.672 214.765 688.588 214.801 688.492C214.837 688.396 214.855 688.3 214.855 688.204C214.855 687.988 214.783 687.808 214.639 687.664C214.495 687.508 214.285 687.43 214.009 687.43H211.795V685.72H214.567C215.083 685.72 215.551 685.798 215.971 685.954C216.403 686.098 216.751 686.338 217.015 686.674C217.279 686.998 217.411 687.43 217.411 687.97C217.411 688.438 217.279 688.828 217.015 689.14C216.751 689.44 216.403 689.668 215.971 689.824C215.551 689.968 215.083 690.04 214.567 690.04H211.795ZM210.229 685.72H212.839V694H210.229V685.72ZM221.486 691.534C221.486 691.726 221.54 691.888 221.648 692.02C221.756 692.14 221.9 692.236 222.08 692.308C222.26 692.368 222.458 692.398 222.674 692.398C223.01 692.398 223.316 692.344 223.592 692.236C223.88 692.128 224.108 691.948 224.276 691.696C224.444 691.444 224.528 691.096 224.528 690.652L224.816 691.66C224.816 692.188 224.678 692.644 224.402 693.028C224.138 693.4 223.772 693.688 223.304 693.892C222.848 694.084 222.332 694.18 221.756 694.18C221.18 694.18 220.664 694.084 220.208 693.892C219.752 693.688 219.392 693.4 219.128 693.028C218.876 692.644 218.75 692.182 218.75 691.642C218.75 691.09 218.894 690.616 219.182 690.22C219.482 689.824 219.902 689.518 220.442 689.302C220.982 689.086 221.612 688.978 222.332 688.978C222.752 688.978 223.148 689.026 223.52 689.122C223.904 689.206 224.234 689.32 224.51 689.464C224.798 689.596 225.002 689.728 225.122 689.86V691.138C224.81 690.91 224.486 690.742 224.15 690.634C223.826 690.514 223.43 690.454 222.962 690.454C222.65 690.454 222.38 690.502 222.152 690.598C221.936 690.682 221.768 690.802 221.648 690.958C221.54 691.114 221.486 691.306 221.486 691.534ZM220.424 688.276L219.506 686.44C219.974 686.212 220.532 685.996 221.18 685.792C221.84 685.588 222.542 685.486 223.286 685.486C224.03 685.486 224.69 685.594 225.266 685.81C225.854 686.014 226.31 686.314 226.634 686.71C226.97 687.106 227.138 687.592 227.138 688.168V694H224.528V688.708C224.528 688.36 224.396 688.084 224.132 687.88C223.88 687.664 223.526 687.556 223.07 687.556C222.674 687.556 222.296 687.598 221.936 687.682C221.588 687.766 221.282 687.868 221.018 687.988C220.754 688.096 220.556 688.192 220.424 688.276ZM231.655 694H228.847L231.349 690.238H233.923L231.655 694ZM237.181 694H234.463V685.72H237.181V694ZM235.399 689.212V691.03H232.825C232.261 691.03 231.715 690.934 231.187 690.742C230.671 690.55 230.251 690.256 229.927 689.86C229.615 689.452 229.459 688.936 229.459 688.312C229.459 687.676 229.615 687.172 229.927 686.8C230.251 686.428 230.671 686.158 231.187 685.99C231.715 685.81 232.261 685.72 232.825 685.72H235.399V687.88H233.203C232.975 687.88 232.777 687.904 232.609 687.952C232.453 687.988 232.333 688.054 232.249 688.15C232.165 688.246 232.123 688.378 232.123 688.546C232.123 688.702 232.165 688.834 232.249 688.942C232.333 689.038 232.453 689.11 232.609 689.158C232.777 689.194 232.975 689.212 233.203 689.212H235.399ZM244.358 685.72H246.968V694H244.358V685.72ZM249.974 685.72H253.214L249.686 689.14L253.574 694H250.388L246.428 689.14L249.974 685.72ZM263.153 688.06L254.801 694.63L254.891 691.66L263.243 685.09L263.153 688.06ZM257.429 685.72V692.092L254.801 694.63V685.72H257.429ZM263.243 685.09V694H260.633V687.628L263.243 685.09ZM267.703 689.86C267.703 690.304 267.799 690.688 267.991 691.012C268.183 691.324 268.447 691.57 268.783 691.75C269.131 691.93 269.503 692.02 269.899 692.02C270.235 692.02 270.553 691.972 270.853 691.876C271.165 691.768 271.447 691.624 271.699 691.444C271.963 691.264 272.179 691.042 272.347 690.778V693.424C272.059 693.652 271.699 693.838 271.267 693.982C270.835 694.114 270.307 694.18 269.683 694.18C268.771 694.18 267.949 694 267.217 693.64C266.497 693.28 265.927 692.776 265.507 692.128C265.099 691.48 264.895 690.724 264.895 689.86C264.895 688.984 265.099 688.228 265.507 687.592C265.927 686.944 266.497 686.44 267.217 686.08C267.949 685.72 268.771 685.54 269.683 685.54C270.307 685.54 270.835 685.612 271.267 685.756C271.699 685.888 272.059 686.056 272.347 686.26V688.924C272.179 688.66 271.957 688.438 271.681 688.258C271.417 688.078 271.129 687.94 270.817 687.844C270.505 687.748 270.199 687.7 269.899 687.7C269.503 687.7 269.131 687.796 268.783 687.988C268.447 688.18 268.183 688.438 267.991 688.762C267.799 689.086 267.703 689.452 267.703 689.86ZM283.024 685.72V694H280.414V688.186H277.354V691.12C277.354 691.768 277.234 692.308 276.994 692.74C276.754 693.16 276.346 693.478 275.77 693.694C275.206 693.898 274.426 694 273.43 694V691.57C273.79 691.57 274.096 691.504 274.348 691.372C274.612 691.228 274.744 690.922 274.744 690.454V685.72H283.024ZM285.041 689.86C285.041 688.984 285.245 688.222 285.653 687.574C286.061 686.926 286.625 686.422 287.345 686.062C288.065 685.702 288.875 685.522 289.775 685.522C290.675 685.522 291.479 685.702 292.187 686.062C292.907 686.422 293.471 686.926 293.879 687.574C294.299 688.222 294.509 688.984 294.509 689.86C294.509 690.724 294.299 691.48 293.879 692.128C293.471 692.776 292.907 693.28 292.187 693.64C291.479 694 290.675 694.18 289.775 694.18C288.875 694.18 288.065 694 287.345 693.64C286.625 693.28 286.061 692.776 285.653 692.128C285.245 691.48 285.041 690.724 285.041 689.86ZM287.831 689.86C287.831 690.292 287.921 690.664 288.101 690.976C288.281 691.276 288.515 691.51 288.803 691.678C289.091 691.846 289.415 691.93 289.775 691.93C290.123 691.93 290.441 691.846 290.729 691.678C291.029 691.51 291.263 691.276 291.431 690.976C291.611 690.664 291.701 690.292 291.701 689.86C291.701 689.428 291.611 689.056 291.431 688.744C291.263 688.432 291.029 688.192 290.729 688.024C290.441 687.856 290.123 687.772 289.775 687.772C289.415 687.772 289.091 687.856 288.803 688.024C288.515 688.192 288.281 688.432 288.101 688.744C287.921 689.056 287.831 689.428 287.831 689.86ZM295.154 685.72H300.968V687.97H295.154V685.72ZM296.756 686.08H299.366V694H296.756V686.08ZM304.227 691.534C304.227 691.726 304.281 691.888 304.389 692.02C304.497 692.14 304.641 692.236 304.821 692.308C305.001 692.368 305.199 692.398 305.415 692.398C305.751 692.398 306.057 692.344 306.333 692.236C306.621 692.128 306.849 691.948 307.017 691.696C307.185 691.444 307.269 691.096 307.269 690.652L307.557 691.66C307.557 692.188 307.419 692.644 307.143 693.028C306.879 693.4 306.513 693.688 306.045 693.892C305.589 694.084 305.073 694.18 304.497 694.18C303.921 694.18 303.405 694.084 302.949 693.892C302.493 693.688 302.133 693.4 301.869 693.028C301.617 692.644 301.491 692.182 301.491 691.642C301.491 691.09 301.635 690.616 301.923 690.22C302.223 689.824 302.643 689.518 303.183 689.302C303.723 689.086 304.353 688.978 305.073 688.978C305.493 688.978 305.889 689.026 306.261 689.122C306.645 689.206 306.975 689.32 307.251 689.464C307.539 689.596 307.743 689.728 307.863 689.86V691.138C307.551 690.91 307.227 690.742 306.891 690.634C306.567 690.514 306.171 690.454 305.703 690.454C305.391 690.454 305.121 690.502 304.893 690.598C304.677 690.682 304.509 690.802 304.389 690.958C304.281 691.114 304.227 691.306 304.227 691.534ZM303.165 688.276L302.247 686.44C302.715 686.212 303.273 685.996 303.921 685.792C304.581 685.588 305.283 685.486 306.027 685.486C306.771 685.486 307.431 685.594 308.007 685.81C308.595 686.014 309.051 686.314 309.375 686.71C309.711 687.106 309.879 687.592 309.879 688.168V694H307.269V688.708C307.269 688.36 307.137 688.084 306.873 687.88C306.621 687.664 306.267 687.556 305.811 687.556C305.415 687.556 305.037 687.598 304.677 687.682C304.329 687.766 304.023 687.868 303.759 687.988C303.495 688.096 303.297 688.192 303.165 688.276Z" fill="#401F1F"/>
</g>
<rect class="tt-o duration-500 delay-[600ms]" x="32" y="634" width="86" height="83" fill="url(#pattern4)"/>
<path class="tt-o duration-500 delay-[900ms]" d="M26.975 751.569C29.4064 742.951 37.2694 737 46.2236 737H334.837C347.706 737 357.225 748.977 354.321 761.514L341.348 817.514C339.248 826.58 331.171 833 321.864 833H30.4236C17.1635 833 7.57444 820.331 11.1751 807.569L26.975 751.569Z" fill="white"/>
<g class="tt-o duration-500 delay-[900ms]" filter="url(#filter3_d_38_173)">
<path d="M120.178 775.726V772.99H129.7V775.726H120.178ZM127.792 768.4H130.834V781H127.792V768.4ZM119.332 768.4H122.374V781H119.332V768.4ZM141.6 775.06L133.248 781.63L133.338 778.66L141.69 772.09L141.6 775.06ZM135.876 772.72V779.092L133.248 781.63V772.72H135.876ZM141.69 772.09V781H139.08V774.628L141.69 772.09ZM147.699 776.86V776.05C148.083 776.05 148.359 775.978 148.527 775.834C148.707 775.678 148.797 775.486 148.797 775.258C148.797 775.03 148.713 774.85 148.545 774.718C148.377 774.574 148.155 774.502 147.879 774.502C147.675 774.502 147.489 774.544 147.321 774.628C147.165 774.712 147.045 774.826 146.961 774.97C146.877 775.114 146.829 775.282 146.817 775.474H144.351C144.351 774.886 144.495 774.376 144.783 773.944C145.083 773.5 145.491 773.158 146.007 772.918C146.535 772.666 147.153 772.54 147.861 772.54C148.521 772.54 149.109 772.648 149.625 772.864C150.141 773.068 150.543 773.35 150.831 773.71C151.131 774.058 151.281 774.46 151.281 774.916C151.281 775.528 150.987 776.02 150.399 776.392C149.823 776.752 148.923 776.908 147.699 776.86ZM147.825 781.18C146.649 781.18 145.719 780.91 145.035 780.37C144.363 779.818 143.979 779.086 143.883 778.174H146.457C146.553 778.522 146.715 778.792 146.943 778.984C147.171 779.164 147.459 779.254 147.807 779.254C148.071 779.254 148.299 779.218 148.491 779.146C148.683 779.062 148.833 778.954 148.941 778.822C149.049 778.678 149.103 778.504 149.103 778.3C149.103 778.096 149.049 777.928 148.941 777.796C148.845 777.652 148.689 777.544 148.473 777.472C148.269 777.388 148.011 777.346 147.699 777.346V776.32C148.959 776.26 149.931 776.44 150.615 776.86C151.299 777.268 151.641 777.844 151.641 778.588C151.641 779.104 151.473 779.56 151.137 779.956C150.813 780.34 150.363 780.64 149.787 780.856C149.211 781.072 148.557 781.18 147.825 781.18ZM153.497 772.72H156.107V781H153.497V772.72ZM159.113 772.72H162.353L158.825 776.14L162.713 781H159.527L155.567 776.14L159.113 772.72ZM163.154 776.86C163.154 775.984 163.358 775.222 163.766 774.574C164.174 773.926 164.738 773.422 165.458 773.062C166.178 772.702 166.988 772.522 167.888 772.522C168.788 772.522 169.592 772.702 170.3 773.062C171.02 773.422 171.584 773.926 171.992 774.574C172.412 775.222 172.622 775.984 172.622 776.86C172.622 777.724 172.412 778.48 171.992 779.128C171.584 779.776 171.02 780.28 170.3 780.64C169.592 781 168.788 781.18 167.888 781.18C166.988 781.18 166.178 781 165.458 780.64C164.738 780.28 164.174 779.776 163.766 779.128C163.358 778.48 163.154 777.724 163.154 776.86ZM165.944 776.86C165.944 777.292 166.034 777.664 166.214 777.976C166.394 778.276 166.628 778.51 166.916 778.678C167.204 778.846 167.528 778.93 167.888 778.93C168.236 778.93 168.554 778.846 168.842 778.678C169.142 778.51 169.376 778.276 169.544 777.976C169.724 777.664 169.814 777.292 169.814 776.86C169.814 776.428 169.724 776.056 169.544 775.744C169.376 775.432 169.142 775.192 168.842 775.024C168.554 774.856 168.236 774.772 167.888 774.772C167.528 774.772 167.204 774.856 166.916 775.024C166.628 775.192 166.394 775.432 166.214 775.744C166.034 776.056 165.944 776.428 165.944 776.86ZM182.178 781L181.044 775.33L182.412 772.09L184.914 781H182.178ZM178.524 778.642L182.412 772.09L182.592 775.744L179.064 781.558L178.524 778.642ZM179.064 781.558L175.59 775.744L175.77 772.09L179.604 778.642L179.064 781.558ZM173.268 781L175.77 772.09L177.138 775.33L176.004 781H173.268ZM185.584 776.86C185.584 775.984 185.788 775.222 186.196 774.574C186.604 773.926 187.168 773.422 187.888 773.062C188.608 772.702 189.418 772.522 190.318 772.522C191.218 772.522 192.022 772.702 192.73 773.062C193.45 773.422 194.014 773.926 194.422 774.574C194.842 775.222 195.052 775.984 195.052 776.86C195.052 777.724 194.842 778.48 194.422 779.128C194.014 779.776 193.45 780.28 192.73 780.64C192.022 781 191.218 781.18 190.318 781.18C189.418 781.18 188.608 781 187.888 780.64C187.168 780.28 186.604 779.776 186.196 779.128C185.788 778.48 185.584 777.724 185.584 776.86ZM188.374 776.86C188.374 777.292 188.464 777.664 188.644 777.976C188.824 778.276 189.058 778.51 189.346 778.678C189.634 778.846 189.958 778.93 190.318 778.93C190.666 778.93 190.984 778.846 191.272 778.678C191.572 778.51 191.806 778.276 191.974 777.976C192.154 777.664 192.244 777.292 192.244 776.86C192.244 776.428 192.154 776.056 191.974 775.744C191.806 775.432 191.572 775.192 191.272 775.024C190.984 774.856 190.666 774.772 190.318 774.772C189.958 774.772 189.634 774.856 189.346 775.024C189.058 775.192 188.824 775.432 188.644 775.744C188.464 776.056 188.374 776.428 188.374 776.86ZM205.381 772.72V781H202.771V775.186H199.711V778.12C199.711 778.768 199.591 779.308 199.351 779.74C199.111 780.16 198.703 780.478 198.127 780.694C197.563 780.898 196.783 781 195.787 781V778.57C196.147 778.57 196.453 778.504 196.705 778.372C196.969 778.228 197.101 777.922 197.101 777.454V772.72H205.381ZM208.928 777.436V775.924H213.608C213.56 775.588 213.47 775.306 213.338 775.078C213.218 774.85 213.044 774.676 212.816 774.556C212.6 774.424 212.33 774.358 212.006 774.358C211.634 774.358 211.31 774.442 211.034 774.61C210.77 774.766 210.56 775 210.404 775.312C210.248 775.612 210.17 775.984 210.17 776.428L210.134 776.86C210.134 777.424 210.218 777.88 210.386 778.228C210.566 778.576 210.8 778.828 211.088 778.984C211.376 779.14 211.7 779.218 212.06 779.218C212.396 779.218 212.69 779.176 212.942 779.092C213.206 779.008 213.434 778.888 213.626 778.732C213.818 778.564 213.98 778.366 214.112 778.138L216.542 778.732C216.266 779.236 215.936 779.674 215.552 780.046C215.168 780.406 214.694 780.688 214.13 780.892C213.578 781.084 212.9 781.18 212.096 781.18C211.1 781.18 210.248 780.994 209.54 780.622C208.844 780.25 208.31 779.74 207.938 779.092C207.578 778.432 207.398 777.688 207.398 776.86C207.398 776.704 207.404 776.554 207.416 776.41C207.428 776.266 207.446 776.122 207.47 775.978C207.59 775.294 207.836 774.694 208.208 774.178C208.592 773.662 209.102 773.26 209.738 772.972C210.386 772.684 211.16 772.54 212.06 772.54C213.02 772.54 213.83 772.708 214.49 773.044C215.162 773.38 215.666 773.86 216.002 774.484C216.35 775.108 216.524 775.858 216.524 776.734C216.524 776.806 216.524 776.908 216.524 777.04C216.524 777.16 216.512 777.292 216.488 777.436H208.928ZM218.22 772.72H220.83V781H218.22V772.72ZM223.836 772.72H227.076L223.548 776.14L227.436 781H224.25L220.29 776.14L223.836 772.72ZM237.368 772.72L231.968 784.96H229.232L231.248 780.334L227.666 772.72H230.654L233.336 779.362L231.932 779.344L234.578 772.72H237.368ZM246.989 772.72V781H244.379V775.186H241.319V778.12C241.319 778.768 241.199 779.308 240.959 779.74C240.719 780.16 240.311 780.478 239.735 780.694C239.171 780.898 238.391 781 237.395 781V778.57C237.755 778.57 238.061 778.504 238.313 778.372C238.577 778.228 238.709 777.922 238.709 777.454V772.72H246.989ZM251.976 781H249.168L251.67 777.238H254.244L251.976 781ZM257.502 781H254.784V772.72H257.502V781ZM255.72 776.212V778.03H253.146C252.582 778.03 252.036 777.934 251.508 777.742C250.992 777.55 250.572 777.256 250.248 776.86C249.936 776.452 249.78 775.936 249.78 775.312C249.78 774.676 249.936 774.172 250.248 773.8C250.572 773.428 250.992 773.158 251.508 772.99C252.036 772.81 252.582 772.72 253.146 772.72H255.72V774.88H253.524C253.296 774.88 253.098 774.904 252.93 774.952C252.774 774.988 252.654 775.054 252.57 775.15C252.486 775.246 252.444 775.378 252.444 775.546C252.444 775.702 252.486 775.834 252.57 775.942C252.654 776.038 252.774 776.11 252.93 776.158C253.098 776.194 253.296 776.212 253.524 776.212H255.72ZM262 784.96H259.282V772.72H262V784.96ZM268.768 776.86C268.768 777.82 268.576 778.63 268.192 779.29C267.82 779.95 267.334 780.448 266.734 780.784C266.146 781.12 265.51 781.288 264.826 781.288C264.106 781.288 263.482 781.108 262.954 780.748C262.438 780.376 262.042 779.86 261.766 779.2C261.49 778.528 261.352 777.748 261.352 776.86C261.352 775.96 261.49 775.18 261.766 774.52C262.042 773.86 262.438 773.35 262.954 772.99C263.482 772.618 264.106 772.432 264.826 772.432C265.51 772.432 266.146 772.6 266.734 772.936C267.334 773.272 267.82 773.77 268.192 774.43C268.576 775.078 268.768 775.888 268.768 776.86ZM265.906 776.86C265.906 776.428 265.816 776.062 265.636 775.762C265.456 775.462 265.216 775.234 264.916 775.078C264.616 774.922 264.286 774.844 263.926 774.844C263.614 774.844 263.308 774.922 263.008 775.078C262.72 775.222 262.48 775.444 262.288 775.744C262.096 776.044 262 776.416 262 776.86C262 777.304 262.096 777.676 262.288 777.976C262.48 778.276 262.72 778.504 263.008 778.66C263.308 778.804 263.614 778.876 263.926 778.876C264.286 778.876 264.616 778.798 264.916 778.642C265.216 778.486 265.456 778.258 265.636 777.958C265.816 777.658 265.906 777.292 265.906 776.86ZM271.256 777.652V775.618H277.952V777.652H271.256ZM276.728 772.72H279.338V781H276.728V772.72ZM270.41 772.72H273.038V781H270.41V772.72ZM290.358 772.72H293.094V781H290.358V772.72ZM281.484 772.72H284.22V781H281.484V772.72ZM283.626 777.274V775.51H286.2C287.052 775.51 287.766 775.72 288.342 776.14C288.93 776.548 289.224 777.196 289.224 778.084C289.224 778.672 289.092 779.188 288.828 779.632C288.564 780.076 288.204 780.418 287.748 780.658C287.292 780.886 286.776 781 286.2 781H283.626V778.894H285.714C285.918 778.894 286.086 778.864 286.218 778.804C286.362 778.744 286.47 778.654 286.542 778.534C286.626 778.402 286.668 778.252 286.668 778.084C286.668 777.844 286.584 777.652 286.416 777.508C286.26 777.352 286.026 777.274 285.714 777.274H283.626ZM303.6 775.06L295.248 781.63L295.338 778.66L303.69 772.09L303.6 775.06ZM297.876 772.72V779.092L295.248 781.63V772.72H297.876ZM303.69 772.09V781H301.08V774.628L303.69 772.09ZM296.652 768.49H298.434C298.434 768.694 298.482 768.88 298.578 769.048C298.674 769.204 298.806 769.33 298.974 769.426C299.154 769.51 299.364 769.552 299.604 769.552C299.832 769.552 300.036 769.51 300.216 769.426C300.396 769.33 300.534 769.204 300.63 769.048C300.726 768.88 300.774 768.694 300.774 768.49H302.556C302.556 768.97 302.442 769.414 302.214 769.822C301.986 770.218 301.65 770.536 301.206 770.776C300.774 771.004 300.24 771.118 299.604 771.118C298.98 771.118 298.446 771.004 298.002 770.776C297.558 770.536 297.222 770.218 296.994 769.822C296.766 769.414 296.652 768.97 296.652 768.49ZM124.372 794.72H127.396L124.228 798.752L127.576 803H124.552L122.824 800.588L121.132 803H118L121.402 798.752L118.18 794.72H121.312L122.824 796.898L124.372 794.72ZM127.892 798.86C127.892 797.984 128.096 797.222 128.504 796.574C128.912 795.926 129.476 795.422 130.196 795.062C130.916 794.702 131.726 794.522 132.626 794.522C133.526 794.522 134.33 794.702 135.038 795.062C135.758 795.422 136.322 795.926 136.73 796.574C137.15 797.222 137.36 797.984 137.36 798.86C137.36 799.724 137.15 800.48 136.73 801.128C136.322 801.776 135.758 802.28 135.038 802.64C134.33 803 133.526 803.18 132.626 803.18C131.726 803.18 130.916 803 130.196 802.64C129.476 802.28 128.912 801.776 128.504 801.128C128.096 800.48 127.892 799.724 127.892 798.86ZM130.682 798.86C130.682 799.292 130.772 799.664 130.952 799.976C131.132 800.276 131.366 800.51 131.654 800.678C131.942 800.846 132.266 800.93 132.626 800.93C132.974 800.93 133.292 800.846 133.58 800.678C133.88 800.51 134.114 800.276 134.282 799.976C134.462 799.664 134.552 799.292 134.552 798.86C134.552 798.428 134.462 798.056 134.282 797.744C134.114 797.432 133.88 797.192 133.58 797.024C133.292 796.856 132.974 796.772 132.626 796.772C132.266 796.772 131.942 796.856 131.654 797.024C131.366 797.192 131.132 797.432 130.952 797.744C130.772 798.056 130.682 798.428 130.682 798.86ZM139.824 799.652V797.618H146.52V799.652H139.824ZM145.296 794.72H147.906V803H145.296V794.72ZM138.978 794.72H141.606V803H138.978V794.72ZM155.29 797.978L153.31 802.46L150.682 801.902L155.29 794.09L159.898 801.902L157.27 802.46L155.29 797.978ZM158.314 803H152.356V804.62H149.71V800.876H160.87V804.62H158.314V803ZM165.444 806.96H162.726V794.72H165.444V806.96ZM172.212 798.86C172.212 799.82 172.02 800.63 171.636 801.29C171.264 801.95 170.778 802.448 170.178 802.784C169.59 803.12 168.954 803.288 168.27 803.288C167.55 803.288 166.926 803.108 166.398 802.748C165.882 802.376 165.486 801.86 165.21 801.2C164.934 800.528 164.796 799.748 164.796 798.86C164.796 797.96 164.934 797.18 165.21 796.52C165.486 795.86 165.882 795.35 166.398 794.99C166.926 794.618 167.55 794.432 168.27 794.432C168.954 794.432 169.59 794.6 170.178 794.936C170.778 795.272 171.264 795.77 171.636 796.43C172.02 797.078 172.212 797.888 172.212 798.86ZM169.35 798.86C169.35 798.428 169.26 798.062 169.08 797.762C168.9 797.462 168.66 797.234 168.36 797.078C168.06 796.922 167.73 796.844 167.37 796.844C167.058 796.844 166.752 796.922 166.452 797.078C166.164 797.222 165.924 797.444 165.732 797.744C165.54 798.044 165.444 798.416 165.444 798.86C165.444 799.304 165.54 799.676 165.732 799.976C165.924 800.276 166.164 800.504 166.452 800.66C166.752 800.804 167.058 800.876 167.37 800.876C167.73 800.876 168.06 800.798 168.36 800.642C168.66 800.486 168.9 800.258 169.08 799.958C169.26 799.658 169.35 799.292 169.35 798.86ZM173.367 798.86C173.367 797.984 173.571 797.222 173.979 796.574C174.387 795.926 174.951 795.422 175.671 795.062C176.391 794.702 177.201 794.522 178.101 794.522C179.001 794.522 179.805 794.702 180.513 795.062C181.233 795.422 181.797 795.926 182.205 796.574C182.625 797.222 182.835 797.984 182.835 798.86C182.835 799.724 182.625 800.48 182.205 801.128C181.797 801.776 181.233 802.28 180.513 802.64C179.805 803 179.001 803.18 178.101 803.18C177.201 803.18 176.391 803 175.671 802.64C174.951 802.28 174.387 801.776 173.979 801.128C173.571 800.48 173.367 799.724 173.367 798.86ZM176.157 798.86C176.157 799.292 176.247 799.664 176.427 799.976C176.607 800.276 176.841 800.51 177.129 800.678C177.417 800.846 177.741 800.93 178.101 800.93C178.449 800.93 178.767 800.846 179.055 800.678C179.355 800.51 179.589 800.276 179.757 799.976C179.937 799.664 180.027 799.292 180.027 798.86C180.027 798.428 179.937 798.056 179.757 797.744C179.589 797.432 179.355 797.192 179.055 797.024C178.767 796.856 178.449 796.772 178.101 796.772C177.741 796.772 177.417 796.856 177.129 797.024C176.841 797.192 176.607 797.432 176.427 797.744C176.247 798.056 176.157 798.428 176.157 798.86ZM192.841 797.06L184.489 803.63L184.579 800.66L192.931 794.09L192.841 797.06ZM187.117 794.72V801.092L184.489 803.63V794.72H187.117ZM192.931 794.09V803H190.321V796.628L192.931 794.09ZM194.133 794.72H199.947V796.97H194.133V794.72ZM195.735 795.08H198.345V803H195.735V795.08ZM209.487 797.06L201.135 803.63L201.225 800.66L209.577 794.09L209.487 797.06ZM203.763 794.72V801.092L201.135 803.63V794.72H203.763ZM209.577 794.09V803H206.967V796.628L209.577 794.09ZM212.597 799.652V797.618H219.293V799.652H212.597ZM218.069 794.72H220.679V803H218.069V794.72ZM211.751 794.72H214.379V803H211.751V794.72ZM224.932 800.534C224.932 800.726 224.986 800.888 225.094 801.02C225.202 801.14 225.346 801.236 225.526 801.308C225.706 801.368 225.904 801.398 226.12 801.398C226.456 801.398 226.762 801.344 227.038 801.236C227.326 801.128 227.554 800.948 227.722 800.696C227.89 800.444 227.974 800.096 227.974 799.652L228.262 800.66C228.262 801.188 228.124 801.644 227.848 802.028C227.584 802.4 227.218 802.688 226.75 802.892C226.294 803.084 225.778 803.18 225.202 803.18C224.626 803.18 224.11 803.084 223.654 802.892C223.198 802.688 222.838 802.4 222.574 802.028C222.322 801.644 222.196 801.182 222.196 800.642C222.196 800.09 222.34 799.616 222.628 799.22C222.928 798.824 223.348 798.518 223.888 798.302C224.428 798.086 225.058 797.978 225.778 797.978C226.198 797.978 226.594 798.026 226.966 798.122C227.35 798.206 227.68 798.32 227.956 798.464C228.244 798.596 228.448 798.728 228.568 798.86V800.138C228.256 799.91 227.932 799.742 227.596 799.634C227.272 799.514 226.876 799.454 226.408 799.454C226.096 799.454 225.826 799.502 225.598 799.598C225.382 799.682 225.214 799.802 225.094 799.958C224.986 800.114 224.932 800.306 224.932 800.534ZM223.87 797.276L222.952 795.44C223.42 795.212 223.978 794.996 224.626 794.792C225.286 794.588 225.988 794.486 226.732 794.486C227.476 794.486 228.136 794.594 228.712 794.81C229.3 795.014 229.756 795.314 230.08 795.71C230.416 796.106 230.584 796.592 230.584 797.168V803H227.974V797.708C227.974 797.36 227.842 797.084 227.578 796.88C227.326 796.664 226.972 796.556 226.516 796.556C226.12 796.556 225.742 796.598 225.382 796.682C225.034 796.766 224.728 796.868 224.464 796.988C224.2 797.096 224.002 797.192 223.87 797.276ZM240.299 798.86C240.299 799.304 240.395 799.688 240.587 800.012C240.779 800.324 241.043 800.57 241.379 800.75C241.727 800.93 242.099 801.02 242.495 801.02C242.831 801.02 243.149 800.972 243.449 800.876C243.761 800.768 244.043 800.624 244.295 800.444C244.559 800.264 244.775 800.042 244.943 799.778V802.424C244.655 802.652 244.295 802.838 243.863 802.982C243.431 803.114 242.903 803.18 242.279 803.18C241.367 803.18 240.545 803 239.813 802.64C239.093 802.28 238.523 801.776 238.103 801.128C237.695 800.48 237.491 799.724 237.491 798.86C237.491 797.984 237.695 797.228 238.103 796.592C238.523 795.944 239.093 795.44 239.813 795.08C240.545 794.72 241.367 794.54 242.279 794.54C242.903 794.54 243.431 794.612 243.863 794.756C244.295 794.888 244.655 795.056 244.943 795.26V797.924C244.775 797.66 244.553 797.438 244.277 797.258C244.013 797.078 243.725 796.94 243.413 796.844C243.101 796.748 242.795 796.7 242.495 796.7C242.099 796.7 241.727 796.796 241.379 796.988C241.043 797.18 240.779 797.438 240.587 797.762C240.395 798.086 240.299 798.452 240.299 798.86ZM255.386 794.72L249.986 806.96H247.25L249.266 802.334L245.684 794.72H248.672L251.354 801.362L249.95 801.344L252.596 794.72H255.386ZM265.006 794.72V803H262.396V797.186H259.336V800.12C259.336 800.768 259.216 801.308 258.976 801.74C258.736 802.16 258.328 802.478 257.752 802.694C257.188 802.898 256.408 803 255.412 803V800.57C255.772 800.57 256.078 800.504 256.33 800.372C256.594 800.228 256.726 799.922 256.726 799.454V794.72H265.006ZM267.635 794.72H270.353V803H267.635V794.72ZM269.759 799.274V797.51H272.333C273.185 797.51 273.899 797.72 274.475 798.14C275.063 798.548 275.357 799.196 275.357 800.084C275.357 800.672 275.225 801.188 274.961 801.632C274.697 802.076 274.337 802.418 273.881 802.658C273.425 802.886 272.909 803 272.333 803H269.759V800.894H271.847C272.051 800.894 272.219 800.864 272.351 800.804C272.495 800.744 272.603 800.654 272.675 800.534C272.759 800.402 272.801 800.252 272.801 800.084C272.801 799.844 272.717 799.652 272.549 799.508C272.393 799.352 272.159 799.274 271.847 799.274H269.759ZM280.972 792.92H283.528V804.8H280.972V792.92ZM276.832 798.86C276.832 797.984 277.048 797.222 277.48 796.574C277.912 795.926 278.53 795.422 279.334 795.062C280.15 794.702 281.122 794.522 282.25 794.522C283.39 794.522 284.362 794.702 285.166 795.062C285.982 795.422 286.606 795.926 287.038 796.574C287.47 797.222 287.686 797.984 287.686 798.86C287.686 799.724 287.47 800.48 287.038 801.128C286.606 801.776 285.982 802.28 285.166 802.64C284.362 803 283.39 803.18 282.25 803.18C281.122 803.18 280.15 803 279.334 802.64C278.53 802.28 277.912 801.776 277.48 801.128C277.048 800.48 276.832 799.724 276.832 798.86ZM279.298 798.86C279.298 799.292 279.394 799.664 279.586 799.976C279.79 800.276 280.108 800.51 280.54 800.678C280.984 800.846 281.554 800.93 282.25 800.93C282.946 800.93 283.51 800.846 283.942 800.678C284.386 800.51 284.71 800.276 284.914 799.976C285.118 799.664 285.22 799.292 285.22 798.86C285.22 798.428 285.118 798.056 284.914 797.744C284.71 797.432 284.386 797.192 283.942 797.024C283.51 796.856 282.946 796.772 282.25 796.772C281.554 796.772 280.984 796.856 280.54 797.024C280.108 797.192 279.79 797.432 279.586 797.744C279.394 798.056 279.298 798.428 279.298 798.86ZM291.43 800.534C291.43 800.726 291.484 800.888 291.592 801.02C291.7 801.14 291.844 801.236 292.024 801.308C292.204 801.368 292.402 801.398 292.618 801.398C292.954 801.398 293.26 801.344 293.536 801.236C293.824 801.128 294.052 800.948 294.22 800.696C294.388 800.444 294.472 800.096 294.472 799.652L294.76 800.66C294.76 801.188 294.622 801.644 294.346 802.028C294.082 802.4 293.716 802.688 293.248 802.892C292.792 803.084 292.276 803.18 291.7 803.18C291.124 803.18 290.608 803.084 290.152 802.892C289.696 802.688 289.336 802.4 289.072 802.028C288.82 801.644 288.694 801.182 288.694 800.642C288.694 800.09 288.838 799.616 289.126 799.22C289.426 798.824 289.846 798.518 290.386 798.302C290.926 798.086 291.556 797.978 292.276 797.978C292.696 797.978 293.092 798.026 293.464 798.122C293.848 798.206 294.178 798.32 294.454 798.464C294.742 798.596 294.946 798.728 295.066 798.86V800.138C294.754 799.91 294.43 799.742 294.094 799.634C293.77 799.514 293.374 799.454 292.906 799.454C292.594 799.454 292.324 799.502 292.096 799.598C291.88 799.682 291.712 799.802 291.592 799.958C291.484 800.114 291.43 800.306 291.43 800.534ZM290.368 797.276L289.45 795.44C289.918 795.212 290.476 794.996 291.124 794.792C291.784 794.588 292.486 794.486 293.23 794.486C293.974 794.486 294.634 794.594 295.21 794.81C295.798 795.014 296.254 795.314 296.578 795.71C296.914 796.106 297.082 796.592 297.082 797.168V803H294.472V797.708C294.472 797.36 294.34 797.084 294.076 796.88C293.824 796.664 293.47 796.556 293.014 796.556C292.618 796.556 292.24 796.598 291.88 796.682C291.532 796.766 291.226 796.868 290.962 796.988C290.698 797.096 290.5 797.192 290.368 797.276ZM298.143 794.72H303.957V796.97H298.143V794.72ZM299.745 795.08H302.355V803H299.745V795.08Z" fill="#401F1F"/>
</g>

<path class="tt-o duration-500 delay-[1100ms]" d="M26.975 860.569C29.4064 851.951 37.2694 846 46.2236 846H334.837C347.706 846 357.225 857.977 354.321 870.514L341.348 926.514C339.248 935.58 331.171 942 321.864 942H30.4236C17.1635 942 7.57444 929.331 11.1751 916.569L26.975 860.569Z" fill="white"/>
<g class="tt-o duration-500 delay-[1100ms]" filter="url(#filter4_d_38_173)">
<path d="M127.342 892.118H122.536V902H119.44V889.4H130.438V902H127.342V892.118ZM132.463 897.86C132.463 896.984 132.667 896.222 133.075 895.574C133.483 894.926 134.047 894.422 134.767 894.062C135.487 893.702 136.297 893.522 137.197 893.522C138.097 893.522 138.901 893.702 139.609 894.062C140.329 894.422 140.893 894.926 141.301 895.574C141.721 896.222 141.931 896.984 141.931 897.86C141.931 898.724 141.721 899.48 141.301 900.128C140.893 900.776 140.329 901.28 139.609 901.64C138.901 902 138.097 902.18 137.197 902.18C136.297 902.18 135.487 902 134.767 901.64C134.047 901.28 133.483 900.776 133.075 900.128C132.667 899.48 132.463 898.724 132.463 897.86ZM135.253 897.86C135.253 898.292 135.343 898.664 135.523 898.976C135.703 899.276 135.937 899.51 136.225 899.678C136.513 899.846 136.837 899.93 137.197 899.93C137.545 899.93 137.863 899.846 138.151 899.678C138.451 899.51 138.685 899.276 138.853 898.976C139.033 898.664 139.123 898.292 139.123 897.86C139.123 897.428 139.033 897.056 138.853 896.744C138.685 896.432 138.451 896.192 138.151 896.024C137.863 895.856 137.545 895.772 137.197 895.772C136.837 895.772 136.513 895.856 136.225 896.024C135.937 896.192 135.703 896.432 135.523 896.744C135.343 897.056 135.253 897.428 135.253 897.86ZM152.26 893.72V902H149.65V896.186H146.59V899.12C146.59 899.768 146.47 900.308 146.23 900.74C145.99 901.16 145.582 901.478 145.006 901.694C144.442 901.898 143.662 902 142.666 902V899.57C143.026 899.57 143.332 899.504 143.584 899.372C143.848 899.228 143.98 898.922 143.98 898.454V893.72H152.26ZM154.277 897.86C154.277 896.984 154.481 896.222 154.889 895.574C155.297 894.926 155.861 894.422 156.581 894.062C157.301 893.702 158.111 893.522 159.011 893.522C159.911 893.522 160.715 893.702 161.423 894.062C162.143 894.422 162.707 894.926 163.115 895.574C163.535 896.222 163.745 896.984 163.745 897.86C163.745 898.724 163.535 899.48 163.115 900.128C162.707 900.776 162.143 901.28 161.423 901.64C160.715 902 159.911 902.18 159.011 902.18C158.111 902.18 157.301 902 156.581 901.64C155.861 901.28 155.297 900.776 154.889 900.128C154.481 899.48 154.277 898.724 154.277 897.86ZM157.067 897.86C157.067 898.292 157.157 898.664 157.337 898.976C157.517 899.276 157.751 899.51 158.039 899.678C158.327 899.846 158.651 899.93 159.011 899.93C159.359 899.93 159.677 899.846 159.965 899.678C160.265 899.51 160.499 899.276 160.667 898.976C160.847 898.664 160.937 898.292 160.937 897.86C160.937 897.428 160.847 897.056 160.667 896.744C160.499 896.432 160.265 896.192 159.965 896.024C159.677 895.856 159.359 895.772 159.011 895.772C158.651 895.772 158.327 895.856 158.039 896.024C157.751 896.192 157.517 896.432 157.337 896.744C157.157 897.056 157.067 897.428 157.067 897.86ZM165.345 893.72H167.955V902H165.345V893.72ZM170.961 893.72H174.201L170.673 897.14L174.561 902H171.375L167.415 897.14L170.961 893.72ZM177.774 897.86C177.774 898.304 177.87 898.688 178.062 899.012C178.254 899.324 178.518 899.57 178.854 899.75C179.202 899.93 179.574 900.02 179.97 900.02C180.306 900.02 180.624 899.972 180.924 899.876C181.236 899.768 181.518 899.624 181.77 899.444C182.034 899.264 182.25 899.042 182.418 898.778V901.424C182.13 901.652 181.77 901.838 181.338 901.982C180.906 902.114 180.378 902.18 179.754 902.18C178.842 902.18 178.02 902 177.288 901.64C176.568 901.28 175.998 900.776 175.578 900.128C175.17 899.48 174.966 898.724 174.966 897.86C174.966 896.984 175.17 896.228 175.578 895.592C175.998 894.944 176.568 894.44 177.288 894.08C178.02 893.72 178.842 893.54 179.754 893.54C180.378 893.54 180.906 893.612 181.338 893.756C181.77 893.888 182.13 894.056 182.418 894.26V896.924C182.25 896.66 182.028 896.438 181.752 896.258C181.488 896.078 181.2 895.94 180.888 895.844C180.576 895.748 180.27 895.7 179.97 895.7C179.574 895.7 179.202 895.796 178.854 895.988C178.518 896.18 178.254 896.438 178.062 896.762C177.87 897.086 177.774 897.452 177.774 897.86ZM186.488 899.534C186.488 899.726 186.542 899.888 186.65 900.02C186.758 900.14 186.902 900.236 187.082 900.308C187.262 900.368 187.46 900.398 187.676 900.398C188.012 900.398 188.318 900.344 188.594 900.236C188.882 900.128 189.11 899.948 189.278 899.696C189.446 899.444 189.53 899.096 189.53 898.652L189.818 899.66C189.818 900.188 189.68 900.644 189.404 901.028C189.14 901.4 188.774 901.688 188.306 901.892C187.85 902.084 187.334 902.18 186.758 902.18C186.182 902.18 185.666 902.084 185.21 901.892C184.754 901.688 184.394 901.4 184.13 901.028C183.878 900.644 183.752 900.182 183.752 899.642C183.752 899.09 183.896 898.616 184.184 898.22C184.484 897.824 184.904 897.518 185.444 897.302C185.984 897.086 186.614 896.978 187.334 896.978C187.754 896.978 188.15 897.026 188.522 897.122C188.906 897.206 189.236 897.32 189.512 897.464C189.8 897.596 190.004 897.728 190.124 897.86V899.138C189.812 898.91 189.488 898.742 189.152 898.634C188.828 898.514 188.432 898.454 187.964 898.454C187.652 898.454 187.382 898.502 187.154 898.598C186.938 898.682 186.77 898.802 186.65 898.958C186.542 899.114 186.488 899.306 186.488 899.534ZM185.426 896.276L184.508 894.44C184.976 894.212 185.534 893.996 186.182 893.792C186.842 893.588 187.544 893.486 188.288 893.486C189.032 893.486 189.692 893.594 190.268 893.81C190.856 894.014 191.312 894.314 191.636 894.71C191.972 895.106 192.14 895.592 192.14 896.168V902H189.53V896.708C189.53 896.36 189.398 896.084 189.134 895.88C188.882 895.664 188.528 895.556 188.072 895.556C187.676 895.556 187.298 895.598 186.938 895.682C186.59 895.766 186.284 895.868 186.02 895.988C185.756 896.096 185.558 896.192 185.426 896.276ZM202.111 902L200.977 896.33L202.345 893.09L204.847 902H202.111ZM198.457 899.642L202.345 893.09L202.525 896.744L198.997 902.558L198.457 899.642ZM198.997 902.558L195.523 896.744L195.703 893.09L199.537 899.642L198.997 902.558ZM193.201 902L195.703 893.09L197.071 896.33L195.937 902H193.201ZM207.047 898.436V896.924H211.727C211.679 896.588 211.589 896.306 211.457 896.078C211.337 895.85 211.163 895.676 210.935 895.556C210.719 895.424 210.449 895.358 210.125 895.358C209.753 895.358 209.429 895.442 209.153 895.61C208.889 895.766 208.679 896 208.523 896.312C208.367 896.612 208.289 896.984 208.289 897.428L208.253 897.86C208.253 898.424 208.337 898.88 208.505 899.228C208.685 899.576 208.919 899.828 209.207 899.984C209.495 900.14 209.819 900.218 210.179 900.218C210.515 900.218 210.809 900.176 211.061 900.092C211.325 900.008 211.553 899.888 211.745 899.732C211.937 899.564 212.099 899.366 212.231 899.138L214.661 899.732C214.385 900.236 214.055 900.674 213.671 901.046C213.287 901.406 212.813 901.688 212.249 901.892C211.697 902.084 211.019 902.18 210.215 902.18C209.219 902.18 208.367 901.994 207.659 901.622C206.963 901.25 206.429 900.74 206.057 900.092C205.697 899.432 205.517 898.688 205.517 897.86C205.517 897.704 205.523 897.554 205.535 897.41C205.547 897.266 205.565 897.122 205.589 896.978C205.709 896.294 205.955 895.694 206.327 895.178C206.711 894.662 207.221 894.26 207.857 893.972C208.505 893.684 209.279 893.54 210.179 893.54C211.139 893.54 211.949 893.708 212.609 894.044C213.281 894.38 213.785 894.86 214.121 895.484C214.469 896.108 214.643 896.858 214.643 897.734C214.643 897.806 214.643 897.908 214.643 898.04C214.643 898.16 214.631 898.292 214.607 898.436H207.047ZM219.057 905.96H216.339V893.72H219.057V905.96ZM225.825 897.86C225.825 898.82 225.633 899.63 225.249 900.29C224.877 900.95 224.391 901.448 223.791 901.784C223.203 902.12 222.567 902.288 221.883 902.288C221.163 902.288 220.539 902.108 220.011 901.748C219.495 901.376 219.099 900.86 218.823 900.2C218.547 899.528 218.409 898.748 218.409 897.86C218.409 896.96 218.547 896.18 218.823 895.52C219.099 894.86 219.495 894.35 220.011 893.99C220.539 893.618 221.163 893.432 221.883 893.432C222.567 893.432 223.203 893.6 223.791 893.936C224.391 894.272 224.877 894.77 225.249 895.43C225.633 896.078 225.825 896.888 225.825 897.86ZM222.963 897.86C222.963 897.428 222.873 897.062 222.693 896.762C222.513 896.462 222.273 896.234 221.973 896.078C221.673 895.922 221.343 895.844 220.983 895.844C220.671 895.844 220.365 895.922 220.065 896.078C219.777 896.222 219.537 896.444 219.345 896.744C219.153 897.044 219.057 897.416 219.057 897.86C219.057 898.304 219.153 898.676 219.345 898.976C219.537 899.276 219.777 899.504 220.065 899.66C220.365 899.804 220.671 899.876 220.983 899.876C221.343 899.876 221.673 899.798 221.973 899.642C222.273 899.486 222.513 899.258 222.693 898.958C222.873 898.658 222.963 898.292 222.963 897.86ZM232.053 899.768L239.361 889.4H241.629V902H238.461V898.832L238.803 898.634V893.81L236.085 897.572H240.729L241.035 897.176H243.609V899.768H232.053ZM248.023 895.7C248.023 896.288 248.077 896.828 248.185 897.32C248.293 897.8 248.449 898.214 248.653 898.562C248.857 898.898 249.097 899.162 249.373 899.354C249.661 899.534 249.979 899.624 250.327 899.624C250.675 899.624 250.987 899.534 251.263 899.354C251.551 899.162 251.797 898.898 252.001 898.562C252.205 898.214 252.361 897.8 252.469 897.32C252.577 896.828 252.631 896.288 252.631 895.7C252.631 895.112 252.577 894.578 252.469 894.098C252.361 893.606 252.205 893.192 252.001 892.856C251.797 892.508 251.551 892.244 251.263 892.064C250.987 891.872 250.675 891.776 250.327 891.776C249.979 891.776 249.661 891.872 249.373 892.064C249.097 892.244 248.857 892.508 248.653 892.856C248.449 893.192 248.293 893.606 248.185 894.098C248.077 894.578 248.023 895.112 248.023 895.7ZM245.089 895.7C245.089 894.332 245.305 893.162 245.737 892.19C246.181 891.218 246.799 890.474 247.591 889.958C248.383 889.43 249.295 889.166 250.327 889.166C251.395 889.166 252.319 889.43 253.099 889.958C253.891 890.474 254.497 891.218 254.917 892.19C255.349 893.162 255.565 894.332 255.565 895.7C255.565 897.068 255.349 898.238 254.917 899.21C254.497 900.182 253.891 900.932 253.099 901.46C252.319 901.976 251.395 902.234 250.327 902.234C249.295 902.234 248.383 901.976 247.591 901.46C246.799 900.932 246.181 900.182 245.737 899.21C245.305 898.238 245.089 897.068 245.089 895.7ZM256.827 892.244V889.4H267.105L261.021 902H257.727L262.641 892.244H256.827Z" fill="#401F1F"/>
</g>

<rect class="tt-o duration-500 delay-[900ms]" x="35" y="751" width="70" height="67" fill="url(#pattern7)"/>
<rect class="tt-o duration-500 delay-[1100ms]" x="32" y="852" width="87" height="83" fill="url(#pattern8)"/>
<rect width="191.07" height="207.644" transform="matrix(0.809163 -0.587585 -0.587585 -0.809163 211.009 1218.12)" fill="url(#pattern9)"/>
<g filter="url(#filter5_d_38_173)">
<circle cx="178.448" cy="1141.45" r="51.5" transform="rotate(31.5933 178.448 1141.45)" stroke="url(#paint5_linear_38_173)" stroke-width="81.3333" shape-rendering="crispEdges"/>
<circle cx="178.448" cy="1141.45" r="51.5" transform="rotate(31.5933 178.448 1141.45)" stroke="url(#paint6_linear_38_173)" stroke-width="81.3333" shape-rendering="crispEdges"/>
</g>
<circle cx="178.902" cy="1141.97" r="104.542" transform="rotate(-46.6828 178.902 1141.97)" stroke="url(#paint7_linear_38_173)" stroke-width="6"/>
<circle cx="178.902" cy="1141.97" r="104.542" transform="rotate(-46.6828 178.902 1141.97)" stroke="url(#paint8_linear_38_173)" stroke-width="6"/>
<circle cx="179" cy="1142" r="146.971" transform="rotate(-90 179 1142)" stroke="url(#paint9_linear_38_173)" stroke-width="6"/>
<g filter="url(#filter6_d_38_173)">
<rect x="102" y="1053" width="133" height="162" fill="url(#pattern10)" shape-rendering="crispEdges"/>
</g>
<circle cx="81" cy="1211" r="31" fill="white" stroke="white" stroke-width="4"/>
<path d="M78.825 1212.42V1209.16C79.6563 1209.16 80.4017 1209.06 81.061 1208.85C81.749 1208.63 82.3367 1208.32 82.824 1207.95C83.34 1207.58 83.727 1207.15 83.985 1206.66C84.243 1206.17 84.372 1205.66 84.372 1205.11C84.372 1204.54 84.243 1204.02 83.985 1203.57C83.727 1203.11 83.3543 1202.76 82.867 1202.53C82.3797 1202.28 81.749 1202.15 80.975 1202.15C79.8283 1202.15 78.8823 1202.48 78.137 1203.14C77.3917 1203.8 77.019 1204.66 77.019 1205.72H70.354C70.354 1203.94 70.784 1202.35 71.644 1200.94C72.5327 1199.51 73.7797 1198.39 75.385 1197.59C76.9903 1196.76 78.8537 1196.34 80.975 1196.34C83.2397 1196.34 85.1603 1196.71 86.737 1197.46C88.3137 1198.21 89.5033 1199.21 90.306 1200.47C91.1373 1201.73 91.553 1203.14 91.553 1204.68C91.553 1206.4 90.9797 1207.84 89.833 1208.98C88.715 1210.13 87.1957 1210.99 85.275 1211.56C83.3543 1212.14 81.2043 1212.42 78.825 1212.42ZM80.631 1227.69C78.825 1227.69 77.2053 1227.42 75.772 1226.87C74.3387 1226.33 73.1203 1225.57 72.117 1224.59C71.1423 1223.62 70.3827 1222.51 69.838 1221.28C69.322 1220.05 69.064 1218.77 69.064 1217.45H76.202C76.202 1218.43 76.417 1219.25 76.847 1219.91C77.277 1220.57 77.8503 1221.05 78.567 1221.37C79.3123 1221.68 80.0863 1221.84 80.889 1221.84C81.749 1221.84 82.4943 1221.71 83.125 1221.45C83.7843 1221.2 84.3003 1220.78 84.673 1220.21C85.0457 1219.63 85.232 1218.93 85.232 1218.1C85.232 1217.47 85.103 1216.9 84.845 1216.38C84.587 1215.86 84.1857 1215.42 83.641 1215.05C83.125 1214.65 82.4657 1214.34 81.663 1214.14C80.8603 1213.94 79.9143 1213.84 78.825 1213.84V1210.14C80.803 1210.14 82.609 1210.32 84.243 1210.66C85.9057 1210.98 87.3533 1211.49 88.586 1212.21C89.8187 1212.9 90.7647 1213.79 91.424 1214.87C92.0833 1215.96 92.413 1217.27 92.413 1218.79C92.413 1220.54 91.94 1222.08 90.994 1223.43C90.048 1224.75 88.7007 1225.8 86.952 1226.57C85.2033 1227.32 83.0963 1227.69 80.631 1227.69Z" fill="#401F1F"/>
<path d="M75 283V398.468C75 405.498 70.117 411.586 63.254 413.111L60.0271 413.828C53.0369 415.381 48.1194 421.659 48.2851 428.818L50.5 524.5" stroke="white" stroke-width="4"/>
<path d="M94.5 569.5L175.419 580.318C182.681 581.289 188.179 587.364 188.423 594.686L190.5 657" stroke="white" stroke-width="4"/>
<path d="M192.5 715V756" stroke="white" stroke-width="4"/>
<path d="M195 823.5V868" stroke="white" stroke-width="4"/>
<path d="M201 929.5V995.5" stroke="white" stroke-width="4"/>
<defs>
<pattern id="pattern0" patternContentUnits="objectBoundingBox" width="1" height="1">
<use xlink:href="#image0_38_173" transform="matrix(0.00111111 0 0 0.00102242 0 0.0806376)"/>
</pattern>
<pattern id="pattern1" patternContentUnits="objectBoundingBox" width="1" height="1">
<use xlink:href="#image0_38_173" transform="matrix(0.00111111 0 0 0.00102242 0 0.0806376)"/>
</pattern>
<filter id="filter0_d_38_173" x="88.8" y="87.7995" width="165.4" height="194.4" filterUnits="userSpaceOnUse" color-interpolation-filters="sRGB">
<feFlood flood-opacity="0" result="BackgroundImageFix"/>
<feColorMatrix in="SourceAlpha" type="matrix" values="0 0 0 0 0 0 0 0 0 0 0 0 0 0 0 0 0 0 127 0" result="hardAlpha"/>
<feOffset dy="4"/>
<feGaussianBlur stdDeviation="8.1"/>
<feComposite in2="hardAlpha" operator="out"/>
<feColorMatrix type="matrix" values="0 0 0 0 0 0 0 0 0 0 0 0 0 0 0 0 0 0 0.11 0"/>
<feBlend mode="normal" in2="BackgroundImageFix" result="effect1_dropShadow_38_173"/>
<feBlend mode="normal" in="SourceGraphic" in2="effect1_dropShadow_38_173" result="shape"/>
</filter>
<pattern id="pattern2" patternContentUnits="objectBoundingBox" width="1" height="1">
<use xlink:href="#image1_38_173" transform="scale(0.0075188 0.00617284)"/>
</pattern>
<filter id="filter1_d_38_173" x="33.2" y="395.2" width="317.6" height="209.6" filterUnits="userSpaceOnUse" color-interpolation-filters="sRGB">
<feFlood flood-opacity="0" result="BackgroundImageFix"/>
<feColorMatrix in="SourceAlpha" type="matrix" values="0 0 0 0 0 0 0 0 0 0 0 0 0 0 0 0 0 0 127 0" result="hardAlpha"/>
<feOffset dy="4"/>
<feGaussianBlur stdDeviation="8.4"/>
<feComposite in2="hardAlpha" operator="out"/>
<feColorMatrix type="matrix" values="0 0 0 0 0.529167 0 0 0 0 0.452421 0 0 0 0 0.1375 0 0 0 1 0"/>
<feBlend mode="normal" in2="BackgroundImageFix" result="effect1_dropShadow_38_173"/>
<feBlend mode="normal" in="SourceGraphic" in2="effect1_dropShadow_38_173" result="shape"/>
</filter>
<pattern id="pattern3" patternContentUnits="objectBoundingBox" width="1" height="1">
<use xlink:href="#image2_38_173" transform="matrix(0.0026371 0 0 0.00425532 -0.00104885 0)"/>
</pattern>
<filter id="filter2_d_38_173" x="115.098" y="659.4" width="198.78" height="46.5601" filterUnits="userSpaceOnUse" color-interpolation-filters="sRGB">
<feFlood flood-opacity="0" result="BackgroundImageFix"/>
<feColorMatrix in="SourceAlpha" type="matrix" values="0 0 0 0 0 0 0 0 0 0 0 0 0 0 0 0 0 0 127 0" result="hardAlpha"/>
<feOffset dy="4"/>
<feGaussianBlur stdDeviation="2"/>
<feComposite in2="hardAlpha" operator="out"/>
<feColorMatrix type="matrix" values="0 0 0 0 0 0 0 0 0 0 0 0 0 0 0 0 0 0 0.02 0"/>
<feBlend mode="normal" in2="BackgroundImageFix" result="effect1_dropShadow_38_173"/>
<feBlend mode="normal" in="SourceGraphic" in2="effect1_dropShadow_38_173" result="shape"/>
</filter>
<pattern id="pattern4" patternContentUnits="objectBoundingBox" width="1" height="1">
<use xlink:href="#image3_38_173" transform="matrix(0.00421941 0 0 0.00437192 0 -0.00495654)"/>
</pattern>
<filter id="filter3_d_38_173" x="114" y="768.4" width="193.957" height="46.5601" filterUnits="userSpaceOnUse" color-interpolation-filters="sRGB">
<feFlood flood-opacity="0" result="BackgroundImageFix"/>
<feColorMatrix in="SourceAlpha" type="matrix" values="0 0 0 0 0 0 0 0 0 0 0 0 0 0 0 0 0 0 127 0" result="hardAlpha"/>
<feOffset dy="4"/>
<feGaussianBlur stdDeviation="2"/>
<feComposite in2="hardAlpha" operator="out"/>
<feColorMatrix type="matrix" values="0 0 0 0 0 0 0 0 0 0 0 0 0 0 0 0 0 0 0.02 0"/>
<feBlend mode="normal" in2="BackgroundImageFix" result="effect1_dropShadow_38_173"/>
<feBlend mode="normal" in="SourceGraphic" in2="effect1_dropShadow_38_173" result="shape"/>
</filter>
<pattern id="pattern5" patternContentUnits="objectBoundingBox" width="1" height="1">
<use xlink:href="#image3_38_173" transform="matrix(0.00421941 0 0 0.00437192 0 -0.00495654)"/>
</pattern>
<filter id="filter4_d_38_173" x="115.44" y="889.166" width="155.665" height="24.7939" filterUnits="userSpaceOnUse" color-interpolation-filters="sRGB">
<feFlood flood-opacity="0" result="BackgroundImageFix"/>
<feColorMatrix in="SourceAlpha" type="matrix" values="0 0 0 0 0 0 0 0 0 0 0 0 0 0 0 0 0 0 127 0" result="hardAlpha"/>
<feOffset dy="4"/>
<feGaussianBlur stdDeviation="2"/>
<feComposite in2="hardAlpha" operator="out"/>
<feColorMatrix type="matrix" values="0 0 0 0 0 0 0 0 0 0 0 0 0 0 0 0 0 0 0.02 0"/>
<feBlend mode="normal" in2="BackgroundImageFix" result="effect1_dropShadow_38_173"/>
<feBlend mode="normal" in="SourceGraphic" in2="effect1_dropShadow_38_173" result="shape"/>
</filter>
<pattern id="pattern6" patternContentUnits="objectBoundingBox" width="1" height="1">
<use xlink:href="#image3_38_173" transform="matrix(0.00421941 0 0 0.00437192 0 -0.00495654)"/>
</pattern>
<pattern id="pattern7" patternContentUnits="objectBoundingBox" width="1" height="1">
<use xlink:href="#image4_38_173" transform="matrix(0.0047619 0 0 0.00497512 0 -0.121891)"/>
</pattern>
<pattern id="pattern8" patternContentUnits="objectBoundingBox" width="1" height="1">
<use xlink:href="#image5_38_173" transform="matrix(0.00384687 0 0 0.00403226 -0.0308676 0)"/>
</pattern>
<pattern id="pattern9" patternContentUnits="objectBoundingBox" width="1" height="1">
<use xlink:href="#image0_38_173" transform="matrix(0.00111111 0 0 0.00102242 0 0.0806376)"/>
</pattern>
<filter id="filter5_d_38_173" x="58.2686" y="1002.27" width="240.359" height="240.359" filterUnits="userSpaceOnUse" color-interpolation-filters="sRGB">
<feFlood flood-opacity="0" result="BackgroundImageFix"/>
<feColorMatrix in="SourceAlpha" type="matrix" values="0 0 0 0 0 0 0 0 0 0 0 0 0 0 0 0 0 0 127 0" result="hardAlpha"/>
<feOffset dy="-19"/>
<feGaussianBlur stdDeviation="14"/>
<feComposite in2="hardAlpha" operator="out"/>
<feColorMatrix type="matrix" values="0 0 0 0 0.874722 0 0 0 0 0.778828 0 0 0 0 0.391944 0 0 0 1 0"/>
<feBlend mode="normal" in2="BackgroundImageFix" result="effect1_dropShadow_38_173"/>
<feBlend mode="normal" in="SourceGraphic" in2="effect1_dropShadow_38_173" result="shape"/>
</filter>
<filter id="filter6_d_38_173" x="85.8" y="1040.8" width="165.4" height="194.4" filterUnits="userSpaceOnUse" color-interpolation-filters="sRGB">
<feFlood flood-opacity="0" result="BackgroundImageFix"/>
<feColorMatrix in="SourceAlpha" type="matrix" values="0 0 0 0 0 0 0 0 0 0 0 0 0 0 0 0 0 0 127 0" result="hardAlpha"/>
<feOffset dy="4"/>
<feGaussianBlur stdDeviation="8.1"/>
<feComposite in2="hardAlpha" operator="out"/>
<feColorMatrix type="matrix" values="0 0 0 0 0 0 0 0 0 0 0 0 0 0 0 0 0 0 0.11 0"/>
<feBlend mode="normal" in2="BackgroundImageFix" result="effect1_dropShadow_38_173"/>
<feBlend mode="normal" in="SourceGraphic" in2="effect1_dropShadow_38_173" result="shape"/>
</filter>
<pattern id="pattern10" patternContentUnits="objectBoundingBox" width="1" height="1">
<use xlink:href="#image6_38_173" transform="matrix(0.00244499 0 0 0.0020073 0 -0.0038335)"/>
</pattern>
<linearGradient id="paint0_linear_38_173" x1="258.576" y1="135.6" x2="131.374" y2="276.833" gradientUnits="userSpaceOnUse">
<stop stop-color="white"/>
<stop offset="1" stop-color="#D0D2E4" stop-opacity="0"/>
</linearGradient>
<linearGradient id="paint1_linear_38_173" x1="258.576" y1="135.6" x2="131.374" y2="276.833" gradientUnits="userSpaceOnUse">
<stop stop-color="white"/>
<stop offset="1" stop-color="white" stop-opacity="0"/>
</linearGradient>
<linearGradient id="paint2_linear_38_173" x1="115.956" y1="161.085" x2="123.472" y2="292.108" gradientUnits="userSpaceOnUse">
<stop stop-color="white"/>
<stop offset="1" stop-color="#D0D2E4" stop-opacity="0"/>
</linearGradient>
<linearGradient id="paint3_linear_38_173" x1="289.305" y1="207.483" x2="123.472" y2="292.108" gradientUnits="userSpaceOnUse">
<stop stop-color="white"/>
<stop offset="1" stop-color="#D0D2E4" stop-opacity="0"/>
</linearGradient>
<linearGradient id="paint4_linear_38_173" x1="170.054" y1="101.991" x2="100.52" y2="332.819" gradientUnits="userSpaceOnUse">
<stop stop-color="white"/>
<stop offset="1" stop-color="white" stop-opacity="0"/>
</linearGradient>
<linearGradient id="paint5_linear_38_173" x1="255.576" y1="1088.6" x2="128.374" y2="1229.83" gradientUnits="userSpaceOnUse">
<stop stop-color="white"/>
<stop offset="1" stop-color="#D0D2E4" stop-opacity="0"/>
</linearGradient>
<linearGradient id="paint6_linear_38_173" x1="255.576" y1="1088.6" x2="128.374" y2="1229.83" gradientUnits="userSpaceOnUse">
<stop stop-color="white"/>
<stop offset="1" stop-color="white" stop-opacity="0"/>
</linearGradient>
<linearGradient id="paint7_linear_38_173" x1="112.959" y1="1114.08" x2="120.474" y2="1245.11" gradientUnits="userSpaceOnUse">
<stop stop-color="white"/>
<stop offset="1" stop-color="white" stop-opacity="0"/>
</linearGradient>
<linearGradient id="paint8_linear_38_173" x1="286.308" y1="1160.48" x2="120.474" y2="1245.11" gradientUnits="userSpaceOnUse">
<stop stop-color="white"/>
<stop offset="1" stop-color="#D0D2E4" stop-opacity="0"/>
</linearGradient>
<linearGradient id="paint9_linear_38_173" x1="328.782" y1="1167.81" x2="97.5207" y2="1285.82" gradientUnits="userSpaceOnUse">
<stop stop-color="white"/>
<stop offset="1" stop-color="white" stop-opacity="0"/>
</linearGradient>
<image id="image0_38_173" width="900" height="730" href="obj_inner-svg-mobile-bubls.png"/>
<image id="image1_38_173" width="133" height="162" href="jeludok1.png"/>
<image id="image2_38_173" width="380" height="235" href="obj_preparat-mobile.png"/>
<image id="image3_38_173" width="237" height="231" href="obj_circle_1.png"/>
<image id="image4_38_173" width="210" height="250" href="obj_circle_2.png"/>
<image id="image5_38_173" width="276" height="248" href="obj_circle_3.png"/>
<image id="image6_38_173" width="409" height="502" href="obj_mobile_jeludok2.png"/>
</defs>
</svg>
