<svg  viewBox="0 0 1744 436" fill="none" xmlns="http://www.w3.org/2000/svg" xmlns:xlink="http://www.w3.org/1999/xlink">
<style>

.tt-o {
  opacity: 0;
  transition-property: opacity;
  transition-timing-function: cubic-bezier(0.4, 0, 0.2, 1);
}

.intersect-media--active .tt-o {
    opacity: 1;
}

.duration-500{
  	transition-duration: 500ms;
}
.delay-\[1800ms\] {
    transition-delay: 1800ms;
}
.delay-\[1300ms\] {
    transition-delay: 1300ms;
}
.delay-\[1100ms\] {
    transition-delay: 1100ms;
}
.delay-\[900ms\] {
    transition-delay: 900ms;
}

.delay-\[600ms\] {
    transition-delay: 600ms;
}
.delay-300{
  transition-delay: 300ms;
}

</style>
<path d="M122.027 40.5529C128.365 20.012 147.352 6.00098 168.848 6.00098L1681.04 6.00098C1712.98 6.00098 1736.38 36.072 1728.54 67.0356L1644.42 399.036C1638.91 420.775 1619.35 436.001 1596.92 436.001H66.4004C33.4164 436.001 9.85309 404.07 19.5788 372.553L122.027 40.5529Z" fill="#F5D861"/>
<rect class="tt-o duration-500 delay-300" width="188.644" height="205.008" transform="matrix(0.809163 -0.587585 -0.587585 -0.809163 334.692 280.831)" fill="url(#pattern0)"/>
<rect class="tt-o duration-500 delay-300" width="207.801" height="225.826" transform="matrix(0.809163 -0.587585 -0.587585 -0.809163 221.692 348.832)" fill="url(#pattern1)"/>
<rect class="tt-o duration-500 delay-[1800ms]" width="194.663" height="211.548" transform="matrix(0.809163 -0.587585 -0.587585 -0.809163 1513.69 297.831)" fill="url(#pattern2)"/>
<path class="tt-o duration-500 delay-[900ms]" d="M821.508 58.2392C824.051 49.787 831.834 44.001 840.66 44.001L1198.46 44.001C1211.45 44.001 1220.99 56.1879 1217.88 68.7971L1200.83 137.797C1198.63 146.727 1190.61 153.001 1181.41 153.001H819.902C806.499 153.001 796.889 140.075 800.75 127.239L821.508 58.2392Z" fill="white"/>
<g class="tt-o duration-500 delay-[900ms]" filter="url(#filter0_d_369_1336)">
<path d="M936.42 89.141V86.101H947V89.141H936.42ZM944.88 81.001H948.26V95.001H944.88V81.001ZM935.48 81.001H938.86V95.001H935.48V81.001ZM960.223 88.401L950.943 95.701L951.043 92.401L960.323 85.101L960.223 88.401ZM953.863 85.801V92.881L950.943 95.701V85.801H953.863ZM960.323 85.101V95.001H957.423V87.921L960.323 85.101ZM966.999 90.401V89.501C967.425 89.501 967.732 89.421 967.919 89.261C968.119 89.0876 968.219 88.8743 968.219 88.621C968.219 88.3676 968.125 88.1676 967.939 88.021C967.752 87.861 967.505 87.781 967.199 87.781C966.972 87.781 966.765 87.8276 966.579 87.921C966.405 88.0143 966.272 88.141 966.179 88.301C966.085 88.461 966.032 88.6476 966.019 88.861H963.279C963.279 88.2076 963.439 87.641 963.759 87.161C964.092 86.6676 964.545 86.2876 965.119 86.021C965.705 85.741 966.392 85.601 967.179 85.601C967.912 85.601 968.565 85.721 969.139 85.961C969.712 86.1876 970.159 86.501 970.479 86.901C970.812 87.2876 970.979 87.7343 970.979 88.241C970.979 88.921 970.652 89.4676 969.999 89.881C969.359 90.281 968.359 90.4543 966.999 90.401ZM967.139 95.201C965.832 95.201 964.799 94.901 964.039 94.301C963.292 93.6876 962.865 92.8743 962.759 91.861H965.619C965.725 92.2476 965.905 92.5476 966.159 92.761C966.412 92.961 966.732 93.061 967.119 93.061C967.412 93.061 967.665 93.021 967.879 92.941C968.092 92.8476 968.259 92.7276 968.379 92.581C968.499 92.421 968.559 92.2276 968.559 92.001C968.559 91.7743 968.499 91.5876 968.379 91.441C968.272 91.281 968.099 91.161 967.859 91.081C967.632 90.9876 967.345 90.941 966.999 90.941V89.801C968.399 89.7343 969.479 89.9343 970.239 90.401C970.999 90.8543 971.379 91.4943 971.379 92.321C971.379 92.8943 971.192 93.401 970.819 93.841C970.459 94.2676 969.959 94.601 969.319 94.841C968.679 95.081 967.952 95.201 967.139 95.201ZM973.441 85.801H976.341V95.001H973.441V85.801ZM979.681 85.801H983.281L979.361 89.601L983.681 95.001H980.141L975.741 89.601L979.681 85.801ZM984.171 90.401C984.171 89.4276 984.398 88.581 984.851 87.861C985.305 87.141 985.931 86.581 986.731 86.181C987.531 85.781 988.431 85.581 989.431 85.581C990.431 85.581 991.325 85.781 992.111 86.181C992.911 86.581 993.538 87.141 993.991 87.861C994.458 88.581 994.691 89.4276 994.691 90.401C994.691 91.361 994.458 92.201 993.991 92.921C993.538 93.641 992.911 94.201 992.111 94.601C991.325 95.001 990.431 95.201 989.431 95.201C988.431 95.201 987.531 95.001 986.731 94.601C985.931 94.201 985.305 93.641 984.851 92.921C984.398 92.201 984.171 91.361 984.171 90.401ZM987.271 90.401C987.271 90.881 987.371 91.2943 987.571 91.641C987.771 91.9743 988.031 92.2343 988.351 92.421C988.671 92.6076 989.031 92.701 989.431 92.701C989.818 92.701 990.171 92.6076 990.491 92.421C990.825 92.2343 991.085 91.9743 991.271 91.641C991.471 91.2943 991.571 90.881 991.571 90.401C991.571 89.921 991.471 89.5076 991.271 89.161C991.085 88.8143 990.825 88.5476 990.491 88.361C990.171 88.1743 989.818 88.081 989.431 88.081C989.031 88.081 988.671 88.1743 988.351 88.361C988.031 88.5476 987.771 88.8143 987.571 89.161C987.371 89.5076 987.271 89.921 987.271 90.401ZM1005.31 95.001L1004.05 88.701L1005.57 85.101L1008.35 95.001H1005.31ZM1001.25 92.381L1005.57 85.101L1005.77 89.161L1001.85 95.621L1001.25 92.381ZM1001.85 95.621L997.989 89.161L998.189 85.101L1002.45 92.381L1001.85 95.621ZM995.409 95.001L998.189 85.101L999.709 88.701L998.449 95.001H995.409ZM1009.09 90.401C1009.09 89.4276 1009.32 88.581 1009.77 87.861C1010.23 87.141 1010.85 86.581 1011.65 86.181C1012.45 85.781 1013.35 85.581 1014.35 85.581C1015.35 85.581 1016.25 85.781 1017.03 86.181C1017.83 86.581 1018.46 87.141 1018.91 87.861C1019.38 88.581 1019.61 89.4276 1019.61 90.401C1019.61 91.361 1019.38 92.201 1018.91 92.921C1018.46 93.641 1017.83 94.201 1017.03 94.601C1016.25 95.001 1015.35 95.201 1014.35 95.201C1013.35 95.201 1012.45 95.001 1011.65 94.601C1010.85 94.201 1010.23 93.641 1009.77 92.921C1009.32 92.201 1009.09 91.361 1009.09 90.401ZM1012.19 90.401C1012.19 90.881 1012.29 91.2943 1012.49 91.641C1012.69 91.9743 1012.95 92.2343 1013.27 92.421C1013.59 92.6076 1013.95 92.701 1014.35 92.701C1014.74 92.701 1015.09 92.6076 1015.41 92.421C1015.75 92.2343 1016.01 91.9743 1016.19 91.641C1016.39 91.2943 1016.49 90.881 1016.49 90.401C1016.49 89.921 1016.39 89.5076 1016.19 89.161C1016.01 88.8143 1015.75 88.5476 1015.41 88.361C1015.09 88.1743 1014.74 88.081 1014.35 88.081C1013.95 88.081 1013.59 88.1743 1013.27 88.361C1012.95 88.5476 1012.69 88.8143 1012.49 89.161C1012.29 89.5076 1012.19 89.921 1012.19 90.401ZM1031.09 85.801V95.001H1028.19V88.541H1024.79V91.801C1024.79 92.521 1024.66 93.121 1024.39 93.601C1024.12 94.0676 1023.67 94.421 1023.03 94.661C1022.4 94.8876 1021.54 95.001 1020.43 95.001V92.301C1020.83 92.301 1021.17 92.2276 1021.45 92.081C1021.74 91.921 1021.89 91.581 1021.89 91.061V85.801H1031.09ZM1035.03 91.041V89.361H1040.23C1040.18 88.9876 1040.08 88.6743 1039.93 88.421C1039.8 88.1676 1039.6 87.9743 1039.35 87.841C1039.11 87.6943 1038.81 87.621 1038.45 87.621C1038.04 87.621 1037.68 87.7143 1037.37 87.901C1037.08 88.0743 1036.84 88.3343 1036.67 88.681C1036.5 89.0143 1036.41 89.4276 1036.41 89.921L1036.37 90.401C1036.37 91.0276 1036.46 91.5343 1036.65 91.921C1036.85 92.3076 1037.11 92.5876 1037.43 92.761C1037.75 92.9343 1038.11 93.021 1038.51 93.021C1038.88 93.021 1039.21 92.9743 1039.49 92.881C1039.78 92.7876 1040.04 92.6543 1040.25 92.481C1040.46 92.2943 1040.64 92.0743 1040.79 91.821L1043.49 92.481C1043.18 93.041 1042.82 93.5276 1042.39 93.941C1041.96 94.341 1041.44 94.6543 1040.81 94.881C1040.2 95.0943 1039.44 95.201 1038.55 95.201C1037.44 95.201 1036.5 94.9943 1035.71 94.581C1034.94 94.1676 1034.34 93.601 1033.93 92.881C1033.53 92.1476 1033.33 91.321 1033.33 90.401C1033.33 90.2276 1033.34 90.061 1033.35 89.901C1033.36 89.741 1033.38 89.581 1033.41 89.421C1033.54 88.661 1033.82 87.9943 1034.23 87.421C1034.66 86.8476 1035.22 86.401 1035.93 86.081C1036.65 85.761 1037.51 85.601 1038.51 85.601C1039.58 85.601 1040.48 85.7876 1041.21 86.161C1041.96 86.5343 1042.52 87.0676 1042.89 87.761C1043.28 88.4543 1043.47 89.2876 1043.47 90.261C1043.47 90.341 1043.47 90.4543 1043.47 90.601C1043.47 90.7343 1043.46 90.881 1043.43 91.041H1035.03ZM1045.36 85.801H1048.26V95.001H1045.36V85.801ZM1051.6 85.801H1055.2L1051.28 89.601L1055.6 95.001H1052.06L1047.66 89.601L1051.6 85.801ZM1066.63 85.801L1060.63 99.401H1057.59L1059.83 94.261L1055.85 85.801H1059.17L1062.15 93.181L1060.59 93.161L1063.53 85.801H1066.63ZM1077.32 85.801V95.001H1074.42V88.541H1071.02V91.801C1071.02 92.521 1070.89 93.121 1070.62 93.601C1070.35 94.0676 1069.9 94.421 1069.26 94.661C1068.63 94.8876 1067.77 95.001 1066.66 95.001V92.301C1067.06 92.301 1067.4 92.2276 1067.68 92.081C1067.97 91.921 1068.12 91.581 1068.12 91.061V85.801H1077.32ZM1082.86 95.001H1079.74L1082.52 90.821H1085.38L1082.86 95.001ZM1089 95.001H1085.98V85.801H1089V95.001ZM1087.02 89.681V91.701H1084.16C1083.54 91.701 1082.93 91.5943 1082.34 91.381C1081.77 91.1676 1081.3 90.841 1080.94 90.401C1080.6 89.9476 1080.42 89.3743 1080.42 88.681C1080.42 87.9743 1080.6 87.4143 1080.94 87.001C1081.3 86.5876 1081.77 86.2876 1082.34 86.101C1082.93 85.901 1083.54 85.801 1084.16 85.801H1087.02V88.201H1084.58C1084.33 88.201 1084.11 88.2276 1083.92 88.281C1083.75 88.321 1083.62 88.3943 1083.52 88.501C1083.43 88.6076 1083.38 88.7543 1083.38 88.941C1083.38 89.1143 1083.43 89.261 1083.52 89.381C1083.62 89.4876 1083.75 89.5676 1083.92 89.621C1084.11 89.661 1084.33 89.681 1084.58 89.681H1087.02ZM1094 99.401H1090.98V85.801H1094V99.401ZM1101.52 90.401C1101.52 91.4676 1101.31 92.3676 1100.88 93.101C1100.47 93.8343 1099.93 94.3876 1099.26 94.761C1098.61 95.1343 1097.9 95.321 1097.14 95.321C1096.34 95.321 1095.65 95.121 1095.06 94.721C1094.49 94.3076 1094.05 93.7343 1093.74 93.001C1093.43 92.2543 1093.28 91.3876 1093.28 90.401C1093.28 89.401 1093.43 88.5343 1093.74 87.801C1094.05 87.0676 1094.49 86.501 1095.06 86.101C1095.65 85.6876 1096.34 85.481 1097.14 85.481C1097.9 85.481 1098.61 85.6676 1099.26 86.041C1099.93 86.4143 1100.47 86.9676 1100.88 87.701C1101.31 88.421 1101.52 89.321 1101.52 90.401ZM1098.34 90.401C1098.34 89.921 1098.24 89.5143 1098.04 89.181C1097.84 88.8476 1097.57 88.5943 1097.24 88.421C1096.91 88.2476 1096.54 88.161 1096.14 88.161C1095.79 88.161 1095.45 88.2476 1095.12 88.421C1094.8 88.581 1094.53 88.8276 1094.32 89.161C1094.11 89.4943 1094 89.9076 1094 90.401C1094 90.8943 1094.11 91.3076 1094.32 91.641C1094.53 91.9743 1094.8 92.2276 1095.12 92.401C1095.45 92.561 1095.79 92.641 1096.14 92.641C1096.54 92.641 1096.91 92.5543 1097.24 92.381C1097.57 92.2076 1097.84 91.9543 1098.04 91.621C1098.24 91.2876 1098.34 90.881 1098.34 90.401ZM1104.28 91.281V89.021H1111.72V91.281H1104.28ZM1110.36 85.801H1113.26V95.001H1110.36V85.801ZM1103.34 85.801H1106.26V95.001H1103.34V85.801ZM1117.99 92.261C1117.99 92.4743 1118.05 92.6543 1118.17 92.801C1118.29 92.9343 1118.45 93.041 1118.65 93.121C1118.85 93.1876 1119.07 93.221 1119.31 93.221C1119.68 93.221 1120.02 93.161 1120.33 93.041C1120.65 92.921 1120.9 92.721 1121.09 92.441C1121.28 92.161 1121.37 91.7743 1121.37 91.281L1121.69 92.401C1121.69 92.9876 1121.54 93.4943 1121.23 93.921C1120.94 94.3343 1120.53 94.6543 1120.01 94.881C1119.5 95.0943 1118.93 95.201 1118.29 95.201C1117.65 95.201 1117.08 95.0943 1116.57 94.881C1116.06 94.6543 1115.66 94.3343 1115.37 93.921C1115.09 93.4943 1114.95 92.981 1114.95 92.381C1114.95 91.7676 1115.11 91.241 1115.43 90.801C1115.76 90.361 1116.23 90.021 1116.83 89.781C1117.43 89.541 1118.13 89.421 1118.93 89.421C1119.4 89.421 1119.84 89.4743 1120.25 89.581C1120.68 89.6743 1121.04 89.801 1121.35 89.961C1121.67 90.1076 1121.9 90.2543 1122.03 90.401V91.821C1121.68 91.5676 1121.32 91.381 1120.95 91.261C1120.59 91.1276 1120.15 91.061 1119.63 91.061C1119.28 91.061 1118.98 91.1143 1118.73 91.221C1118.49 91.3143 1118.3 91.4476 1118.17 91.621C1118.05 91.7943 1117.99 92.0076 1117.99 92.261ZM1116.81 88.641L1115.79 86.601C1116.31 86.3476 1116.93 86.1076 1117.65 85.881C1118.38 85.6543 1119.16 85.541 1119.99 85.541C1120.82 85.541 1121.55 85.661 1122.19 85.901C1122.84 86.1276 1123.35 86.461 1123.71 86.901C1124.08 87.341 1124.27 87.881 1124.27 88.521V95.001H1121.37V89.121C1121.37 88.7343 1121.22 88.4276 1120.93 88.201C1120.65 87.961 1120.26 87.841 1119.75 87.841C1119.31 87.841 1118.89 87.8876 1118.49 87.981C1118.1 88.0743 1117.76 88.1876 1117.47 88.321C1117.18 88.441 1116.96 88.5476 1116.81 88.641ZM1129.29 95.001H1126.17L1128.95 90.821H1131.81L1129.29 95.001ZM1135.43 95.001H1132.41V85.801H1135.43V95.001ZM1133.45 89.681V91.701H1130.59C1129.96 91.701 1129.35 91.5943 1128.77 91.381C1128.19 91.1676 1127.73 90.841 1127.37 90.401C1127.02 89.9476 1126.85 89.3743 1126.85 88.681C1126.85 87.9743 1127.02 87.4143 1127.37 87.001C1127.73 86.5876 1128.19 86.2876 1128.77 86.101C1129.35 85.901 1129.96 85.801 1130.59 85.801H1133.45V88.201H1131.01C1130.75 88.201 1130.53 88.2276 1130.35 88.281C1130.17 88.321 1130.04 88.3943 1129.95 88.501C1129.85 88.6076 1129.81 88.7543 1129.81 88.941C1129.81 89.1143 1129.85 89.261 1129.95 89.381C1130.04 89.4876 1130.17 89.5676 1130.35 89.621C1130.53 89.661 1130.75 89.681 1131.01 89.681H1133.45ZM935.22 109.801H941.12V112.301H938.2V119.001H935.22V109.801ZM951.668 112.401L942.388 119.701L942.488 116.401L951.768 109.101L951.668 112.401ZM945.308 109.801V116.881L942.388 119.701V109.801H945.308ZM951.768 109.101V119.001H948.868V111.921L951.768 109.101ZM956.524 116.261C956.524 116.474 956.584 116.654 956.704 116.801C956.824 116.934 956.984 117.041 957.184 117.121C957.384 117.188 957.604 117.221 957.844 117.221C958.217 117.221 958.557 117.161 958.864 117.041C959.184 116.921 959.437 116.721 959.624 116.441C959.811 116.161 959.904 115.774 959.904 115.281L960.224 116.401C960.224 116.988 960.071 117.494 959.764 117.921C959.471 118.334 959.064 118.654 958.544 118.881C958.037 119.094 957.464 119.201 956.824 119.201C956.184 119.201 955.611 119.094 955.104 118.881C954.597 118.654 954.197 118.334 953.904 117.921C953.624 117.494 953.484 116.981 953.484 116.381C953.484 115.768 953.644 115.241 953.964 114.801C954.297 114.361 954.764 114.021 955.364 113.781C955.964 113.541 956.664 113.421 957.464 113.421C957.931 113.421 958.371 113.474 958.784 113.581C959.211 113.674 959.577 113.801 959.884 113.961C960.204 114.108 960.431 114.254 960.564 114.401V115.821C960.217 115.568 959.857 115.381 959.484 115.261C959.124 115.128 958.684 115.061 958.164 115.061C957.817 115.061 957.517 115.114 957.264 115.221C957.024 115.314 956.837 115.448 956.704 115.621C956.584 115.794 956.524 116.008 956.524 116.261ZM955.344 112.641L954.324 110.601C954.844 110.348 955.464 110.108 956.184 109.881C956.917 109.654 957.697 109.541 958.524 109.541C959.351 109.541 960.084 109.661 960.724 109.901C961.377 110.128 961.884 110.461 962.244 110.901C962.617 111.341 962.804 111.881 962.804 112.521V119.001H959.904V113.121C959.904 112.734 959.757 112.428 959.464 112.201C959.184 111.961 958.791 111.841 958.284 111.841C957.844 111.841 957.424 111.888 957.024 111.981C956.637 112.074 956.297 112.188 956.004 112.321C955.711 112.441 955.491 112.548 955.344 112.641ZM974.743 109.801V119.001H971.843V112.541H968.443V115.801C968.443 116.521 968.309 117.121 968.043 117.601C967.776 118.068 967.323 118.421 966.683 118.661C966.056 118.888 965.189 119.001 964.083 119.001V116.301C964.483 116.301 964.823 116.228 965.103 116.081C965.396 115.921 965.543 115.581 965.543 115.061V109.801H974.743ZM986.944 109.801L980.944 123.401H977.904L980.144 118.261L976.164 109.801H979.484L982.464 117.181L980.904 117.161L983.844 109.801H986.944ZM990.953 123.401H987.933V109.801H990.953V123.401ZM998.473 114.401C998.473 115.468 998.26 116.368 997.833 117.101C997.42 117.834 996.88 118.388 996.213 118.761C995.56 119.134 994.853 119.321 994.093 119.321C993.293 119.321 992.6 119.121 992.013 118.721C991.44 118.308 991 117.734 990.693 117.001C990.387 116.254 990.233 115.388 990.233 114.401C990.233 113.401 990.387 112.534 990.693 111.801C991 111.068 991.44 110.501 992.013 110.101C992.6 109.688 993.293 109.481 994.093 109.481C994.853 109.481 995.56 109.668 996.213 110.041C996.88 110.414 997.42 110.968 997.833 111.701C998.26 112.421 998.473 113.321 998.473 114.401ZM995.293 114.401C995.293 113.921 995.193 113.514 994.993 113.181C994.793 112.848 994.527 112.594 994.193 112.421C993.86 112.248 993.493 112.161 993.093 112.161C992.747 112.161 992.407 112.248 992.073 112.421C991.753 112.581 991.487 112.828 991.273 113.161C991.06 113.494 990.953 113.908 990.953 114.401C990.953 114.894 991.06 115.308 991.273 115.641C991.487 115.974 991.753 116.228 992.073 116.401C992.407 116.561 992.747 116.641 993.093 116.641C993.493 116.641 993.86 116.554 994.193 116.381C994.527 116.208 994.793 115.954 994.993 115.621C995.193 115.288 995.293 114.881 995.293 114.401ZM999.757 114.401C999.757 113.428 999.984 112.581 1000.44 111.861C1000.89 111.141 1001.52 110.581 1002.32 110.181C1003.12 109.781 1004.02 109.581 1005.02 109.581C1006.02 109.581 1006.91 109.781 1007.7 110.181C1008.5 110.581 1009.12 111.141 1009.58 111.861C1010.04 112.581 1010.28 113.428 1010.28 114.401C1010.28 115.361 1010.04 116.201 1009.58 116.921C1009.12 117.641 1008.5 118.201 1007.7 118.601C1006.91 119.001 1006.02 119.201 1005.02 119.201C1004.02 119.201 1003.12 119.001 1002.32 118.601C1001.52 118.201 1000.89 117.641 1000.44 116.921C999.984 116.201 999.757 115.361 999.757 114.401ZM1002.86 114.401C1002.86 114.881 1002.96 115.294 1003.16 115.641C1003.36 115.974 1003.62 116.234 1003.94 116.421C1004.26 116.608 1004.62 116.701 1005.02 116.701C1005.4 116.701 1005.76 116.608 1006.08 116.421C1006.41 116.234 1006.67 115.974 1006.86 115.641C1007.06 115.294 1007.16 114.881 1007.16 114.401C1007.16 113.921 1007.06 113.508 1006.86 113.161C1006.67 112.814 1006.41 112.548 1006.08 112.361C1005.76 112.174 1005.4 112.081 1005.02 112.081C1004.62 112.081 1004.26 112.174 1003.94 112.361C1003.62 112.548 1003.36 112.814 1003.16 113.161C1002.96 113.508 1002.86 113.921 1002.86 114.401ZM1013.01 115.281V113.021H1020.45V115.281H1013.01ZM1019.09 109.801H1021.99V119.001H1019.09V109.801ZM1012.07 109.801H1014.99V119.001H1012.07V109.801ZM1023.84 114.401C1023.84 113.428 1024.07 112.581 1024.52 111.861C1024.97 111.141 1025.6 110.581 1026.4 110.181C1027.2 109.781 1028.1 109.581 1029.1 109.581C1030.1 109.581 1030.99 109.781 1031.78 110.181C1032.58 110.581 1033.21 111.141 1033.66 111.861C1034.13 112.581 1034.36 113.428 1034.36 114.401C1034.36 115.361 1034.13 116.201 1033.66 116.921C1033.21 117.641 1032.58 118.201 1031.78 118.601C1030.99 119.001 1030.1 119.201 1029.1 119.201C1028.1 119.201 1027.2 119.001 1026.4 118.601C1025.6 118.201 1024.97 117.641 1024.52 116.921C1024.07 116.201 1023.84 115.361 1023.84 114.401ZM1026.94 114.401C1026.94 114.881 1027.04 115.294 1027.24 115.641C1027.44 115.974 1027.7 116.234 1028.02 116.421C1028.34 116.608 1028.7 116.701 1029.1 116.701C1029.49 116.701 1029.84 116.608 1030.16 116.421C1030.49 116.234 1030.75 115.974 1030.94 115.641C1031.14 115.294 1031.24 114.881 1031.24 114.401C1031.24 113.921 1031.14 113.508 1030.94 113.161C1030.75 112.814 1030.49 112.548 1030.16 112.361C1029.84 112.174 1029.49 112.081 1029.1 112.081C1028.7 112.081 1028.34 112.174 1028.02 112.361C1027.7 112.548 1027.44 112.814 1027.24 113.161C1027.04 113.508 1026.94 113.921 1026.94 114.401ZM1038.22 114.201H1041.5C1042.14 114.201 1042.71 114.268 1043.22 114.401C1043.72 114.534 1044.12 114.768 1044.42 115.101C1044.71 115.434 1044.86 115.901 1044.86 116.501C1044.86 117.194 1044.62 117.788 1044.16 118.281C1043.7 118.761 1042.95 119.001 1041.9 119.001H1038.22V117.101H1040.88C1041.3 117.101 1041.6 117.008 1041.76 116.821C1041.93 116.621 1042.02 116.408 1042.02 116.181C1042.02 116.061 1042 115.948 1041.96 115.841C1041.92 115.734 1041.85 115.641 1041.76 115.561C1041.68 115.481 1041.56 115.414 1041.42 115.361C1041.27 115.308 1041.09 115.281 1040.88 115.281H1038.22V114.201ZM1038.22 114.601V113.421H1040.68C1040.84 113.421 1040.97 113.401 1041.08 113.361C1041.2 113.308 1041.3 113.241 1041.38 113.161C1041.46 113.081 1041.52 112.988 1041.56 112.881C1041.6 112.774 1041.62 112.668 1041.62 112.561C1041.62 112.321 1041.54 112.121 1041.38 111.961C1041.22 111.788 1040.98 111.701 1040.68 111.701H1038.22V109.801H1041.3C1041.87 109.801 1042.39 109.888 1042.86 110.061C1043.34 110.221 1043.72 110.488 1044.02 110.861C1044.31 111.221 1044.46 111.701 1044.46 112.301C1044.46 112.821 1044.31 113.254 1044.02 113.601C1043.72 113.934 1043.34 114.188 1042.86 114.361C1042.39 114.521 1041.87 114.601 1041.3 114.601H1038.22ZM1036.48 109.801H1039.38V119.001H1036.48V109.801ZM1048.98 116.261C1048.98 116.474 1049.04 116.654 1049.16 116.801C1049.28 116.934 1049.44 117.041 1049.64 117.121C1049.84 117.188 1050.06 117.221 1050.3 117.221C1050.68 117.221 1051.02 117.161 1051.32 117.041C1051.64 116.921 1051.9 116.721 1052.08 116.441C1052.27 116.161 1052.36 115.774 1052.36 115.281L1052.68 116.401C1052.68 116.988 1052.53 117.494 1052.22 117.921C1051.93 118.334 1051.52 118.654 1051 118.881C1050.5 119.094 1049.92 119.201 1049.28 119.201C1048.64 119.201 1048.07 119.094 1047.56 118.881C1047.06 118.654 1046.66 118.334 1046.36 117.921C1046.08 117.494 1045.94 116.981 1045.94 116.381C1045.94 115.768 1046.1 115.241 1046.42 114.801C1046.76 114.361 1047.22 114.021 1047.82 113.781C1048.42 113.541 1049.12 113.421 1049.92 113.421C1050.39 113.421 1050.83 113.474 1051.24 113.581C1051.67 113.674 1052.04 113.801 1052.34 113.961C1052.66 114.108 1052.89 114.254 1053.02 114.401V115.821C1052.68 115.568 1052.32 115.381 1051.94 115.261C1051.58 115.128 1051.14 115.061 1050.62 115.061C1050.28 115.061 1049.98 115.114 1049.72 115.221C1049.48 115.314 1049.3 115.448 1049.16 115.621C1049.04 115.794 1048.98 116.008 1048.98 116.261ZM1047.8 112.641L1046.78 110.601C1047.3 110.348 1047.92 110.108 1048.64 109.881C1049.38 109.654 1050.16 109.541 1050.98 109.541C1051.81 109.541 1052.54 109.661 1053.18 109.901C1053.84 110.128 1054.34 110.461 1054.7 110.901C1055.08 111.341 1055.26 111.881 1055.26 112.521V119.001H1052.36V113.121C1052.36 112.734 1052.22 112.428 1051.92 112.201C1051.64 111.961 1051.25 111.841 1050.74 111.841C1050.3 111.841 1049.88 111.888 1049.48 111.981C1049.1 112.074 1048.76 112.188 1048.46 112.321C1048.17 112.441 1047.95 112.548 1047.8 112.641ZM1060.28 119.001H1057.16L1059.94 114.821H1062.8L1060.28 119.001ZM1066.42 119.001H1063.4V109.801H1066.42V119.001ZM1064.44 113.681V115.701H1061.58C1060.96 115.701 1060.35 115.594 1059.76 115.381C1059.19 115.168 1058.72 114.841 1058.36 114.401C1058.02 113.948 1057.84 113.374 1057.84 112.681C1057.84 111.974 1058.02 111.414 1058.36 111.001C1058.72 110.588 1059.19 110.288 1059.76 110.101C1060.35 109.901 1060.96 109.801 1061.58 109.801H1064.44V112.201H1062C1061.75 112.201 1061.53 112.228 1061.34 112.281C1061.17 112.321 1061.04 112.394 1060.94 112.501C1060.85 112.608 1060.8 112.754 1060.8 112.941C1060.8 113.114 1060.85 113.261 1060.94 113.381C1061.04 113.488 1061.17 113.568 1061.34 113.621C1061.53 113.661 1061.75 113.681 1062 113.681H1064.44ZM1074.4 109.801H1077.3V119.001H1074.4V109.801ZM1080.64 109.801H1084.24L1080.32 113.601L1084.64 119.001H1081.1L1076.7 113.601L1080.64 109.801ZM1095.28 112.401L1086 119.701L1086.1 116.401L1095.38 109.101L1095.28 112.401ZM1088.92 109.801V116.881L1086 119.701V109.801H1088.92ZM1095.38 109.101V119.001H1092.48V111.921L1095.38 109.101ZM1100.34 114.401C1100.34 114.894 1100.44 115.321 1100.66 115.681C1100.87 116.028 1101.16 116.301 1101.54 116.501C1101.92 116.701 1102.34 116.801 1102.78 116.801C1103.15 116.801 1103.5 116.748 1103.84 116.641C1104.18 116.521 1104.5 116.361 1104.78 116.161C1105.07 115.961 1105.31 115.714 1105.5 115.421V118.361C1105.18 118.614 1104.78 118.821 1104.3 118.981C1103.82 119.128 1103.23 119.201 1102.54 119.201C1101.52 119.201 1100.61 119.001 1099.8 118.601C1099 118.201 1098.36 117.641 1097.9 116.921C1097.44 116.201 1097.22 115.361 1097.22 114.401C1097.22 113.428 1097.44 112.588 1097.9 111.881C1098.36 111.161 1099 110.601 1099.8 110.201C1100.61 109.801 1101.52 109.601 1102.54 109.601C1103.23 109.601 1103.82 109.681 1104.3 109.841C1104.78 109.988 1105.18 110.174 1105.5 110.401V113.361C1105.31 113.068 1105.06 112.821 1104.76 112.621C1104.46 112.421 1104.14 112.268 1103.8 112.161C1103.45 112.054 1103.11 112.001 1102.78 112.001C1102.34 112.001 1101.92 112.108 1101.54 112.321C1101.16 112.534 1100.87 112.821 1100.66 113.181C1100.44 113.541 1100.34 113.948 1100.34 114.401ZM1117.36 109.801V119.001H1114.46V112.541H1111.06V115.801C1111.06 116.521 1110.93 117.121 1110.66 117.601C1110.39 118.068 1109.94 118.421 1109.3 118.661C1108.67 118.888 1107.81 119.001 1106.7 119.001V116.301C1107.1 116.301 1107.44 116.228 1107.72 116.081C1108.01 115.921 1108.16 115.581 1108.16 115.061V109.801H1117.36ZM1119.6 114.401C1119.6 113.428 1119.83 112.581 1120.28 111.861C1120.73 111.141 1121.36 110.581 1122.16 110.181C1122.96 109.781 1123.86 109.581 1124.86 109.581C1125.86 109.581 1126.75 109.781 1127.54 110.181C1128.34 110.581 1128.97 111.141 1129.42 111.861C1129.89 112.581 1130.12 113.428 1130.12 114.401C1130.12 115.361 1129.89 116.201 1129.42 116.921C1128.97 117.641 1128.34 118.201 1127.54 118.601C1126.75 119.001 1125.86 119.201 1124.86 119.201C1123.86 119.201 1122.96 119.001 1122.16 118.601C1121.36 118.201 1120.73 117.641 1120.28 116.921C1119.83 116.201 1119.6 115.361 1119.6 114.401ZM1122.7 114.401C1122.7 114.881 1122.8 115.294 1123 115.641C1123.2 115.974 1123.46 116.234 1123.78 116.421C1124.1 116.608 1124.46 116.701 1124.86 116.701C1125.25 116.701 1125.6 116.608 1125.92 116.421C1126.25 116.234 1126.51 115.974 1126.7 115.641C1126.9 115.294 1127 114.881 1127 114.401C1127 113.921 1126.9 113.508 1126.7 113.161C1126.51 112.814 1126.25 112.548 1125.92 112.361C1125.6 112.174 1125.25 112.081 1124.86 112.081C1124.46 112.081 1124.1 112.174 1123.78 112.361C1123.46 112.548 1123.2 112.814 1123 113.161C1122.8 113.508 1122.7 113.921 1122.7 114.401ZM1130.84 109.801H1137.3V112.301H1130.84V109.801ZM1132.62 110.201H1135.52V119.001H1132.62V110.201ZM1140.92 116.261C1140.92 116.474 1140.98 116.654 1141.1 116.801C1141.22 116.934 1141.38 117.041 1141.58 117.121C1141.78 117.188 1142 117.221 1142.24 117.221C1142.61 117.221 1142.95 117.161 1143.26 117.041C1143.58 116.921 1143.83 116.721 1144.02 116.441C1144.21 116.161 1144.3 115.774 1144.3 115.281L1144.62 116.401C1144.62 116.988 1144.47 117.494 1144.16 117.921C1143.87 118.334 1143.46 118.654 1142.94 118.881C1142.43 119.094 1141.86 119.201 1141.22 119.201C1140.58 119.201 1140.01 119.094 1139.5 118.881C1138.99 118.654 1138.59 118.334 1138.3 117.921C1138.02 117.494 1137.88 116.981 1137.88 116.381C1137.88 115.768 1138.04 115.241 1138.36 114.801C1138.69 114.361 1139.16 114.021 1139.76 113.781C1140.36 113.541 1141.06 113.421 1141.86 113.421C1142.33 113.421 1142.77 113.474 1143.18 113.581C1143.61 113.674 1143.97 113.801 1144.28 113.961C1144.6 114.108 1144.83 114.254 1144.96 114.401V115.821C1144.61 115.568 1144.25 115.381 1143.88 115.261C1143.52 115.128 1143.08 115.061 1142.56 115.061C1142.21 115.061 1141.91 115.114 1141.66 115.221C1141.42 115.314 1141.23 115.448 1141.1 115.621C1140.98 115.794 1140.92 116.008 1140.92 116.261ZM1139.74 112.641L1138.72 110.601C1139.24 110.348 1139.86 110.108 1140.58 109.881C1141.31 109.654 1142.09 109.541 1142.92 109.541C1143.75 109.541 1144.48 109.661 1145.12 109.901C1145.77 110.128 1146.28 110.461 1146.64 110.901C1147.01 111.341 1147.2 111.881 1147.2 112.521V119.001H1144.3V113.121C1144.3 112.734 1144.15 112.428 1143.86 112.201C1143.58 111.961 1143.19 111.841 1142.68 111.841C1142.24 111.841 1141.82 111.888 1141.42 111.981C1141.03 112.074 1140.69 112.188 1140.4 112.321C1140.11 112.441 1139.89 112.548 1139.74 112.641Z" fill="#401F1F"/>
</g>
<path class="tt-o duration-500 delay-[1100ms]" d="M821.508 179.239C824.051 170.787 831.834 165.001 840.66 165.001H1198.46C1211.45 165.001 1220.99 177.188 1217.88 189.797L1200.83 258.797C1198.63 267.727 1190.61 274.001 1181.41 274.001H819.902C806.499 274.001 796.889 261.075 800.75 248.239L821.508 179.239Z" fill="white"/>
<path class="tt-o duration-500 delay-[1300ms]" d="M821.508 300.239C824.051 291.787 831.834 286.001 840.66 286.001H1198.46C1211.45 286.001 1220.99 298.188 1217.88 310.797L1200.83 379.797C1198.63 388.727 1190.61 395.001 1181.41 395.001H819.902C806.499 395.001 796.889 382.075 800.75 369.239L821.508 300.239Z" fill="white"/>
<g class="tt-o duration-500 delay-[600ms]" filter="url(#filter1_d_369_1336)">
<rect x="472" y="143.001" width="284" height="176" fill="url(#pattern3)" shape-rendering="crispEdges"/>
</g>
<circle cx="283.448" cy="211.449" r="51.5" transform="rotate(31.5933 283.448 211.449)" stroke="url(#paint0_linear_369_1336)" stroke-width="81.3333"/>
<circle cx="283.448" cy="211.449" r="51.5" transform="rotate(31.5933 283.448 211.449)" stroke="url(#paint1_linear_369_1336)" stroke-width="81.3333"/>
<circle cx="283.902" cy="211.975" r="104.542" transform="rotate(-46.6828 283.902 211.975)" stroke="url(#paint2_linear_369_1336)" stroke-width="6"/>
<circle cx="283.902" cy="211.975" r="104.542" transform="rotate(-46.6828 283.902 211.975)" stroke="url(#paint3_linear_369_1336)" stroke-width="6"/>
<circle cx="284" cy="212.001" r="146.971" transform="rotate(-46.6828 284 212.001)" stroke="url(#paint4_linear_369_1336)" stroke-width="6"/>
<g filter="url(#filter2_d_369_1336)" class="tt-o duration-500 delay-300">
<rect x="207" y="123.001" width="133" height="162" fill="url(#pattern4)" shape-rendering="crispEdges"/>
</g>
<circle class="tt-o duration-500 delay-300 blue-circle blue-circle-1" cx="269" cy="153" r="2.5" fill="#309AD6"/>
<circle class="tt-o duration-500 delay-300 blue-circle blue-circle-2" cx="272" cy="163" r="2.5" fill="#309AD6"/>
<circle class="tt-o duration-500 delay-300 blue-circle blue-circle-3" cx="267.5" cy="163.5" r="2" fill="#309AD6"/>
<circle class="tt-o duration-500 delay-300 blue-circle blue-circle-4" cx="271.5" cy="157.5" r="2" fill="#309AD6"/>
<circle class="tt-o duration-500 delay-300 blue-circle blue-circle-5" cx="268" cy="159" r="2.5" fill="#309AD6"/>
<g filter="url(#filter3_d_369_1336)">
<circle cx="1442.45" cy="211.449" r="51.5" transform="rotate(31.5933 1442.45 211.449)" stroke="url(#paint5_linear_369_1336)" stroke-width="81.3333" shape-rendering="crispEdges"/>
<circle cx="1442.45" cy="211.449" r="51.5" transform="rotate(31.5933 1442.45 211.449)" stroke="url(#paint6_linear_369_1336)" stroke-width="81.3333" shape-rendering="crispEdges"/>
</g>
<circle cx="1442.9" cy="211.975" r="104.542" transform="rotate(-46.6828 1442.9 211.975)" stroke="url(#paint7_linear_369_1336)" stroke-width="6"/>
<circle cx="1442.9" cy="211.975" r="104.542" transform="rotate(-46.6828 1442.9 211.975)" stroke="url(#paint8_linear_369_1336)" stroke-width="6"/>
<circle cx="1443" cy="212.001" r="146.971" transform="rotate(-46.6828 1443 212.001)" stroke="url(#paint9_linear_369_1336)" stroke-width="6"/>
<g class="tt-o duration-500 delay-[1800ms]" filter="url(#filter4_d_369_1336)">
<rect x="1366" y="123.001" width="133" height="162" fill="url(#pattern5)" shape-rendering="crispEdges"/>
</g>

<g class="tt-o duration-500 delay-[1100ms]" filter="url(#filter6_bi_369_1336)">
<circle  cx="877.5" cy="219.501" r="37.5" fill="url(#pattern7)"/>
<circle cx="877.5" cy="219.501" r="33" stroke="white" stroke-opacity="0.35" stroke-width="9"/>
</g>
<rect class="tt-o duration-500 delay-[900ms]" x="829" y="44.001" width="105" height="101" fill="url(#pattern8)"/>
<rect class="tt-o duration-500 delay-[1100ms]" x="833" y="174.001" width="87" height="83" fill="url(#pattern9)"/>
<rect class="tt-o duration-500 delay-[1300ms]" x="829" y="286.001" width="105" height="101" fill="url(#pattern10)"/>
<path class="tt-o duration-500 delay-[1100ms] hook1 hook2" d="M936.42 206.141V203.101H947V206.141H936.42ZM944.88 198.001H948.26V212.001H944.88V198.001ZM935.48 198.001H938.86V212.001H935.48V198.001ZM960.223 205.401L950.943 212.701L951.043 209.401L960.323 202.101L960.223 205.401ZM953.863 202.801V209.881L950.943 212.701V202.801H953.863ZM960.323 202.101V212.001H957.423V204.921L960.323 202.101ZM966.999 207.401V206.501C967.425 206.501 967.732 206.421 967.919 206.261C968.119 206.088 968.219 205.874 968.219 205.621C968.219 205.368 968.125 205.168 967.939 205.021C967.752 204.861 967.505 204.781 967.199 204.781C966.972 204.781 966.765 204.828 966.579 204.921C966.405 205.014 966.272 205.141 966.179 205.301C966.085 205.461 966.032 205.648 966.019 205.861H963.279C963.279 205.208 963.439 204.641 963.759 204.161C964.092 203.668 964.545 203.288 965.119 203.021C965.705 202.741 966.392 202.601 967.179 202.601C967.912 202.601 968.565 202.721 969.139 202.961C969.712 203.188 970.159 203.501 970.479 203.901C970.812 204.288 970.979 204.734 970.979 205.241C970.979 205.921 970.652 206.468 969.999 206.881C969.359 207.281 968.359 207.454 966.999 207.401ZM967.139 212.201C965.832 212.201 964.799 211.901 964.039 211.301C963.292 210.688 962.865 209.874 962.759 208.861H965.619C965.725 209.248 965.905 209.548 966.159 209.761C966.412 209.961 966.732 210.061 967.119 210.061C967.412 210.061 967.665 210.021 967.879 209.941C968.092 209.848 968.259 209.728 968.379 209.581C968.499 209.421 968.559 209.228 968.559 209.001C968.559 208.774 968.499 208.588 968.379 208.441C968.272 208.281 968.099 208.161 967.859 208.081C967.632 207.988 967.345 207.941 966.999 207.941V206.801C968.399 206.734 969.479 206.934 970.239 207.401C970.999 207.854 971.379 208.494 971.379 209.321C971.379 209.894 971.192 210.401 970.819 210.841C970.459 211.268 969.959 211.601 969.319 211.841C968.679 212.081 967.952 212.201 967.139 212.201ZM973.441 202.801H976.341V212.001H973.441V202.801ZM979.681 202.801H983.281L979.361 206.601L983.681 212.001H980.141L975.741 206.601L979.681 202.801ZM984.171 207.401C984.171 206.428 984.398 205.581 984.851 204.861C985.305 204.141 985.931 203.581 986.731 203.181C987.531 202.781 988.431 202.581 989.431 202.581C990.431 202.581 991.325 202.781 992.111 203.181C992.911 203.581 993.538 204.141 993.991 204.861C994.458 205.581 994.691 206.428 994.691 207.401C994.691 208.361 994.458 209.201 993.991 209.921C993.538 210.641 992.911 211.201 992.111 211.601C991.325 212.001 990.431 212.201 989.431 212.201C988.431 212.201 987.531 212.001 986.731 211.601C985.931 211.201 985.305 210.641 984.851 209.921C984.398 209.201 984.171 208.361 984.171 207.401ZM987.271 207.401C987.271 207.881 987.371 208.294 987.571 208.641C987.771 208.974 988.031 209.234 988.351 209.421C988.671 209.608 989.031 209.701 989.431 209.701C989.818 209.701 990.171 209.608 990.491 209.421C990.825 209.234 991.085 208.974 991.271 208.641C991.471 208.294 991.571 207.881 991.571 207.401C991.571 206.921 991.471 206.508 991.271 206.161C991.085 205.814 990.825 205.548 990.491 205.361C990.171 205.174 989.818 205.081 989.431 205.081C989.031 205.081 988.671 205.174 988.351 205.361C988.031 205.548 987.771 205.814 987.571 206.161C987.371 206.508 987.271 206.921 987.271 207.401ZM1005.31 212.001L1004.05 205.701L1005.57 202.101L1008.35 212.001H1005.31ZM1001.25 209.381L1005.57 202.101L1005.77 206.161L1001.85 212.621L1001.25 209.381ZM1001.85 212.621L997.989 206.161L998.189 202.101L1002.45 209.381L1001.85 212.621ZM995.409 212.001L998.189 202.101L999.709 205.701L998.449 212.001H995.409ZM1009.09 207.401C1009.09 206.428 1009.32 205.581 1009.77 204.861C1010.23 204.141 1010.85 203.581 1011.65 203.181C1012.45 202.781 1013.35 202.581 1014.35 202.581C1015.35 202.581 1016.25 202.781 1017.03 203.181C1017.83 203.581 1018.46 204.141 1018.91 204.861C1019.38 205.581 1019.61 206.428 1019.61 207.401C1019.61 208.361 1019.38 209.201 1018.91 209.921C1018.46 210.641 1017.83 211.201 1017.03 211.601C1016.25 212.001 1015.35 212.201 1014.35 212.201C1013.35 212.201 1012.45 212.001 1011.65 211.601C1010.85 211.201 1010.23 210.641 1009.77 209.921C1009.32 209.201 1009.09 208.361 1009.09 207.401ZM1012.19 207.401C1012.19 207.881 1012.29 208.294 1012.49 208.641C1012.69 208.974 1012.95 209.234 1013.27 209.421C1013.59 209.608 1013.95 209.701 1014.35 209.701C1014.74 209.701 1015.09 209.608 1015.41 209.421C1015.75 209.234 1016.01 208.974 1016.19 208.641C1016.39 208.294 1016.49 207.881 1016.49 207.401C1016.49 206.921 1016.39 206.508 1016.19 206.161C1016.01 205.814 1015.75 205.548 1015.41 205.361C1015.09 205.174 1014.74 205.081 1014.35 205.081C1013.95 205.081 1013.59 205.174 1013.27 205.361C1012.95 205.548 1012.69 205.814 1012.49 206.161C1012.29 206.508 1012.19 206.921 1012.19 207.401ZM1031.09 202.801V212.001H1028.19V205.541H1024.79V208.801C1024.79 209.521 1024.66 210.121 1024.39 210.601C1024.12 211.068 1023.67 211.421 1023.03 211.661C1022.4 211.888 1021.54 212.001 1020.43 212.001V209.301C1020.83 209.301 1021.17 209.228 1021.45 209.081C1021.74 208.921 1021.89 208.581 1021.89 208.061V202.801H1031.09ZM1035.03 208.041V206.361H1040.23C1040.18 205.988 1040.08 205.674 1039.93 205.421C1039.8 205.168 1039.6 204.974 1039.35 204.841C1039.11 204.694 1038.81 204.621 1038.45 204.621C1038.04 204.621 1037.68 204.714 1037.37 204.901C1037.08 205.074 1036.84 205.334 1036.67 205.681C1036.5 206.014 1036.41 206.428 1036.41 206.921L1036.37 207.401C1036.37 208.028 1036.46 208.534 1036.65 208.921C1036.85 209.308 1037.11 209.588 1037.43 209.761C1037.75 209.934 1038.11 210.021 1038.51 210.021C1038.88 210.021 1039.21 209.974 1039.49 209.881C1039.78 209.788 1040.04 209.654 1040.25 209.481C1040.46 209.294 1040.64 209.074 1040.79 208.821L1043.49 209.481C1043.18 210.041 1042.82 210.528 1042.39 210.941C1041.96 211.341 1041.44 211.654 1040.81 211.881C1040.2 212.094 1039.44 212.201 1038.55 212.201C1037.44 212.201 1036.5 211.994 1035.71 211.581C1034.94 211.168 1034.34 210.601 1033.93 209.881C1033.53 209.148 1033.33 208.321 1033.33 207.401C1033.33 207.228 1033.34 207.061 1033.35 206.901C1033.36 206.741 1033.38 206.581 1033.41 206.421C1033.54 205.661 1033.82 204.994 1034.23 204.421C1034.66 203.848 1035.22 203.401 1035.93 203.081C1036.65 202.761 1037.51 202.601 1038.51 202.601C1039.58 202.601 1040.48 202.788 1041.21 203.161C1041.96 203.534 1042.52 204.068 1042.89 204.761C1043.28 205.454 1043.47 206.288 1043.47 207.261C1043.47 207.341 1043.47 207.454 1043.47 207.601C1043.47 207.734 1043.46 207.881 1043.43 208.041H1035.03ZM1045.36 202.801H1048.26V212.001H1045.36V202.801ZM1051.6 202.801H1055.2L1051.28 206.601L1055.6 212.001H1052.06L1047.66 206.601L1051.6 202.801ZM1066.63 202.801L1060.63 216.401H1057.59L1059.83 211.261L1055.85 202.801H1059.17L1062.15 210.181L1060.59 210.161L1063.53 202.801H1066.63ZM1077.32 202.801V212.001H1074.42V205.541H1071.02V208.801C1071.02 209.521 1070.89 210.121 1070.62 210.601C1070.35 211.068 1069.9 211.421 1069.26 211.661C1068.63 211.888 1067.77 212.001 1066.66 212.001V209.301C1067.06 209.301 1067.4 209.228 1067.68 209.081C1067.97 208.921 1068.12 208.581 1068.12 208.061V202.801H1077.32ZM1082.86 212.001H1079.74L1082.52 207.821H1085.38L1082.86 212.001ZM1089 212.001H1085.98V202.801H1089V212.001ZM1087.02 206.681V208.701H1084.16C1083.54 208.701 1082.93 208.594 1082.34 208.381C1081.77 208.168 1081.3 207.841 1080.94 207.401C1080.6 206.948 1080.42 206.374 1080.42 205.681C1080.42 204.974 1080.6 204.414 1080.94 204.001C1081.3 203.588 1081.77 203.288 1082.34 203.101C1082.93 202.901 1083.54 202.801 1084.16 202.801H1087.02V205.201H1084.58C1084.33 205.201 1084.11 205.228 1083.92 205.281C1083.75 205.321 1083.62 205.394 1083.52 205.501C1083.43 205.608 1083.38 205.754 1083.38 205.941C1083.38 206.114 1083.43 206.261 1083.52 206.381C1083.62 206.488 1083.75 206.568 1083.92 206.621C1084.11 206.661 1084.33 206.681 1084.58 206.681H1087.02ZM1094 216.401H1090.98V202.801H1094V216.401ZM1101.52 207.401C1101.52 208.468 1101.31 209.368 1100.88 210.101C1100.47 210.834 1099.93 211.388 1099.26 211.761C1098.61 212.134 1097.9 212.321 1097.14 212.321C1096.34 212.321 1095.65 212.121 1095.06 211.721C1094.49 211.308 1094.05 210.734 1093.74 210.001C1093.43 209.254 1093.28 208.388 1093.28 207.401C1093.28 206.401 1093.43 205.534 1093.74 204.801C1094.05 204.068 1094.49 203.501 1095.06 203.101C1095.65 202.688 1096.34 202.481 1097.14 202.481C1097.9 202.481 1098.61 202.668 1099.26 203.041C1099.93 203.414 1100.47 203.968 1100.88 204.701C1101.31 205.421 1101.52 206.321 1101.52 207.401ZM1098.34 207.401C1098.34 206.921 1098.24 206.514 1098.04 206.181C1097.84 205.848 1097.57 205.594 1097.24 205.421C1096.91 205.248 1096.54 205.161 1096.14 205.161C1095.79 205.161 1095.45 205.248 1095.12 205.421C1094.8 205.581 1094.53 205.828 1094.32 206.161C1094.11 206.494 1094 206.908 1094 207.401C1094 207.894 1094.11 208.308 1094.32 208.641C1094.53 208.974 1094.8 209.228 1095.12 209.401C1095.45 209.561 1095.79 209.641 1096.14 209.641C1096.54 209.641 1096.91 209.554 1097.24 209.381C1097.57 209.208 1097.84 208.954 1098.04 208.621C1098.24 208.288 1098.34 207.881 1098.34 207.401ZM1104.28 208.281V206.021H1111.72V208.281H1104.28ZM1110.36 202.801H1113.26V212.001H1110.36V202.801ZM1103.34 202.801H1106.26V212.001H1103.34V202.801ZM1125.51 202.801H1128.55V212.001H1125.51V202.801ZM1115.65 202.801H1118.69V212.001H1115.65V202.801ZM1118.03 207.861V205.901H1120.89C1121.84 205.901 1122.63 206.134 1123.27 206.601C1123.92 207.054 1124.25 207.774 1124.25 208.761C1124.25 209.414 1124.1 209.988 1123.81 210.481C1123.52 210.974 1123.12 211.354 1122.61 211.621C1122.1 211.874 1121.53 212.001 1120.89 212.001H1118.03V209.661H1120.35C1120.58 209.661 1120.76 209.628 1120.91 209.561C1121.07 209.494 1121.19 209.394 1121.27 209.261C1121.36 209.114 1121.41 208.948 1121.41 208.761C1121.41 208.494 1121.32 208.281 1121.13 208.121C1120.96 207.948 1120.7 207.861 1120.35 207.861H1118.03ZM1140.22 205.401L1130.94 212.701L1131.04 209.401L1140.32 202.101L1140.22 205.401ZM1133.86 202.801V209.881L1130.94 212.701V202.801H1133.86ZM1140.32 202.101V212.001H1137.42V204.921L1140.32 202.101ZM1132.5 198.101H1134.48C1134.48 198.328 1134.54 198.534 1134.64 198.721C1134.75 198.894 1134.9 199.034 1135.08 199.141C1135.28 199.234 1135.52 199.281 1135.78 199.281C1136.04 199.281 1136.26 199.234 1136.46 199.141C1136.66 199.034 1136.82 198.894 1136.92 198.721C1137.03 198.534 1137.08 198.328 1137.08 198.101H1139.06C1139.06 198.634 1138.94 199.128 1138.68 199.581C1138.43 200.021 1138.06 200.374 1137.56 200.641C1137.08 200.894 1136.49 201.021 1135.78 201.021C1135.09 201.021 1134.5 200.894 1134 200.641C1133.51 200.374 1133.14 200.021 1132.88 199.581C1132.63 199.128 1132.5 198.634 1132.5 198.101ZM941.08 226.801H944.44L940.92 231.281L944.64 236.001H941.28L939.36 233.321L937.48 236.001H934L937.78 231.281L934.2 226.801H937.68L939.36 229.221L941.08 226.801ZM944.992 231.401C944.992 230.428 945.218 229.581 945.672 228.861C946.125 228.141 946.752 227.581 947.552 227.181C948.352 226.781 949.252 226.581 950.252 226.581C951.252 226.581 952.145 226.781 952.932 227.181C953.732 227.581 954.358 228.141 954.812 228.861C955.278 229.581 955.512 230.428 955.512 231.401C955.512 232.361 955.278 233.201 954.812 233.921C954.358 234.641 953.732 235.201 952.932 235.601C952.145 236.001 951.252 236.201 950.252 236.201C949.252 236.201 948.352 236.001 947.552 235.601C946.752 235.201 946.125 234.641 945.672 233.921C945.218 233.201 944.992 232.361 944.992 231.401ZM948.092 231.401C948.092 231.881 948.192 232.294 948.392 232.641C948.592 232.974 948.852 233.234 949.172 233.421C949.492 233.608 949.852 233.701 950.252 233.701C950.638 233.701 950.992 233.608 951.312 233.421C951.645 233.234 951.905 232.974 952.092 232.641C952.292 232.294 952.392 231.881 952.392 231.401C952.392 230.921 952.292 230.508 952.092 230.161C951.905 229.814 951.645 229.548 951.312 229.361C950.992 229.174 950.638 229.081 950.252 229.081C949.852 229.081 949.492 229.174 949.172 229.361C948.852 229.548 948.592 229.814 948.392 230.161C948.192 230.508 948.092 230.921 948.092 231.401ZM958.249 232.281V230.021H965.689V232.281H958.249ZM964.329 226.801H967.229V236.001H964.329V226.801ZM957.309 226.801H960.229V236.001H957.309V226.801ZM975.434 230.421L973.234 235.401L970.314 234.781L975.434 226.101L980.554 234.781L977.634 235.401L975.434 230.421ZM978.794 236.001H972.174V237.801H969.234V233.641H981.634V237.801H978.794V236.001ZM986.715 240.401H983.695V226.801H986.715V240.401ZM994.235 231.401C994.235 232.468 994.022 233.368 993.595 234.101C993.182 234.834 992.642 235.388 991.975 235.761C991.322 236.134 990.615 236.321 989.855 236.321C989.055 236.321 988.362 236.121 987.775 235.721C987.202 235.308 986.762 234.734 986.455 234.001C986.148 233.254 985.995 232.388 985.995 231.401C985.995 230.401 986.148 229.534 986.455 228.801C986.762 228.068 987.202 227.501 987.775 227.101C988.362 226.688 989.055 226.481 989.855 226.481C990.615 226.481 991.322 226.668 991.975 227.041C992.642 227.414 993.182 227.968 993.595 228.701C994.022 229.421 994.235 230.321 994.235 231.401ZM991.055 231.401C991.055 230.921 990.955 230.514 990.755 230.181C990.555 229.848 990.288 229.594 989.955 229.421C989.622 229.248 989.255 229.161 988.855 229.161C988.508 229.161 988.168 229.248 987.835 229.421C987.515 229.581 987.248 229.828 987.035 230.161C986.822 230.494 986.715 230.908 986.715 231.401C986.715 231.894 986.822 232.308 987.035 232.641C987.248 232.974 987.515 233.228 987.835 233.401C988.168 233.561 988.508 233.641 988.855 233.641C989.255 233.641 989.622 233.554 989.955 233.381C990.288 233.208 990.555 232.954 990.755 232.621C990.955 232.288 991.055 231.881 991.055 231.401ZM995.519 231.401C995.519 230.428 995.746 229.581 996.199 228.861C996.652 228.141 997.279 227.581 998.079 227.181C998.879 226.781 999.779 226.581 1000.78 226.581C1001.78 226.581 1002.67 226.781 1003.46 227.181C1004.26 227.581 1004.89 228.141 1005.34 228.861C1005.81 229.581 1006.04 230.428 1006.04 231.401C1006.04 232.361 1005.81 233.201 1005.34 233.921C1004.89 234.641 1004.26 235.201 1003.46 235.601C1002.67 236.001 1001.78 236.201 1000.78 236.201C999.779 236.201 998.879 236.001 998.079 235.601C997.279 235.201 996.652 234.641 996.199 233.921C995.746 233.201 995.519 232.361 995.519 231.401ZM998.619 231.401C998.619 231.881 998.719 232.294 998.919 232.641C999.119 232.974 999.379 233.234 999.699 233.421C1000.02 233.608 1000.38 233.701 1000.78 233.701C1001.17 233.701 1001.52 233.608 1001.84 233.421C1002.17 233.234 1002.43 232.974 1002.62 232.641C1002.82 232.294 1002.92 231.881 1002.92 231.401C1002.92 230.921 1002.82 230.508 1002.62 230.161C1002.43 229.814 1002.17 229.548 1001.84 229.361C1001.52 229.174 1001.17 229.081 1000.78 229.081C1000.38 229.081 1000.02 229.174 999.699 229.361C999.379 229.548 999.119 229.814 998.919 230.161C998.719 230.508 998.619 230.921 998.619 231.401ZM1017.16 229.401L1007.88 236.701L1007.98 233.401L1017.26 226.101L1017.16 229.401ZM1010.8 226.801V233.881L1007.88 236.701V226.801H1010.8ZM1017.26 226.101V236.001H1014.36V228.921L1017.26 226.101ZM1018.59 226.801H1025.05V229.301H1018.59V226.801ZM1020.37 227.201H1023.27V236.001H1020.37V227.201ZM1035.65 229.401L1026.37 236.701L1026.47 233.401L1035.75 226.101L1035.65 229.401ZM1029.29 226.801V233.881L1026.37 236.701V226.801H1029.29ZM1035.75 226.101V236.001H1032.85V228.921L1035.75 226.101ZM1039.11 232.281V230.021H1046.55V232.281H1039.11ZM1045.19 226.801H1048.09V236.001H1045.19V226.801ZM1038.17 226.801H1041.09V236.001H1038.17V226.801ZM1052.81 233.261C1052.81 233.474 1052.87 233.654 1052.99 233.801C1053.11 233.934 1053.27 234.041 1053.47 234.121C1053.67 234.188 1053.89 234.221 1054.13 234.221C1054.51 234.221 1054.85 234.161 1055.15 234.041C1055.47 233.921 1055.73 233.721 1055.91 233.441C1056.1 233.161 1056.19 232.774 1056.19 232.281L1056.51 233.401C1056.51 233.988 1056.36 234.494 1056.05 234.921C1055.76 235.334 1055.35 235.654 1054.83 235.881C1054.33 236.094 1053.75 236.201 1053.11 236.201C1052.47 236.201 1051.9 236.094 1051.39 235.881C1050.89 235.654 1050.49 235.334 1050.19 234.921C1049.91 234.494 1049.77 233.981 1049.77 233.381C1049.77 232.768 1049.93 232.241 1050.25 231.801C1050.59 231.361 1051.05 231.021 1051.65 230.781C1052.25 230.541 1052.95 230.421 1053.75 230.421C1054.22 230.421 1054.66 230.474 1055.07 230.581C1055.5 230.674 1055.87 230.801 1056.17 230.961C1056.49 231.108 1056.72 231.254 1056.85 231.401V232.821C1056.51 232.568 1056.15 232.381 1055.77 232.261C1055.41 232.128 1054.97 232.061 1054.45 232.061C1054.11 232.061 1053.81 232.114 1053.55 232.221C1053.31 232.314 1053.13 232.448 1052.99 232.621C1052.87 232.794 1052.81 233.008 1052.81 233.261ZM1051.63 229.641L1050.61 227.601C1051.13 227.348 1051.75 227.108 1052.47 226.881C1053.21 226.654 1053.99 226.541 1054.81 226.541C1055.64 226.541 1056.37 226.661 1057.01 226.901C1057.67 227.128 1058.17 227.461 1058.53 227.901C1058.91 228.341 1059.09 228.881 1059.09 229.521V236.001H1056.19V230.121C1056.19 229.734 1056.05 229.428 1055.75 229.201C1055.47 228.961 1055.08 228.841 1054.57 228.841C1054.13 228.841 1053.71 228.888 1053.31 228.981C1052.93 229.074 1052.59 229.188 1052.29 229.321C1052 229.441 1051.78 229.548 1051.63 229.641ZM1069.89 231.401C1069.89 231.894 1069.99 232.321 1070.21 232.681C1070.42 233.028 1070.71 233.301 1071.09 233.501C1071.47 233.701 1071.89 233.801 1072.33 233.801C1072.7 233.801 1073.05 233.748 1073.39 233.641C1073.73 233.521 1074.05 233.361 1074.33 233.161C1074.62 232.961 1074.86 232.714 1075.05 232.421V235.361C1074.73 235.614 1074.33 235.821 1073.85 235.981C1073.37 236.128 1072.78 236.201 1072.09 236.201C1071.07 236.201 1070.16 236.001 1069.35 235.601C1068.55 235.201 1067.91 234.641 1067.45 233.921C1066.99 233.201 1066.77 232.361 1066.77 231.401C1066.77 230.428 1066.99 229.588 1067.45 228.881C1067.91 228.161 1068.55 227.601 1069.35 227.201C1070.16 226.801 1071.07 226.601 1072.09 226.601C1072.78 226.601 1073.37 226.681 1073.85 226.841C1074.33 226.988 1074.73 227.174 1075.05 227.401V230.361C1074.86 230.068 1074.61 229.821 1074.31 229.621C1074.01 229.421 1073.69 229.268 1073.35 229.161C1073 229.054 1072.66 229.001 1072.33 229.001C1071.89 229.001 1071.47 229.108 1071.09 229.321C1070.71 229.534 1070.42 229.821 1070.21 230.181C1069.99 230.541 1069.89 230.948 1069.89 231.401ZM1086.65 226.801L1080.65 240.401H1077.61L1079.85 235.261L1075.87 226.801H1079.19L1082.17 234.181L1080.61 234.161L1083.55 226.801H1086.65ZM1097.34 226.801V236.001H1094.44V229.541H1091.04V232.801C1091.04 233.521 1090.91 234.121 1090.64 234.601C1090.37 235.068 1089.92 235.421 1089.28 235.661C1088.65 235.888 1087.79 236.001 1086.68 236.001V233.301C1087.08 233.301 1087.42 233.228 1087.7 233.081C1087.99 232.921 1088.14 232.581 1088.14 232.061V226.801H1097.34ZM1100.26 226.801H1103.28V236.001H1100.26V226.801ZM1102.62 231.861V229.901H1105.48C1106.43 229.901 1107.22 230.134 1107.86 230.601C1108.51 231.054 1108.84 231.774 1108.84 232.761C1108.84 233.414 1108.69 233.988 1108.4 234.481C1108.11 234.974 1107.71 235.354 1107.2 235.621C1106.69 235.874 1106.12 236.001 1105.48 236.001H1102.62V233.661H1104.94C1105.17 233.661 1105.35 233.628 1105.5 233.561C1105.66 233.494 1105.78 233.394 1105.86 233.261C1105.95 233.114 1106 232.948 1106 232.761C1106 232.494 1105.91 232.281 1105.72 232.121C1105.55 231.948 1105.29 231.861 1104.94 231.861H1102.62ZM1115.08 224.801H1117.92V238.001H1115.08V224.801ZM1110.48 231.401C1110.48 230.428 1110.72 229.581 1111.2 228.861C1111.68 228.141 1112.37 227.581 1113.26 227.181C1114.17 226.781 1115.25 226.581 1116.5 226.581C1117.77 226.581 1118.85 226.781 1119.74 227.181C1120.65 227.581 1121.34 228.141 1121.82 228.861C1122.3 229.581 1122.54 230.428 1122.54 231.401C1122.54 232.361 1122.3 233.201 1121.82 233.921C1121.34 234.641 1120.65 235.201 1119.74 235.601C1118.85 236.001 1117.77 236.201 1116.5 236.201C1115.25 236.201 1114.17 236.001 1113.26 235.601C1112.37 235.201 1111.68 234.641 1111.2 233.921C1110.72 233.201 1110.48 232.361 1110.48 231.401ZM1113.22 231.401C1113.22 231.881 1113.33 232.294 1113.54 232.641C1113.77 232.974 1114.12 233.234 1114.6 233.421C1115.09 233.608 1115.73 233.701 1116.5 233.701C1117.27 233.701 1117.9 233.608 1118.38 233.421C1118.87 233.234 1119.23 232.974 1119.46 232.641C1119.69 232.294 1119.8 231.881 1119.8 231.401C1119.8 230.921 1119.69 230.508 1119.46 230.161C1119.23 229.814 1118.87 229.548 1118.38 229.361C1117.9 229.174 1117.27 229.081 1116.5 229.081C1115.73 229.081 1115.09 229.174 1114.6 229.361C1114.12 229.548 1113.77 229.814 1113.54 230.161C1113.33 230.508 1113.22 230.921 1113.22 231.401ZM1126.7 233.261C1126.7 233.474 1126.76 233.654 1126.88 233.801C1127 233.934 1127.16 234.041 1127.36 234.121C1127.56 234.188 1127.78 234.221 1128.02 234.221C1128.39 234.221 1128.73 234.161 1129.04 234.041C1129.36 233.921 1129.61 233.721 1129.8 233.441C1129.99 233.161 1130.08 232.774 1130.08 232.281L1130.4 233.401C1130.4 233.988 1130.25 234.494 1129.94 234.921C1129.65 235.334 1129.24 235.654 1128.72 235.881C1128.21 236.094 1127.64 236.201 1127 236.201C1126.36 236.201 1125.79 236.094 1125.28 235.881C1124.77 235.654 1124.37 235.334 1124.08 234.921C1123.8 234.494 1123.66 233.981 1123.66 233.381C1123.66 232.768 1123.82 232.241 1124.14 231.801C1124.47 231.361 1124.94 231.021 1125.54 230.781C1126.14 230.541 1126.84 230.421 1127.64 230.421C1128.11 230.421 1128.55 230.474 1128.96 230.581C1129.39 230.674 1129.75 230.801 1130.06 230.961C1130.38 231.108 1130.61 231.254 1130.74 231.401V232.821C1130.39 232.568 1130.03 232.381 1129.66 232.261C1129.3 232.128 1128.86 232.061 1128.34 232.061C1127.99 232.061 1127.69 232.114 1127.44 232.221C1127.2 232.314 1127.01 232.448 1126.88 232.621C1126.76 232.794 1126.7 233.008 1126.7 233.261ZM1125.52 229.641L1124.5 227.601C1125.02 227.348 1125.64 227.108 1126.36 226.881C1127.09 226.654 1127.87 226.541 1128.7 226.541C1129.53 226.541 1130.26 226.661 1130.9 226.901C1131.55 227.128 1132.06 227.461 1132.42 227.901C1132.79 228.341 1132.98 228.881 1132.98 229.521V236.001H1130.08V230.121C1130.08 229.734 1129.93 229.428 1129.64 229.201C1129.36 228.961 1128.97 228.841 1128.46 228.841C1128.02 228.841 1127.6 228.888 1127.2 228.981C1126.81 229.074 1126.47 229.188 1126.18 229.321C1125.89 229.441 1125.67 229.548 1125.52 229.641ZM1134.16 226.801H1140.62V229.301H1134.16V226.801ZM1135.94 227.201H1138.84V236.001H1135.94V227.201Z" fill="#401F1F"/>
<path class="tt-o duration-500 delay-[1300ms] hook1 hook2" d="M944.38 337.021H939.04V348.001H935.6V334.001H947.82V348.001H944.38V337.021ZM950.07 343.401C950.07 342.428 950.296 341.581 950.75 340.861C951.203 340.141 951.83 339.581 952.63 339.181C953.43 338.781 954.33 338.581 955.33 338.581C956.33 338.581 957.223 338.781 958.01 339.181C958.81 339.581 959.436 340.141 959.89 340.861C960.356 341.581 960.59 342.428 960.59 343.401C960.59 344.361 960.356 345.201 959.89 345.921C959.436 346.641 958.81 347.201 958.01 347.601C957.223 348.001 956.33 348.201 955.33 348.201C954.33 348.201 953.43 348.001 952.63 347.601C951.83 347.201 951.203 346.641 950.75 345.921C950.296 345.201 950.07 344.361 950.07 343.401ZM953.17 343.401C953.17 343.881 953.27 344.294 953.47 344.641C953.67 344.974 953.93 345.234 954.25 345.421C954.57 345.608 954.93 345.701 955.33 345.701C955.716 345.701 956.07 345.608 956.39 345.421C956.723 345.234 956.983 344.974 957.17 344.641C957.37 344.294 957.47 343.881 957.47 343.401C957.47 342.921 957.37 342.508 957.17 342.161C956.983 341.814 956.723 341.548 956.39 341.361C956.07 341.174 955.716 341.081 955.33 341.081C954.93 341.081 954.57 341.174 954.25 341.361C953.93 341.548 953.67 341.814 953.47 342.161C953.27 342.508 953.17 342.921 953.17 343.401ZM972.067 338.801V348.001H969.167V341.541H965.767V344.801C965.767 345.521 965.634 346.121 965.367 346.601C965.1 347.068 964.647 347.421 964.007 347.661C963.38 347.888 962.514 348.001 961.407 348.001V345.301C961.807 345.301 962.147 345.228 962.427 345.081C962.72 344.921 962.867 344.581 962.867 344.061V338.801H972.067ZM974.308 343.401C974.308 342.428 974.535 341.581 974.988 340.861C975.441 340.141 976.068 339.581 976.868 339.181C977.668 338.781 978.568 338.581 979.568 338.581C980.568 338.581 981.461 338.781 982.248 339.181C983.048 339.581 983.675 340.141 984.128 340.861C984.595 341.581 984.828 342.428 984.828 343.401C984.828 344.361 984.595 345.201 984.128 345.921C983.675 346.641 983.048 347.201 982.248 347.601C981.461 348.001 980.568 348.201 979.568 348.201C978.568 348.201 977.668 348.001 976.868 347.601C976.068 347.201 975.441 346.641 974.988 345.921C974.535 345.201 974.308 344.361 974.308 343.401ZM977.408 343.401C977.408 343.881 977.508 344.294 977.708 344.641C977.908 344.974 978.168 345.234 978.488 345.421C978.808 345.608 979.168 345.701 979.568 345.701C979.955 345.701 980.308 345.608 980.628 345.421C980.961 345.234 981.221 344.974 981.408 344.641C981.608 344.294 981.708 343.881 981.708 343.401C981.708 342.921 981.608 342.508 981.408 342.161C981.221 341.814 980.961 341.548 980.628 341.361C980.308 341.174 979.955 341.081 979.568 341.081C979.168 341.081 978.808 341.174 978.488 341.361C978.168 341.548 977.908 341.814 977.708 342.161C977.508 342.508 977.408 342.921 977.408 343.401ZM986.605 338.801H989.505V348.001H986.605V338.801ZM992.845 338.801H996.445L992.525 342.601L996.845 348.001H993.305L988.905 342.601L992.845 338.801ZM1000.42 343.401C1000.42 343.894 1000.52 344.321 1000.74 344.681C1000.95 345.028 1001.24 345.301 1001.62 345.501C1002 345.701 1002.42 345.801 1002.86 345.801C1003.23 345.801 1003.58 345.748 1003.92 345.641C1004.26 345.521 1004.58 345.361 1004.86 345.161C1005.15 344.961 1005.39 344.714 1005.58 344.421V347.361C1005.26 347.614 1004.86 347.821 1004.38 347.981C1003.9 348.128 1003.31 348.201 1002.62 348.201C1001.6 348.201 1000.69 348.001 999.875 347.601C999.075 347.201 998.442 346.641 997.975 345.921C997.522 345.201 997.295 344.361 997.295 343.401C997.295 342.428 997.522 341.588 997.975 340.881C998.442 340.161 999.075 339.601 999.875 339.201C1000.69 338.801 1001.6 338.601 1002.62 338.601C1003.31 338.601 1003.9 338.681 1004.38 338.841C1004.86 338.988 1005.26 339.174 1005.58 339.401V342.361C1005.39 342.068 1005.14 341.821 1004.84 341.621C1004.54 341.421 1004.22 341.268 1003.88 341.161C1003.53 341.054 1003.19 341.001 1002.86 341.001C1002.42 341.001 1002 341.108 1001.62 341.321C1001.24 341.534 1000.95 341.821 1000.74 342.181C1000.52 342.541 1000.42 342.948 1000.42 343.401ZM1010.1 345.261C1010.1 345.474 1010.16 345.654 1010.28 345.801C1010.4 345.934 1010.56 346.041 1010.76 346.121C1010.96 346.188 1011.18 346.221 1011.42 346.221C1011.79 346.221 1012.13 346.161 1012.44 346.041C1012.76 345.921 1013.01 345.721 1013.2 345.441C1013.38 345.161 1013.48 344.774 1013.48 344.281L1013.8 345.401C1013.8 345.988 1013.64 346.494 1013.34 346.921C1013.04 347.334 1012.64 347.654 1012.12 347.881C1011.61 348.094 1011.04 348.201 1010.4 348.201C1009.76 348.201 1009.18 348.094 1008.68 347.881C1008.17 347.654 1007.77 347.334 1007.48 346.921C1007.2 346.494 1007.06 345.981 1007.06 345.381C1007.06 344.768 1007.22 344.241 1007.54 343.801C1007.87 343.361 1008.34 343.021 1008.94 342.781C1009.54 342.541 1010.24 342.421 1011.04 342.421C1011.5 342.421 1011.94 342.474 1012.36 342.581C1012.78 342.674 1013.15 342.801 1013.46 342.961C1013.78 343.108 1014 343.254 1014.14 343.401V344.821C1013.79 344.568 1013.43 344.381 1013.06 344.261C1012.7 344.128 1012.26 344.061 1011.74 344.061C1011.39 344.061 1011.09 344.114 1010.84 344.221C1010.6 344.314 1010.41 344.448 1010.28 344.621C1010.16 344.794 1010.1 345.008 1010.1 345.261ZM1008.92 341.641L1007.9 339.601C1008.42 339.348 1009.04 339.108 1009.76 338.881C1010.49 338.654 1011.27 338.541 1012.1 338.541C1012.92 338.541 1013.66 338.661 1014.3 338.901C1014.95 339.128 1015.46 339.461 1015.82 339.901C1016.19 340.341 1016.38 340.881 1016.38 341.521V348.001H1013.48V342.121C1013.48 341.734 1013.33 341.428 1013.04 341.201C1012.76 340.961 1012.36 340.841 1011.86 340.841C1011.42 340.841 1011 340.888 1010.6 340.981C1010.21 341.074 1009.87 341.188 1009.58 341.321C1009.28 341.441 1009.06 341.548 1008.92 341.641ZM1027.46 348.001L1026.2 341.701L1027.72 338.101L1030.5 348.001H1027.46ZM1023.4 345.381L1027.72 338.101L1027.92 342.161L1024 348.621L1023.4 345.381ZM1024 348.621L1020.14 342.161L1020.34 338.101L1024.6 345.381L1024 348.621ZM1017.56 348.001L1020.34 338.101L1021.86 341.701L1020.6 348.001H1017.56ZM1032.94 344.041V342.361H1038.14C1038.09 341.988 1037.99 341.674 1037.84 341.421C1037.71 341.168 1037.51 340.974 1037.26 340.841C1037.02 340.694 1036.72 340.621 1036.36 340.621C1035.95 340.621 1035.59 340.714 1035.28 340.901C1034.99 341.074 1034.75 341.334 1034.58 341.681C1034.41 342.014 1034.32 342.428 1034.32 342.921L1034.28 343.401C1034.28 344.028 1034.37 344.534 1034.56 344.921C1034.76 345.308 1035.02 345.588 1035.34 345.761C1035.66 345.934 1036.02 346.021 1036.42 346.021C1036.79 346.021 1037.12 345.974 1037.4 345.881C1037.69 345.788 1037.95 345.654 1038.16 345.481C1038.37 345.294 1038.55 345.074 1038.7 344.821L1041.4 345.481C1041.09 346.041 1040.73 346.528 1040.3 346.941C1039.87 347.341 1039.35 347.654 1038.72 347.881C1038.11 348.094 1037.35 348.201 1036.46 348.201C1035.35 348.201 1034.41 347.994 1033.62 347.581C1032.85 347.168 1032.25 346.601 1031.84 345.881C1031.44 345.148 1031.24 344.321 1031.24 343.401C1031.24 343.228 1031.25 343.061 1031.26 342.901C1031.27 342.741 1031.29 342.581 1031.32 342.421C1031.45 341.661 1031.73 340.994 1032.14 340.421C1032.57 339.848 1033.13 339.401 1033.84 339.081C1034.56 338.761 1035.42 338.601 1036.42 338.601C1037.49 338.601 1038.39 338.788 1039.12 339.161C1039.87 339.534 1040.43 340.068 1040.8 340.761C1041.19 341.454 1041.38 342.288 1041.38 343.261C1041.38 343.341 1041.38 343.454 1041.38 343.601C1041.38 343.734 1041.37 343.881 1041.34 344.041H1032.94ZM1046.29 352.401H1043.27V338.801H1046.29V352.401ZM1053.81 343.401C1053.81 344.468 1053.59 345.368 1053.17 346.101C1052.75 346.834 1052.21 347.388 1051.55 347.761C1050.89 348.134 1050.19 348.321 1049.43 348.321C1048.63 348.321 1047.93 348.121 1047.35 347.721C1046.77 347.308 1046.33 346.734 1046.03 346.001C1045.72 345.254 1045.57 344.388 1045.57 343.401C1045.57 342.401 1045.72 341.534 1046.03 340.801C1046.33 340.068 1046.77 339.501 1047.35 339.101C1047.93 338.688 1048.63 338.481 1049.43 338.481C1050.19 338.481 1050.89 338.668 1051.55 339.041C1052.21 339.414 1052.75 339.968 1053.17 340.701C1053.59 341.421 1053.81 342.321 1053.81 343.401ZM1050.63 343.401C1050.63 342.921 1050.53 342.514 1050.33 342.181C1050.13 341.848 1049.86 341.594 1049.53 341.421C1049.19 341.248 1048.83 341.161 1048.43 341.161C1048.08 341.161 1047.74 341.248 1047.41 341.421C1047.09 341.581 1046.82 341.828 1046.61 342.161C1046.39 342.494 1046.29 342.908 1046.29 343.401C1046.29 343.894 1046.39 344.308 1046.61 344.641C1046.82 344.974 1047.09 345.228 1047.41 345.401C1047.74 345.561 1048.08 345.641 1048.43 345.641C1048.83 345.641 1049.19 345.554 1049.53 345.381C1049.86 345.208 1050.13 344.954 1050.33 344.621C1050.53 344.288 1050.63 343.881 1050.63 343.401ZM1060.73 345.521L1068.85 334.001H1071.37V348.001H1067.85V344.481L1068.23 344.261V338.901L1065.21 343.081H1070.37L1070.71 342.641H1073.57V345.521H1060.73ZM1078.47 341.001C1078.47 341.654 1078.53 342.254 1078.65 342.801C1078.77 343.334 1078.94 343.794 1079.17 344.181C1079.4 344.554 1079.66 344.848 1079.97 345.061C1080.29 345.261 1080.64 345.361 1081.03 345.361C1081.42 345.361 1081.76 345.261 1082.07 345.061C1082.39 344.848 1082.66 344.554 1082.89 344.181C1083.12 343.794 1083.29 343.334 1083.41 342.801C1083.53 342.254 1083.59 341.654 1083.59 341.001C1083.59 340.348 1083.53 339.754 1083.41 339.221C1083.29 338.674 1083.12 338.214 1082.89 337.841C1082.66 337.454 1082.39 337.161 1082.07 336.961C1081.76 336.748 1081.42 336.641 1081.03 336.641C1080.64 336.641 1080.29 336.748 1079.97 336.961C1079.66 337.161 1079.4 337.454 1079.17 337.841C1078.94 338.214 1078.77 338.674 1078.65 339.221C1078.53 339.754 1078.47 340.348 1078.47 341.001ZM1075.21 341.001C1075.21 339.481 1075.45 338.181 1075.93 337.101C1076.42 336.021 1077.11 335.194 1077.99 334.621C1078.87 334.034 1079.88 333.741 1081.03 333.741C1082.22 333.741 1083.24 334.034 1084.11 334.621C1084.99 335.194 1085.66 336.021 1086.13 337.101C1086.61 338.181 1086.85 339.481 1086.85 341.001C1086.85 342.521 1086.61 343.821 1086.13 344.901C1085.66 345.981 1084.99 346.814 1084.11 347.401C1083.24 347.974 1082.22 348.261 1081.03 348.261C1079.88 348.261 1078.87 347.974 1077.99 347.401C1077.11 346.814 1076.42 345.981 1075.93 344.901C1075.45 343.821 1075.21 342.521 1075.21 341.001ZM1088.25 337.161V334.001H1099.67L1092.91 348.001H1089.25L1094.71 337.161H1088.25Z" fill="#401F1F"/>
<path d="M420.5 159.501L456.108 175.993C463.386 179.364 468.108 186.585 468.278 194.604L470.5 299.501V299.501C470.5 304.582 474.407 308.808 479.472 309.206L699.833 326.517C703.859 326.833 707.89 325.982 711.445 324.065L757 299.501M757 299.501L813.5 355.001M757 299.501C764.667 271.334 780.8 214.601 784 213.001M784 213.001C787.2 211.401 815 212.334 828.5 213.001M784 213.001V128.022C784 122.262 786.366 116.756 790.543 112.791L813.5 91.001" stroke="url(#paint10_linear_369_1336)" stroke-width="6" stroke-linecap="round"/>
<path d="M1358.5 276.001L1323.11 319.735C1317.86 326.226 1308.67 327.942 1301.43 323.783L1266.12 303.501M1266.12 303.501L1199 364.501M1266.12 303.501C1258.92 275.334 1243.78 218.601 1240.77 217.001M1240.77 217.001C1237.77 215.401 1211.67 216.334 1199 217.001M1240.77 217.001V129.988C1240.77 125.512 1239.01 121.216 1235.86 118.033L1213.08 95.001" stroke="url(#paint11_linear_369_1336)" stroke-width="6" stroke-linecap="round"/>
<circle class="tt-o duration-500 delay-300" cx="174" cy="281.001" r="31" fill="white" stroke="white" stroke-width="4"/>
<circle class="tt-o duration-500 delay-[600ms]" cx="496" cy="281.001" r="31" fill="white" stroke="white" stroke-width="4"/>
<circle class="tt-o duration-500 delay-[1800ms]" cx="1345" cy="281.001" r="31" fill="white" stroke="white" stroke-width="4"/>
<path class="tt-o duration-500 delay-300" d="M164.924 275.587V269.266L179.372 266.342V297.001H172.363V273.738L164.924 275.587Z" fill="#401F1F"/>
<path class="tt-o duration-500 delay-[600ms]" d="M482.86 297.001L496.276 283.112C497.079 282.223 497.767 281.421 498.34 280.704C498.942 279.987 499.386 279.285 499.673 278.597C499.988 277.88 500.146 277.121 500.146 276.318C500.146 275.859 500.06 275.401 499.888 274.942C499.716 274.483 499.458 274.082 499.114 273.738C498.77 273.365 498.34 273.079 497.824 272.878C497.308 272.649 496.706 272.534 496.018 272.534C495.101 272.534 494.284 272.763 493.567 273.222C492.879 273.681 492.349 274.326 491.976 275.157C491.632 275.988 491.46 276.949 491.46 278.038H484.322C484.322 275.888 484.766 273.924 485.655 272.147C486.544 270.37 487.877 268.951 489.654 267.89C491.46 266.829 493.653 266.299 496.233 266.299C498.096 266.299 499.745 266.586 501.178 267.159C502.611 267.704 503.801 268.449 504.747 269.395C505.722 270.312 506.453 271.33 506.94 272.448C507.427 273.566 507.671 274.698 507.671 275.845C507.671 277.479 507.27 278.984 506.467 280.36C505.664 281.707 504.618 282.94 503.328 284.058L496.319 290.336H508.359V297.001H482.86Z" fill="#401F1F"/>
<path class="tt-o duration-500 delay-[1800ms]" d="M1342.83 282.424V279.156C1343.66 279.156 1344.4 279.056 1345.06 278.855C1345.75 278.626 1346.34 278.325 1346.82 277.952C1347.34 277.579 1347.73 277.149 1347.99 276.662C1348.24 276.175 1348.37 275.659 1348.37 275.114C1348.37 274.541 1348.24 274.025 1347.99 273.566C1347.73 273.107 1347.35 272.763 1346.87 272.534C1346.38 272.276 1345.75 272.147 1344.98 272.147C1343.83 272.147 1342.88 272.477 1342.14 273.136C1341.39 273.795 1341.02 274.655 1341.02 275.716H1334.35C1334.35 273.939 1334.78 272.348 1335.64 270.943C1336.53 269.51 1337.78 268.392 1339.39 267.589C1340.99 266.758 1342.85 266.342 1344.98 266.342C1347.24 266.342 1349.16 266.715 1350.74 267.46C1352.31 268.205 1353.5 269.209 1354.31 270.47C1355.14 271.731 1355.55 273.136 1355.55 274.684C1355.55 276.404 1354.98 277.837 1353.83 278.984C1352.72 280.131 1351.2 280.991 1349.28 281.564C1347.35 282.137 1345.2 282.424 1342.83 282.424ZM1344.63 297.689C1342.83 297.689 1341.21 297.417 1339.77 296.872C1338.34 296.327 1337.12 295.568 1336.12 294.593C1335.14 293.618 1334.38 292.515 1333.84 291.282C1333.32 290.049 1333.06 288.774 1333.06 287.455H1340.2C1340.2 288.43 1340.42 289.247 1340.85 289.906C1341.28 290.565 1341.85 291.053 1342.57 291.368C1343.31 291.683 1344.09 291.841 1344.89 291.841C1345.75 291.841 1346.49 291.712 1347.13 291.454C1347.78 291.196 1348.3 290.78 1348.67 290.207C1349.05 289.634 1349.23 288.931 1349.23 288.1C1349.23 287.469 1349.1 286.896 1348.85 286.38C1348.59 285.864 1348.19 285.42 1347.64 285.047C1347.13 284.646 1346.47 284.345 1345.66 284.144C1344.86 283.943 1343.91 283.843 1342.83 283.843V280.145C1344.8 280.145 1346.61 280.317 1348.24 280.661C1349.91 280.976 1351.35 281.492 1352.59 282.209C1353.82 282.897 1354.76 283.786 1355.42 284.875C1356.08 285.964 1356.41 287.269 1356.41 288.788C1356.41 290.537 1355.94 292.085 1354.99 293.432C1354.05 294.751 1352.7 295.797 1350.95 296.571C1349.2 297.316 1347.1 297.689 1344.63 297.689Z" fill="#401F1F"/>
<defs>
<pattern id="pattern0" patternContentUnits="objectBoundingBox" width="1" height="1">
<use xlink:href="#image0_369_1336" transform="matrix(0.00111111 0 0 0.00102242 0 0.0806376)"/>
</pattern>
<pattern id="pattern1" patternContentUnits="objectBoundingBox" width="1" height="1">
<use xlink:href="#image0_369_1336" transform="matrix(0.00111111 0 0 0.00102242 0 0.0806376)"/>
</pattern>
<pattern id="pattern2" patternContentUnits="objectBoundingBox" width="1" height="1">
<use xlink:href="#image0_369_1336" transform="matrix(0.00111111 0 0 0.00102242 0 0.0806376)"/>
</pattern>
<filter id="filter0_d_369_1336" x="931.22" y="81.001" width="219.979" height="50.3999" filterUnits="userSpaceOnUse" color-interpolation-filters="sRGB">
<feFlood flood-opacity="0" result="BackgroundImageFix"/>
<feColorMatrix in="SourceAlpha" type="matrix" values="0 0 0 0 0 0 0 0 0 0 0 0 0 0 0 0 0 0 127 0" result="hardAlpha"/>
<feOffset dy="4"/>
<feGaussianBlur stdDeviation="2"/>
<feComposite in2="hardAlpha" operator="out"/>
<feColorMatrix type="matrix" values="0 0 0 0 0 0 0 0 0 0 0 0 0 0 0 0 0 0 0.02 0"/>
<feBlend mode="normal" in2="BackgroundImageFix" result="effect1_dropShadow_369_1336"/>
<feBlend mode="normal" in="SourceGraphic" in2="effect1_dropShadow_369_1336" result="shape"/>
</filter>
<filter id="filter1_d_369_1336" x="455.2" y="130.201" width="317.6" height="209.6" filterUnits="userSpaceOnUse" color-interpolation-filters="sRGB">
<feFlood flood-opacity="0" result="BackgroundImageFix"/>
<feColorMatrix in="SourceAlpha" type="matrix" values="0 0 0 0 0 0 0 0 0 0 0 0 0 0 0 0 0 0 127 0" result="hardAlpha"/>
<feOffset dy="4"/>
<feGaussianBlur stdDeviation="8.4"/>
<feComposite in2="hardAlpha" operator="out"/>
<feColorMatrix type="matrix" values="0 0 0 0 0.529167 0 0 0 0 0.452421 0 0 0 0 0.1375 0 0 0 1 0"/>
<feBlend mode="normal" in2="BackgroundImageFix" result="effect1_dropShadow_369_1336"/>
<feBlend mode="normal" in="SourceGraphic" in2="effect1_dropShadow_369_1336" result="shape"/>
</filter>
<pattern id="pattern3" patternContentUnits="objectBoundingBox" width="1" height="1">
<use xlink:href="#image1_369_1336" transform="matrix(0.0026371 0 0 0.00425532 -0.00104885 0)"/>
</pattern>
<filter id="filter2_d_369_1336" x="190.8" y="110.801" width="165.4" height="194.4" filterUnits="userSpaceOnUse" color-interpolation-filters="sRGB">
<feFlood flood-opacity="0" result="BackgroundImageFix"/>
<feColorMatrix in="SourceAlpha" type="matrix" values="0 0 0 0 0 0 0 0 0 0 0 0 0 0 0 0 0 0 127 0" result="hardAlpha"/>
<feOffset dy="4"/>
<feGaussianBlur stdDeviation="8.1"/>
<feComposite in2="hardAlpha" operator="out"/>
<feColorMatrix type="matrix" values="0 0 0 0 0 0 0 0 0 0 0 0 0 0 0 0 0 0 0.11 0"/>
<feBlend mode="normal" in2="BackgroundImageFix" result="effect1_dropShadow_369_1336"/>
<feBlend mode="normal" in="SourceGraphic" in2="effect1_dropShadow_369_1336" result="shape"/>
</filter>
<pattern id="pattern4" patternContentUnits="objectBoundingBox" width="1" height="1">
<use xlink:href="#image2_369_1336" transform="scale(0.0075188 0.00617284)"/>
</pattern>
<filter id="filter3_d_369_1336" x="1322.27" y="72.269" width="240.359" height="240.359" filterUnits="userSpaceOnUse" color-interpolation-filters="sRGB">
<feFlood flood-opacity="0" result="BackgroundImageFix"/>
<feColorMatrix in="SourceAlpha" type="matrix" values="0 0 0 0 0 0 0 0 0 0 0 0 0 0 0 0 0 0 127 0" result="hardAlpha"/>
<feOffset dy="-19"/>
<feGaussianBlur stdDeviation="14"/>
<feComposite in2="hardAlpha" operator="out"/>
<feColorMatrix type="matrix" values="0 0 0 0 0.874722 0 0 0 0 0.778828 0 0 0 0 0.391944 0 0 0 1 0"/>
<feBlend mode="normal" in2="BackgroundImageFix" result="effect1_dropShadow_369_1336"/>
<feBlend mode="normal" in="SourceGraphic" in2="effect1_dropShadow_369_1336" result="shape"/>
</filter>
<filter id="filter4_d_369_1336" x="1349.8" y="110.801" width="165.4" height="194.4" filterUnits="userSpaceOnUse" color-interpolation-filters="sRGB">
<feFlood flood-opacity="0" result="BackgroundImageFix"/>
<feColorMatrix in="SourceAlpha" type="matrix" values="0 0 0 0 0 0 0 0 0 0 0 0 0 0 0 0 0 0 127 0" result="hardAlpha"/>
<feOffset dy="4"/>
<feGaussianBlur stdDeviation="8.1"/>
<feComposite in2="hardAlpha" operator="out"/>
<feColorMatrix type="matrix" values="0 0 0 0 0 0 0 0 0 0 0 0 0 0 0 0 0 0 0.11 0"/>
<feBlend mode="normal" in2="BackgroundImageFix" result="effect1_dropShadow_369_1336"/>
<feBlend mode="normal" in="SourceGraphic" in2="effect1_dropShadow_369_1336" result="shape"/>
</filter>
<pattern id="pattern5" patternContentUnits="objectBoundingBox" width="1" height="1">
<use xlink:href="#image3_369_1336" transform="matrix(0.00244499 0 0 0.0020073 0 -0.0038335)"/>
</pattern>

<pattern id="pattern6" patternContentUnits="objectBoundingBox" width="1" height="1">
<use xlink:href="#image4_369_1336" transform="translate(0 -0.25) scale(0.001)"/>
</pattern>
<filter id="filter6_bi_369_1336" x="836" y="178.001" width="83" height="83" filterUnits="userSpaceOnUse" color-interpolation-filters="sRGB">
<feFlood flood-opacity="0" result="BackgroundImageFix"/>
<feGaussianBlur in="BackgroundImageFix" stdDeviation="2"/>
<feComposite in2="SourceAlpha" operator="in" result="effect1_backgroundBlur_369_1336"/>
<feBlend mode="normal" in="SourceGraphic" in2="effect1_backgroundBlur_369_1336" result="shape"/>
<feColorMatrix in="SourceAlpha" type="matrix" values="0 0 0 0 0 0 0 0 0 0 0 0 0 0 0 0 0 0 127 0" result="hardAlpha"/>
<feOffset dy="4"/>
<feGaussianBlur stdDeviation="2"/>
<feComposite in2="hardAlpha" operator="arithmetic" k2="-1" k3="1"/>
<feColorMatrix type="matrix" values="0 0 0 0 0 0 0 0 0 0 0 0 0 0 0 0 0 0 0.1 0"/>
<feBlend mode="normal" in2="shape" result="effect2_innerShadow_369_1336"/>
</filter>
<pattern id="pattern7" patternContentUnits="objectBoundingBox" width="1" height="1">
<use xlink:href="#image4_369_1336" transform="translate(0 -0.25) scale(0.001)"/>
</pattern>
<pattern id="pattern8" patternContentUnits="objectBoundingBox" width="1" height="1">
<use xlink:href="#image5_369_1336" transform="matrix(0.00421941 0 0 0.00438651 0 -0.00664244)"/>
</pattern>
<pattern id="pattern9" patternContentUnits="objectBoundingBox" width="1" height="1">
<use xlink:href="#image6_369_1336" transform="matrix(0.0047619 0 0 0.00499139 0 -0.123924)"/>
</pattern>
<pattern id="pattern10" patternContentUnits="objectBoundingBox" width="1" height="1">
<use xlink:href="#image7_369_1336" transform="matrix(0.00387865 0 0 0.00403226 -0.0352535 0)"/>
</pattern>
<linearGradient id="paint0_linear_369_1336" x1="360.576" y1="158.602" x2="233.374" y2="299.834" gradientUnits="userSpaceOnUse">
<stop stop-color="white"/>
<stop offset="1" stop-color="#D0D2E4" stop-opacity="0"/>
</linearGradient>
<linearGradient id="paint1_linear_369_1336" x1="360.576" y1="158.602" x2="233.374" y2="299.834" gradientUnits="userSpaceOnUse">
<stop stop-color="white"/>
<stop offset="1" stop-color="white" stop-opacity="0"/>
</linearGradient>
<linearGradient id="paint2_linear_369_1336" x1="217.959" y1="184.083" x2="225.474" y2="315.105" gradientUnits="userSpaceOnUse">
<stop stop-color="white"/>
<stop offset="1" stop-color="#D0D2E4" stop-opacity="0"/>
</linearGradient>
<linearGradient id="paint3_linear_369_1336" x1="391.308" y1="230.48" x2="225.474" y2="315.105" gradientUnits="userSpaceOnUse">
<stop stop-color="white"/>
<stop offset="1" stop-color="#D0D2E4" stop-opacity="0"/>
</linearGradient>
<linearGradient id="paint4_linear_369_1336" x1="272.054" y1="124.992" x2="202.521" y2="355.82" gradientUnits="userSpaceOnUse">
<stop stop-color="white"/>
<stop offset="1" stop-color="#D0D2E4" stop-opacity="0"/>
</linearGradient>
<linearGradient id="paint5_linear_369_1336" x1="1519.58" y1="158.602" x2="1392.37" y2="299.834" gradientUnits="userSpaceOnUse">
<stop stop-color="white"/>
<stop offset="1" stop-color="#D0D2E4" stop-opacity="0"/>
</linearGradient>
<linearGradient id="paint6_linear_369_1336" x1="1519.58" y1="158.602" x2="1392.37" y2="299.834" gradientUnits="userSpaceOnUse">
<stop stop-color="white"/>
<stop offset="1" stop-color="white" stop-opacity="0"/>
</linearGradient>
<linearGradient id="paint7_linear_369_1336" x1="1376.96" y1="184.083" x2="1384.47" y2="315.105" gradientUnits="userSpaceOnUse">
<stop stop-color="white"/>
<stop offset="1" stop-color="#D0D2E4" stop-opacity="0"/>
</linearGradient>
<linearGradient id="paint8_linear_369_1336" x1="1550.31" y1="230.48" x2="1384.47" y2="315.105" gradientUnits="userSpaceOnUse">
<stop stop-color="white"/>
<stop offset="1" stop-color="#D0D2E4" stop-opacity="0"/>
</linearGradient>
<linearGradient id="paint9_linear_369_1336" x1="1592.78" y1="237.807" x2="1361.52" y2="355.82" gradientUnits="userSpaceOnUse">
<stop stop-color="white"/>
<stop offset="1" stop-color="#D0D2E4" stop-opacity="0"/>
</linearGradient>
<linearGradient id="paint10_linear_369_1336" x1="772.5" y1="298.001" x2="143.01" y2="347.882" gradientUnits="userSpaceOnUse">
<stop stop-color="white"/>
<stop offset="1" stop-color="white" stop-opacity="0"/>
</linearGradient>
<linearGradient id="paint11_linear_369_1336" x1="1251.57" y1="302.001" x2="1842.93" y2="345.989" gradientUnits="userSpaceOnUse">
<stop stop-color="white"/>
<stop offset="1" stop-color="white" stop-opacity="0"/>
</linearGradient>
<image id="image0_369_1336" width="900" height="730" href="svg-inner-bubles.png"/>
<image id="image1_369_1336" width="380" height="235" href="preps-inner.png"/>
<image id="image2_369_1336" width="133" height="162" href="jeludok.png"/>
<image id="image3_369_1336" width="409" height="502" href="jeludok2.png"/>
<image id="image5_369_1336" width="237" height="231" href="svg-inner-circle-1.png"/>
<image id="image6_369_1336" width="210" height="250" href="svg-inner-circle-2.png"/>
<image id="image7_369_1336" width="276" height="248" href="svg-inner-circle-3.png"/>
</defs>
</svg>
