<svg width="46" height="46" viewBox="0 0 46 46" fill="none" xmlns="http://www.w3.org/2000/svg">
<circle cx="23.0005" cy="23" r="5.75" stroke="#513951" stroke-width="3"/>
<path d="M27.792 13.4163L30.667 9.58301" stroke="#513951" stroke-width="3" stroke-linecap="round"/>
<path d="M36.4172 13.4167L38.3339 11.5" stroke="#513951" stroke-width="3" stroke-linecap="round"/>
<path d="M23.0005 9.58366L21.0838 7.66699" stroke="#513951" stroke-width="3" stroke-linecap="round"/>
<path d="M20.1256 13.4163L17.5074 14.1179" stroke="#513951" stroke-width="3" stroke-linecap="round"/>
<path d="M13.417 9.58366L11.5003 7.66699" stroke="#513951" stroke-width="3" stroke-linecap="round"/>
<path d="M13.0194 17.5261L11.8977 15.0585" stroke="#513951" stroke-width="3" stroke-linecap="round"/>
<path d="M23.959 42.1663L24.0276 43.6648C24.5811 43.6394 25.0754 43.3111 25.3135 42.8108C25.5515 42.3106 25.4944 41.7199 25.165 41.2744L23.959 42.1663ZM24.8099 37.6193L25.7018 38.8253L24.8099 37.6193ZM37.3348 28.3566L36.4429 27.1506L37.3348 28.3566ZM28.0206 36.1388L29.2266 35.2469L28.0206 36.1388ZM29.3628 30.6764L30.2547 31.8824L29.3628 30.6764ZM34.9788 30.9929L36.1849 30.101V30.101L34.9788 30.9929ZM41.4515 28.2068L40.4785 29.3484C40.8676 29.6801 41.3988 29.7907 41.8879 29.642C42.377 29.4932 42.7567 29.1056 42.8953 28.6135L41.4515 28.2068ZM35.6199 31.8597L34.4139 32.7516C34.6735 33.1027 35.0731 33.3232 35.5085 33.3556C35.9439 33.388 36.3718 33.2291 36.6805 32.9204L35.6199 31.8597ZM35.8143 31.6653L36.875 32.726C37.2178 32.3832 37.3738 31.8958 37.2937 31.4177L35.8143 31.6653ZM28.0206 36.9741L27.57 38.4049C28.1034 38.5728 28.6858 38.4302 29.0812 38.0348L28.0206 36.9741ZM28.3757 36.619L29.4363 37.6797C29.9615 37.1545 30.0233 36.3242 29.5817 35.7271L28.3757 36.619ZM5.73874 34.3674C6.19496 35.0589 7.12536 35.2496 7.81685 34.7934C8.50833 34.3372 8.69905 33.4068 8.24282 32.7153L5.73874 34.3674ZM15.2915 38.9005C14.5464 38.5385 13.6489 38.8491 13.2869 39.5942C12.9249 40.3394 13.2355 41.2369 13.9806 41.5989L15.2915 38.9005ZM5.33398 22.9997C5.33398 13.2426 13.2436 5.33301 23.0007 5.33301V2.33301C11.5868 2.33301 2.33398 11.5858 2.33398 22.9997H5.33398ZM23.0007 5.33301C32.7577 5.33301 40.6673 13.2426 40.6673 22.9997H43.6673C43.6673 11.5858 34.4145 2.33301 23.0007 2.33301V5.33301ZM25.165 41.2744C24.7399 40.6996 24.7944 39.4964 25.7018 38.8253L23.918 36.4132C21.751 38.0158 21.2898 41.0798 22.753 43.0582L25.165 41.2744ZM29.2266 35.2469C28.6869 34.5172 28.78 32.9731 30.2547 31.8824L28.4709 29.4704C26.1028 31.2217 24.9939 34.5689 26.8145 37.0307L29.2266 35.2469ZM30.2547 31.8824C31.7295 30.7918 33.2331 31.1551 33.7728 31.8848L36.1849 30.101C34.3642 27.6391 30.8391 27.719 28.4709 29.4704L30.2547 31.8824ZM38.2267 29.5627C39.1612 28.8716 40.0952 29.0217 40.4785 29.3484L42.4246 27.0653C40.7359 25.626 38.2202 25.8362 36.4429 27.1506L38.2267 29.5627ZM40.6673 22.9997C40.6673 24.6657 40.4371 26.2755 40.0077 27.8002L42.8953 28.6135C43.3986 26.8267 43.6673 24.9433 43.6673 22.9997H40.6673ZM23.8903 40.6679C23.6358 40.6796 23.3911 40.6663 23.0007 40.6663V43.6663C23.2083 43.6663 23.6908 43.6802 24.0276 43.6648L23.8903 40.6679ZM33.7728 31.8848L34.4139 32.7516L36.8259 30.9678L36.1849 30.101L33.7728 31.8848ZM37.2937 31.4177C37.2102 30.9184 37.4523 30.1353 38.2267 29.5627L36.4429 27.1506C34.9113 28.2833 34.0361 30.1278 34.3349 31.9129L37.2937 31.4177ZM36.6805 32.9204L36.875 32.726L34.7536 30.6046L34.5592 30.7991L36.6805 32.9204ZM25.7018 38.8253C26.3721 38.3296 27.0955 38.2554 27.57 38.4049L28.4711 35.5434C26.9799 35.0738 25.2702 35.4132 23.918 36.4132L25.7018 38.8253ZM26.8145 37.0307L27.1697 37.5109L29.5817 35.7271L29.2266 35.2469L26.8145 37.0307ZM29.0812 38.0348L29.4363 37.6797L27.315 35.5583L26.9599 35.9135L29.0812 38.0348ZM8.24282 32.7153C6.40421 29.9286 5.33398 26.5914 5.33398 22.9997H2.33398C2.33398 27.1966 3.58661 31.1055 5.73874 34.3674L8.24282 32.7153ZM23.0007 40.6663C20.2337 40.6663 17.6194 40.0313 15.2915 38.9005L13.9806 41.5989C16.7081 42.9239 19.7698 43.6663 23.0007 43.6663V40.6663Z" fill="#513951"/>
<path d="M3.83398 24.917C3.83398 24.917 8.05229 28.7503 11.5007 28.7503C13.8236 28.7503 16.496 27.0108 17.9929 25.8753" stroke="#513951" stroke-width="3"/>
<path d="M30.6671 29.7081C29.7087 28.7498 27.7371 28.0577 26.8337 27.2617" stroke="#513951" stroke-width="3"/>
<path d="M31.9126 17.2053L32.0398 19.9129" stroke="#513951" stroke-width="3" stroke-linecap="round"/>
<path d="M39.6327 19.3299L36.4164 22.1625" stroke="#513951" stroke-width="3" stroke-linecap="round"/>
<path d="M10.8578 24.2294L12.4587 22.042" stroke="#513951" stroke-width="3" stroke-linecap="round"/>
<path d="M7.0596 19.8368L6.90883 17.1304" stroke="#513951" stroke-width="3" stroke-linecap="round"/>
</svg>
