<svg width="1469" height="848" viewBox="0 0 1469 848" fill="none" xmlns="http://www.w3.org/2000/svg">
<path fill-rule="evenodd" clip-rule="evenodd" d="M230.802 280.376C227.747 285.258 221.633 287.25 216.288 285.105C213.693 284.063 210.813 283.97 208.155 284.84L179.753 294.145C176.306 295.274 173.146 297.14 170.492 299.613L156.405 312.741C151.086 317.698 148.878 325.153 150.641 332.206C152.335 338.983 150.368 346.151 145.453 351.114L138.575 358.059C135.717 360.945 133.786 364.618 133.028 368.609L131.177 378.364C129.683 386.231 121.169 390.63 113.829 387.427C108.916 385.284 103.121 386.561 99.6157 390.617C95.7045 395.142 95.6374 401.832 99.4571 406.435L101.918 409.401C105.553 413.781 106.721 419.704 105.022 425.137L96.1102 453.618C94.5874 458.486 94.5895 463.702 96.1164 468.568L108.224 507.153C111.086 516.275 107.734 526.201 99.9287 531.72L92.7673 536.784C88.1161 540.073 81.7692 539.518 77.7587 535.473C74.2445 531.928 68.8635 531.014 64.376 533.2L46.358 541.975C41.9686 544.113 37.0435 544.9 32.2066 544.237C17.4591 542.214 4.29395 553.616 4.19108 568.502L4.0006 596.062C3.96138 601.737 5.85424 607.257 9.36801 611.714L27.5766 634.808C30.7522 638.836 32.6121 643.743 32.9041 648.864L33.2748 655.366C33.616 661.349 36.3916 666.932 40.9561 670.816C45.3674 674.569 48.1143 679.916 48.5968 685.688L51.6206 721.863C52.1859 728.625 57.9855 733.737 64.7651 733.449C69.7448 733.237 74.1361 730.121 75.9807 725.491L95.8287 675.667C98.0407 670.115 102.169 665.538 107.465 662.768L115.295 658.671C119.764 656.333 125.082 656.278 129.598 658.522C138.93 663.158 150.111 657.613 152.068 647.378L157.619 618.341C158.79 612.211 162.374 606.809 167.565 603.345L184.306 592.175C188.528 589.358 194.273 591.294 195.929 596.091C197.298 600.057 201.575 602.213 205.577 600.953L211.654 599.04C213.753 598.38 215.977 598.213 218.151 598.552L244.629 602.687C253.157 604.019 260.396 609.657 263.775 617.6L275.415 644.958C278.447 652.084 284.61 657.402 292.103 659.359L301.898 661.917C308.693 663.692 314.262 668.55 316.943 675.041L318.487 678.778C320.783 684.337 326.024 688.12 332.024 688.547L342.024 689.259C349.51 689.793 354.843 682.128 351.742 675.294C349.257 669.819 352.187 663.411 357.954 661.708L364.795 659.689C367.291 658.952 369.571 657.622 371.44 655.812L376.332 651.073C382.021 645.563 389.984 643.075 397.798 644.365L474.439 657.02C477.116 657.462 479.703 658.337 482.099 659.61L489.915 663.764C496.433 667.229 500.259 674.245 499.64 681.6C499.237 686.391 500.72 691.149 503.772 694.862L511.681 704.481C516.666 710.546 524.211 713.916 532.054 713.582L537.761 713.34C549.703 712.832 560.334 720.849 563.129 732.47L573.84 776.99C575.847 785.332 581.991 792.061 590.116 794.818L602.113 798.887C603.76 799.446 605.46 799.831 607.186 800.037L619.254 801.474C626.911 802.387 633.719 806.782 637.702 813.385L641.434 819.569C643.227 822.541 645.619 825.107 648.458 827.104L666.485 839.783C673.886 844.988 683.523 845.788 691.681 841.874L733.071 822.018C737.384 819.948 742.201 819.16 746.95 819.747L763.819 821.831C767.939 822.34 771.608 824.68 773.808 828.199C776.222 832.063 780.391 834.482 784.943 834.661L812.142 835.731C820.133 836.045 825.686 827.874 822.451 820.56C820.839 816.914 821.365 812.676 823.819 809.535L827.859 804.364C833.827 796.725 844.129 793.955 853.123 797.571L871.017 804.765C872.86 805.505 874.607 806.463 876.223 807.617L888.654 816.496C896.552 822.138 907.192 822.025 914.969 816.217C919.367 812.932 924.822 811.384 930.29 811.87L953.74 813.951C957.783 814.31 961.678 815.648 965.087 817.849L970.228 821.167C975.068 824.29 980.838 825.647 986.563 825.007L1005.92 822.844C1011.86 822.18 1017.36 819.409 1021.44 815.034L1039.79 795.326C1044.08 790.717 1049.95 787.897 1056.23 787.431L1082.48 785.481C1094.35 784.599 1103.96 775.464 1105.43 763.648L1110.08 726.396C1110.6 722.27 1108.98 718.165 1105.79 715.501C1099.92 710.61 1099.93 701.599 1105.81 696.721L1121.41 683.768C1124.23 681.427 1127.53 679.734 1131.07 678.81L1147.38 674.562C1155.39 672.474 1163.92 674.491 1170.15 679.95L1209.14 714.1C1215.51 719.682 1224.6 720.914 1232.23 717.228C1234.99 715.894 1238.01 715.177 1241.08 715.129L1253.43 714.933C1259.49 714.837 1265.23 717.673 1268.83 722.549L1269.57 723.555C1272.66 727.731 1277.55 730.188 1282.74 730.172C1287.97 730.156 1292.87 727.635 1295.93 723.393L1296.59 722.483C1305.76 709.742 1325.64 713.494 1329.54 728.704L1334.75 749.014C1336.59 756.194 1332.78 763.618 1325.88 766.312C1321.27 768.112 1317.87 772.119 1316.86 776.966L1316.33 779.493C1315.03 785.693 1316.84 792.135 1321.17 796.757L1328.03 804.083C1330.51 806.727 1331.99 810.146 1332.24 813.76L1332.75 821.427C1332.98 824.832 1335.68 827.549 1339.08 827.797C1342.97 828.081 1346.31 825.063 1346.42 821.165L1346.56 816.465C1346.69 811.813 1349.65 807.714 1354.03 806.126L1364.81 802.211C1373.39 799.097 1379.59 791.556 1380.98 782.538L1387.34 741.508C1387.67 739.338 1387.72 737.134 1387.48 734.952L1376.57 635.595C1375.95 629.931 1373.41 624.65 1369.37 620.625L1355.83 607.121C1351.96 603.254 1352.48 596.832 1356.93 593.642C1360.57 591.037 1365.57 591.548 1368.61 594.834L1417.2 647.481C1420.71 651.273 1426.94 650.267 1429.07 645.568L1429.55 644.509C1430.02 643.47 1430.88 642.656 1431.94 642.244C1435.87 640.722 1435.57 635.078 1431.52 633.969L1422.31 631.454C1420.55 630.974 1419.02 629.87 1418.02 628.348L1401.43 603.22C1399.63 600.489 1398.38 597.43 1397.75 594.218L1396.97 590.182C1395.83 584.323 1392.63 579.066 1387.95 575.359L1331.86 530.93C1325.33 525.759 1315.65 529.392 1314.13 537.581C1313.02 543.611 1307.2 547.579 1301.18 546.421L1297.19 545.653C1289.32 544.14 1281.65 549.038 1279.7 556.81L1279.51 557.602C1278.03 563.524 1273.3 568.081 1267.32 569.341L1264.7 569.895C1252.22 572.527 1240.44 563.096 1240.29 550.342L1239.09 453.065C1239.01 446.104 1241.83 439.422 1246.88 434.629L1273.47 409.381C1276.47 406.531 1278.6 402.884 1279.61 398.869L1281.57 391.023C1283.05 385.084 1288.66 381.122 1294.75 381.701C1299.59 382.161 1304.25 379.752 1306.66 375.539L1310.78 368.365C1315.25 360.578 1315.2 350.991 1310.65 343.25L1293.47 314.013C1291.27 310.28 1290.65 305.829 1291.73 301.636L1293.35 295.399C1295.12 288.559 1302.73 285.081 1309.06 288.224L1310.91 289.141C1314.05 290.7 1317.83 290.1 1320.33 287.645C1322.74 285.28 1323.46 281.685 1322.15 278.575L1320.84 275.467C1318.45 269.814 1322.34 263.494 1328.46 263.075C1332.74 262.782 1336.62 265.565 1337.72 269.709L1358.93 349.97C1359.82 353.322 1361.39 356.452 1363.55 359.163L1374.4 372.771C1376.22 375.058 1378.43 377.008 1380.93 378.531L1429.39 408.102C1431.41 409.334 1433.61 410.251 1435.9 410.823C1454.56 415.476 1470.52 396.816 1463.03 379.102L1448.2 344.027C1447.46 342.285 1446.53 340.632 1445.42 339.1L1427.5 314.356C1424.87 310.726 1421.32 307.869 1417.2 306.085L1384.86 292.053C1381.2 290.466 1377.98 288.028 1375.45 284.941L1367.56 275.287C1362.28 268.823 1360.57 260.148 1363.01 252.163L1366.58 240.463C1367.74 236.669 1367.79 232.623 1366.73 228.8L1365.17 223.172C1363.81 218.28 1365.6 213.055 1369.67 210.018C1374.35 206.521 1375.93 200.211 1373.44 194.92L1343.48 131.206C1340.97 125.87 1342.38 119.513 1346.91 115.737L1348.15 114.701C1351.04 112.295 1352.37 108.503 1351.63 104.82C1350.55 99.4028 1345.36 95.8254 1339.91 96.7357L1324.72 99.2723C1315.56 100.803 1306.53 95.8853 1302.85 87.3549L1301.23 83.6223C1299.95 80.6388 1297.43 78.3578 1294.34 77.366C1285.87 74.6537 1283.74 63.6626 1290.58 57.9867L1301.52 48.9125C1303.32 47.4155 1304.83 45.5984 1305.98 43.5525L1310 36.3616C1314.96 27.4876 1313.11 16.3598 1305.55 9.56772C1295.01 0.108024 1278.38 3.08253 1271.78 15.6091L1265.43 27.655C1263.88 30.5919 1261.77 33.1911 1259.2 35.3008L1206.7 78.5152C1202.78 81.7374 1199.94 86.0739 1198.54 90.9493L1185 138.351L1174.66 189.587C1173.77 194.027 1170.89 197.815 1166.86 199.874L1164.24 201.213C1159.21 203.778 1153.06 202.284 1149.77 197.696C1146.88 193.673 1141.73 191.968 1137.02 193.475L1133.19 194.697C1127.34 196.566 1122.96 201.46 1121.74 207.483L1120.87 211.827C1118.76 222.267 1110.15 230.148 1099.56 231.318L1085.41 232.881C1082.93 233.155 1080.5 233.8 1078.21 234.793L1061.65 241.969C1050.69 246.723 1037.89 243.051 1031.12 233.206L1027.77 228.335L1023.65 223C1019.39 217.47 1021.73 209.393 1028.29 206.994L1030.56 206.162C1034.14 204.85 1036.2 201.076 1035.35 197.354C1034.22 192.414 1028.66 189.947 1024.24 192.426L999.796 206.142L982.177 215.281C976.12 218.423 973.496 225.694 976.151 231.98C978.683 237.979 985.243 241.201 991.539 239.539L1002.29 236.699C1008.96 234.938 1015.77 239.056 1017.3 245.784C1017.8 247.959 1018.88 249.957 1020.43 251.559L1031.43 262.916L1032.93 264.964C1040.69 275.537 1038.96 290.308 1028.97 298.803L1010.75 314.293C1002.48 321.317 990.199 320.759 982.607 313.015C977.618 307.925 970.358 305.766 963.398 307.302L942.006 312.024L897.873 327.177C894.174 328.448 890.228 328.832 886.353 328.3L882.416 327.759C876.744 326.98 871.767 323.582 868.977 318.583C866.869 314.805 866.173 310.401 867.014 306.158L868.178 300.28C869.75 292.342 866.818 284.185 860.553 279.065L858.317 277.238C855.404 274.857 851.689 273.687 847.938 273.967C843.593 274.292 839.328 272.669 836.298 269.537L827.082 260.009C823.819 256.636 822.477 251.845 823.513 247.268C824.848 241.368 822.217 235.282 817.006 232.212L810.1 228.144C806.746 226.168 803.902 223.433 801.797 220.159L795.153 209.827C794.295 208.492 793.649 207.031 793.238 205.497L791.222 197.96C789.478 191.439 781.816 188.594 776.238 192.396C772.637 194.851 771.09 199.391 772.444 203.534L775.497 212.883C776.216 215.082 776.455 217.41 776.199 219.709C775.409 226.798 779.348 233.569 785.9 236.388L790.834 238.511C797.411 241.34 802.335 247.018 804.205 253.93L805.977 260.48C809.221 272.469 803.171 285.022 791.771 289.954L741.898 311.531C737.195 313.566 734.429 318.49 735.139 323.564C735.989 329.639 731.876 335.297 725.834 336.361L709.39 339.259C704.23 340.168 700.116 344.079 698.946 349.187C697.566 355.215 692.141 359.443 685.959 359.31L684.483 359.278C682.856 359.243 681.235 359.475 679.684 359.966L676.633 360.931C670.067 363.008 662.935 362.285 656.919 358.931L651.027 355.647C647.298 353.568 644.529 350.114 643.309 346.023C639.972 334.828 626.321 330.629 617.268 338.013L606.878 346.488C602.813 349.804 599.894 354.314 598.534 359.381L593.553 377.944C592.473 381.968 589.229 385.047 585.154 385.917C580.324 386.948 575.394 384.66 573.062 380.306L568.987 372.7C564.689 364.676 555.993 360.02 546.933 360.89L546.107 360.969C541.888 361.374 537.639 360.647 533.795 358.861L501.236 343.737C499.109 342.749 496.855 342.065 494.538 341.706L449.32 334.688C445.034 334.022 440.995 332.254 437.6 329.556L434.282 326.919C428.63 322.428 421.232 320.776 414.207 322.436C409.908 323.452 405.409 323.239 401.225 321.82L390.584 318.213C386.504 316.83 382.136 316.524 377.904 317.326L372.82 318.289C366.634 319.461 360.237 318.056 355.111 314.4L347.743 309.145C346.011 307.91 343.774 307.629 341.791 308.398C337.092 310.22 332.257 306.078 333.335 301.155L337.433 282.451C338.004 279.842 339.197 277.409 340.91 275.36L341.78 274.318C351.439 262.762 370.024 266.241 374.848 280.51C378.198 290.421 388.926 295.826 398.918 292.726C407.781 289.976 413.541 281.328 412.576 272.099L407.671 225.17C407.498 223.514 407.658 221.839 408.142 220.245C410.424 212.733 405.284 205.004 397.473 204.204L386.71 203.102C381.116 202.529 375.522 204.182 371.138 207.702L291.082 271.989C285.96 276.102 279.425 278.034 272.89 277.367L242.76 274.291C238.07 273.812 233.515 276.04 231.014 280.037L230.802 280.376ZM620.937 242.152C616.574 241.987 612.245 242.967 608.379 244.994L531.77 285.176C521.858 290.375 517.357 302.133 521.263 312.622L522.385 315.634C524.828 322.191 530.962 326.646 537.953 326.939C545.346 327.249 552.125 322.847 554.85 315.967L562.477 296.706C564.803 290.832 569.267 286.056 574.972 283.339L608.507 267.37C611.741 265.83 615.267 265.003 618.848 264.945L652.992 264.387C656.672 264.327 660.053 262.347 661.905 259.166C665.896 252.31 661.145 243.673 653.218 243.373L620.937 242.152Z" fill="url(#paint0_linear_369_1308)" fill-opacity="0.2"/>
<path d="M1185 138.351L1181.63 137.389L1181.6 137.523L1181.57 137.659L1185 138.351ZM1027.77 228.335L1030.65 226.351L1030.59 226.274L1030.54 226.199L1027.77 228.335ZM999.796 206.142L1001.41 209.249L1001.46 209.222L1001.51 209.194L999.796 206.142ZM1031.43 262.916L1034.25 260.845L1034.11 260.653L1033.94 260.482L1031.43 262.916ZM942.006 312.024L941.252 308.606L941.058 308.649L940.869 308.713L942.006 312.024ZM653.218 243.373L653.086 246.871L653.218 243.373ZM608.379 244.994L610.005 248.094L608.379 244.994ZM620.937 242.152L620.804 245.649L620.937 242.152ZM531.77 285.176L533.396 288.276L531.77 285.176ZM521.263 312.622L524.543 311.4L521.263 312.622ZM242.76 274.291L243.115 270.809L242.76 274.291ZM231.014 280.037L233.981 281.893L231.014 280.037ZM291.082 271.989L293.274 274.718L291.082 271.989ZM272.89 277.367L272.535 280.849L272.89 277.367ZM386.71 203.102L387.066 199.62L386.71 203.102ZM371.138 207.702L373.329 210.431L371.138 207.702ZM397.473 204.204L397.116 207.686L397.473 204.204ZM407.671 225.17L411.152 224.806L407.671 225.17ZM412.576 272.099L416.057 271.735L412.576 272.099ZM341.78 274.318L344.466 276.563L341.78 274.318ZM337.433 282.451L334.014 281.702L337.433 282.451ZM340.91 275.36L338.224 273.115L340.91 275.36ZM333.335 301.155L336.754 301.904L333.335 301.155ZM347.743 309.145L345.711 311.995L347.743 309.145ZM372.82 318.289L373.471 321.728L372.82 318.289ZM355.111 314.4L357.143 311.551L355.111 314.4ZM390.584 318.213L389.46 321.527L390.584 318.213ZM377.904 317.326L377.252 313.887L377.904 317.326ZM401.225 321.82L402.349 318.506L401.225 321.82ZM434.282 326.919L432.104 329.659L434.282 326.919ZM449.32 334.688L448.783 338.146L449.32 334.688ZM437.6 329.556L435.423 332.296L437.6 329.556ZM501.236 343.737L499.761 346.911L501.236 343.737ZM494.538 341.706L494.001 345.164L494.538 341.706ZM546.107 360.969L545.772 357.485L546.107 360.969ZM533.795 358.861L535.27 355.687L533.795 358.861ZM568.987 372.7L572.072 371.047L568.987 372.7ZM546.933 360.89L546.599 357.406L546.933 360.89ZM573.062 380.306L569.976 381.959L573.062 380.306ZM593.553 377.944L596.933 378.851L593.553 377.944ZM606.878 346.488L604.666 343.776L606.878 346.488ZM598.534 359.381L601.914 360.288L598.534 359.381ZM617.268 338.013L615.056 335.3L617.268 338.013ZM651.027 355.647L649.323 358.704L651.027 355.647ZM676.633 360.931L675.578 357.594L676.633 360.931ZM656.919 358.931L658.623 355.874L656.919 358.931ZM684.483 359.278L684.407 362.777L684.483 359.278ZM679.684 359.966L678.628 356.629L679.684 359.966ZM685.959 359.31L686.035 355.81L685.959 359.31ZM709.39 339.259L709.997 342.706L709.39 339.259ZM725.834 336.361L725.227 332.914L725.834 336.361ZM741.898 311.531L740.508 308.319L741.898 311.531ZM805.977 260.48L809.356 259.566L805.977 260.48ZM791.771 289.954L793.161 293.166L791.771 289.954ZM790.834 238.511L789.451 241.726L790.834 238.511ZM804.205 253.93L800.826 254.844L804.205 253.93ZM785.9 236.388L787.283 233.173L785.9 236.388ZM775.497 212.883L778.824 211.796L775.497 212.883ZM772.444 203.534L775.771 202.448L772.444 203.534ZM791.222 197.96L794.604 197.056L791.222 197.96ZM795.153 209.827L792.21 211.72L795.153 209.827ZM793.238 205.497L796.619 204.593L793.238 205.497ZM810.1 228.144L811.876 225.128L810.1 228.144ZM801.797 220.159L804.741 218.266L801.797 220.159ZM817.006 232.212L815.229 235.228L817.006 232.212ZM827.082 260.009L829.597 257.576L827.082 260.009ZM836.298 269.537L833.782 271.97L836.298 269.537ZM858.317 277.238L860.532 274.527L858.317 277.238ZM868.178 300.28L864.745 299.6L868.178 300.28ZM860.553 279.065L858.338 281.775L860.553 279.065ZM867.014 306.158L863.58 305.478L867.014 306.158ZM882.416 327.759L882.892 324.292L882.416 327.759ZM897.873 327.177L899.01 330.488L897.873 327.177ZM886.353 328.3L886.829 324.833L886.353 328.3ZM963.398 307.302L964.152 310.72L963.398 307.302ZM1010.75 314.293L1013.01 316.959L1010.75 314.293ZM1032.93 264.964L1030.11 267.035L1032.93 264.964ZM1028.97 298.803L1026.7 296.136L1028.97 298.803ZM1020.43 251.559L1022.94 249.125L1020.43 251.559ZM1002.29 236.699L1003.19 240.083L1002.29 236.699ZM991.539 239.539L990.646 236.155L991.539 239.539ZM982.177 215.281L980.566 212.174L982.177 215.281ZM1024.24 192.426L1025.95 195.478L1024.24 192.426ZM1030.56 206.162L1029.36 202.875L1030.56 206.162ZM1028.29 206.994L1027.08 203.707L1028.29 206.994ZM1061.65 241.969L1060.26 238.758L1061.65 241.969ZM1031.12 233.206L1034 231.221L1031.12 233.206ZM1085.41 232.881L1085.79 236.36L1085.41 232.881ZM1078.21 234.793L1076.82 231.581L1078.21 234.793ZM1120.87 211.827L1124.3 212.518L1120.87 211.827ZM1133.19 194.697L1134.26 198.031L1133.19 194.697ZM1121.74 207.483L1118.31 206.791L1121.74 207.483ZM1164.24 201.213L1162.64 198.095L1164.24 201.213ZM1174.66 189.587L1171.23 188.895L1174.66 189.587ZM1166.86 199.874L1168.45 202.991L1166.86 199.874ZM1206.7 78.5152L1204.47 75.8127L1206.7 78.5152ZM1198.54 90.9493L1195.18 89.9876L1198.54 90.9493ZM1265.43 27.655L1262.34 26.023L1265.43 27.655ZM1259.2 35.3008L1256.98 32.5984L1259.2 35.3008ZM1271.78 15.6091L1274.88 17.2412L1271.78 15.6091ZM1301.52 48.9125L1299.28 46.2192L1301.52 48.9125ZM1305.98 43.5525L1302.92 41.8443L1305.98 43.5525ZM1290.58 57.9867L1288.35 55.2934L1290.58 57.9867ZM1301.23 83.6223L1298.02 85.0098L1301.23 83.6223ZM1324.72 99.2723L1325.3 102.724L1324.72 99.2723ZM1302.85 87.3549L1306.06 85.9674L1302.85 87.3549ZM1339.91 96.7357L1339.33 93.2835L1339.91 96.7357ZM1348.15 114.701L1345.91 112.012L1348.15 114.701ZM1343.48 131.206L1346.65 129.717L1343.48 131.206ZM1346.91 115.737L1344.67 113.049L1346.91 115.737ZM1373.44 194.92L1370.27 196.409L1373.44 194.92ZM1365.17 223.172L1368.54 222.236L1365.17 223.172ZM1366.58 240.463L1369.93 241.485L1366.58 240.463ZM1366.73 228.8L1370.1 227.864L1366.73 228.8ZM1367.56 275.287L1364.85 277.502L1367.56 275.287ZM1363.01 252.163L1359.66 251.141L1363.01 252.163ZM1384.86 292.053L1383.47 295.264L1384.86 292.053ZM1375.45 284.941L1378.16 282.726L1375.45 284.941ZM1427.5 314.356L1424.67 316.409L1427.5 314.356ZM1417.2 306.085L1418.6 302.874L1417.2 306.085ZM1448.2 344.027L1444.98 345.39L1448.2 344.027ZM1445.42 339.1L1442.59 341.153L1445.42 339.1ZM1463.03 379.102L1459.81 380.465L1463.03 379.102ZM1429.39 408.102L1431.22 405.114L1429.39 408.102ZM1374.4 372.771L1377.13 370.59L1374.4 372.771ZM1380.93 378.531L1379.1 381.519L1380.93 378.531ZM1358.93 349.97L1362.31 349.076L1358.93 349.97ZM1363.55 359.163L1366.29 356.982L1363.55 359.163ZM1337.72 269.709L1334.33 270.603L1337.72 269.709ZM1320.84 275.467L1324.06 274.107L1320.84 275.467ZM1322.15 278.575L1318.92 279.935L1322.15 278.575ZM1310.91 289.141L1312.46 286.006L1310.91 289.141ZM1293.35 295.399L1296.74 296.276L1293.35 295.399ZM1309.06 288.224L1307.51 291.359L1309.06 288.224ZM1293.47 314.013L1290.45 315.786L1293.47 314.013ZM1291.73 301.636L1295.12 302.513L1291.73 301.636ZM1310.78 368.365L1307.75 366.623L1310.78 368.365ZM1310.65 343.25L1307.64 345.024L1310.65 343.25ZM1306.66 375.539L1309.7 377.281L1306.66 375.539ZM1281.57 391.023L1284.96 391.873L1281.57 391.023ZM1273.47 409.381L1275.88 411.919L1273.47 409.381ZM1279.61 398.869L1283 399.718L1279.61 398.869ZM1239.09 453.065L1242.59 453.022L1239.09 453.065ZM1246.88 434.629L1249.29 437.167L1246.88 434.629ZM1240.29 550.342L1243.79 550.299L1240.29 550.342ZM1279.51 557.602L1282.9 558.451L1279.51 557.602ZM1267.32 569.341L1266.6 565.917L1267.32 569.341ZM1297.19 545.653L1297.85 542.216L1297.19 545.653ZM1279.7 556.81L1276.31 555.961L1279.7 556.81ZM1301.18 546.421L1301.84 542.984L1301.18 546.421ZM1331.86 530.93L1334.04 528.186L1331.86 530.93ZM1396.97 590.182L1400.4 589.514L1396.97 590.182ZM1387.95 575.359L1390.12 572.616L1387.95 575.359ZM1401.43 603.22L1398.51 605.148L1401.43 603.22ZM1397.75 594.218L1401.19 593.55L1397.75 594.218ZM1422.31 631.454L1423.23 628.078L1422.31 631.454ZM1418.02 628.348L1420.94 626.419L1418.02 628.348ZM1431.52 633.969L1432.44 630.593L1431.52 633.969ZM1429.55 644.509L1432.74 645.954L1429.55 644.509ZM1417.2 647.481L1414.63 649.855L1417.2 647.481ZM1429.07 645.568L1432.26 647.013L1429.07 645.568ZM1368.61 594.834L1371.18 592.46L1368.61 594.834ZM1355.83 607.121L1353.36 609.599L1355.83 607.121ZM1376.57 635.595L1373.09 635.978L1376.57 635.595ZM1369.37 620.625L1366.9 623.103L1369.37 620.625ZM1387.34 741.508L1383.88 740.972L1387.34 741.508ZM1387.48 734.952L1390.96 734.57L1387.48 734.952ZM1364.81 802.211L1363.62 798.921L1364.81 802.211ZM1380.98 782.538L1377.53 782.002L1380.98 782.538ZM1346.56 816.465L1343.06 816.365L1346.56 816.465ZM1354.03 806.126L1355.22 809.416L1354.03 806.126ZM1346.42 821.165L1342.93 821.065L1346.42 821.165ZM1332.75 821.427L1329.26 821.661L1332.75 821.427ZM1328.03 804.083L1325.48 806.477L1328.03 804.083ZM1332.24 813.76L1335.73 813.526L1332.24 813.76ZM1316.33 779.493L1312.9 778.776L1316.33 779.493ZM1321.17 796.757L1323.72 794.364L1321.17 796.757ZM1316.86 776.966L1313.43 776.249L1316.86 776.966ZM1334.75 749.014L1331.36 749.884L1334.75 749.014ZM1296.59 722.483L1299.43 724.528L1296.59 722.483ZM1329.54 728.704L1326.15 729.574L1329.54 728.704ZM1295.93 723.393L1298.77 725.439L1295.93 723.393ZM1269.57 723.555L1266.76 725.636L1269.57 723.555ZM1253.43 714.933L1253.48 718.432L1253.43 714.933ZM1268.83 722.549L1271.64 720.469L1268.83 722.549ZM1241.08 715.129L1241.13 718.628L1241.08 715.129ZM1209.14 714.1L1206.83 716.733L1209.14 714.1ZM1147.38 674.562L1146.5 671.175L1147.38 674.562ZM1170.15 679.95L1172.46 677.317L1170.15 679.95ZM1121.41 683.768L1119.17 681.075L1121.41 683.768ZM1131.07 678.81L1131.96 682.197L1131.07 678.81ZM1105.81 696.721L1108.04 699.414L1105.81 696.721ZM1110.08 726.396L1106.61 725.963L1110.08 726.396ZM1082.48 785.481L1082.22 781.991L1082.48 785.481ZM1105.43 763.648L1101.96 763.214L1105.43 763.648ZM1039.79 795.326L1037.22 792.941L1039.79 795.326ZM1056.23 787.431L1055.97 783.94L1056.23 787.431ZM1005.92 822.844L1006.3 826.322L1005.92 822.844ZM1021.44 815.034L1024 817.419L1021.44 815.034ZM970.228 821.167L968.33 824.107L970.228 821.167ZM986.563 825.007L986.952 828.485L986.563 825.007ZM953.74 813.951L954.05 810.465L953.74 813.951ZM965.087 817.849L963.189 820.789L965.087 817.849ZM930.29 811.87L929.98 815.356L930.29 811.87ZM888.654 816.496L886.619 819.344L888.654 816.496ZM871.017 804.765L872.323 801.517L871.017 804.765ZM876.223 807.617L878.257 804.769L876.223 807.617ZM827.859 804.364L825.101 802.209L827.859 804.364ZM853.123 797.571L851.818 800.818L853.123 797.571ZM823.819 809.535L821.061 807.38L823.819 809.535ZM812.142 835.731L812.279 832.234L812.142 835.731ZM784.943 834.661L785.081 831.164L784.943 834.661ZM763.819 821.831L763.39 825.305L763.819 821.831ZM733.071 822.018L731.557 818.862L733.071 822.018ZM746.95 819.747L746.521 823.22L746.95 819.747ZM666.485 839.783L668.499 836.92L666.485 839.783ZM691.681 841.874L690.167 838.719L691.681 841.874ZM641.434 819.569L638.437 821.377L641.434 819.569ZM648.458 827.104L650.471 824.241L648.458 827.104ZM619.254 801.474L619.668 797.999L619.254 801.474ZM637.702 813.385L634.706 815.193L637.702 813.385ZM602.113 798.887L600.989 802.202L602.113 798.887ZM607.186 800.037L607.601 796.561L607.186 800.037ZM573.84 776.99L577.243 776.171L573.84 776.99ZM590.116 794.818L591.24 791.503L590.116 794.818ZM537.761 713.34L537.91 716.837L537.761 713.34ZM563.129 732.47L559.727 733.288L563.129 732.47ZM511.681 704.481L508.977 706.704L511.681 704.481ZM503.772 694.862L501.069 697.085L503.772 694.862ZM489.915 663.764L491.558 660.674L489.915 663.764ZM474.439 657.02L473.869 660.473L474.439 657.02ZM482.099 659.61L480.456 662.701L482.099 659.61ZM376.332 651.073L378.767 653.587L376.332 651.073ZM371.44 655.812L373.875 658.326L371.44 655.812ZM357.954 661.708L356.963 658.352L357.954 661.708ZM342.024 689.259L341.776 692.751L342.024 689.259ZM318.487 678.778L315.252 680.114L318.487 678.778ZM332.024 688.547L332.272 685.056L332.024 688.547ZM316.943 675.041L320.178 673.705L316.943 675.041ZM275.415 644.958L272.195 646.328L275.415 644.958ZM292.103 659.359L292.987 655.972L292.103 659.359ZM244.629 602.687L245.169 599.229L244.629 602.687ZM211.654 599.04L210.603 595.702L211.654 599.04ZM218.151 598.552L217.611 602.01L218.151 598.552ZM205.577 600.953L206.628 604.292L205.577 600.953ZM184.306 592.175L182.363 589.263L184.306 592.175ZM157.619 618.341L161.057 618.998L157.619 618.341ZM167.565 603.345L165.622 600.434L167.565 603.345ZM115.295 658.671L116.917 661.772L115.295 658.671ZM107.465 662.768L109.087 665.869L107.465 662.768ZM75.9807 725.491L79.2322 726.786L75.9807 725.491ZM27.5766 634.808L24.8281 636.975L27.5766 634.808ZM32.9041 648.864L29.4098 649.063L32.9041 648.864ZM9.36801 611.714L12.1165 609.547L9.36801 611.714ZM46.358 541.975L44.8255 538.829L46.358 541.975ZM64.376 533.2L62.8435 530.053L64.376 533.2ZM108.224 507.153L104.884 508.201L108.224 507.153ZM99.9287 531.72L101.949 534.578L99.9287 531.72ZM96.1102 453.618L99.4506 454.663L96.1102 453.618ZM96.1164 468.568L99.4558 467.52L96.1164 468.568ZM101.918 409.401L99.225 411.636L101.918 409.401ZM105.022 425.137L108.362 426.182L105.022 425.137ZM131.177 378.364L127.738 377.711L131.177 378.364ZM133.028 368.609L129.59 367.956L133.028 368.609ZM652.992 264.387L653.049 267.887L652.992 264.387ZM608.507 267.37L607.002 264.21L608.507 267.37ZM618.848 264.945L618.791 261.445L618.848 264.945ZM156.405 312.741L158.791 315.302L156.405 312.741ZM562.477 296.706L559.222 295.418L562.477 296.706ZM574.972 283.339L576.477 286.499L574.972 283.339ZM179.753 294.145L180.842 297.471L179.753 294.145ZM170.492 299.613L168.106 297.053L170.492 299.613ZM554.85 315.967L558.104 317.255L554.85 315.967ZM230.802 280.376L227.835 278.52L230.802 280.376ZM522.385 315.634L519.105 316.856L522.385 315.634ZM208.155 284.84L207.065 281.514L208.155 284.84ZM180.842 297.471L209.245 288.166L207.065 281.514L178.663 290.819L180.842 297.471ZM158.791 315.302L172.878 302.174L168.106 297.053L154.019 310.181L158.791 315.302ZM141.062 360.522L147.94 353.577L142.966 348.651L136.088 355.596L141.062 360.522ZM134.615 379.016L136.467 369.261L129.59 367.956L127.738 377.711L134.615 379.016ZM104.612 407.166L102.151 404.2L96.7637 408.67L99.225 411.636L104.612 407.166ZM99.4506 454.663L108.362 426.182L101.681 424.091L92.7699 452.573L99.4506 454.663ZM111.563 506.106L99.4558 467.52L92.7769 469.616L104.884 508.201L111.563 506.106ZM94.788 539.642L101.949 534.578L97.908 528.862L90.7466 533.926L94.788 539.642ZM47.8905 545.122L65.9085 536.346L62.8435 530.053L44.8255 538.829L47.8905 545.122ZM7.50051 596.087L7.69099 568.526L0.691159 568.477L0.500681 596.038L7.50051 596.087ZM30.3251 632.641L12.1165 609.547L6.61953 613.881L24.8281 636.975L30.3251 632.641ZM36.7691 655.166L36.3984 648.664L29.4098 649.063L29.7805 655.565L36.7691 655.166ZM55.1085 721.571L52.0846 685.396L45.1089 685.979L48.1328 722.154L55.1085 721.571ZM92.5772 674.372L72.7292 724.195L79.2322 726.786L99.0802 676.963L92.5772 674.372ZM113.673 655.57L105.842 659.666L109.087 665.869L116.917 661.772L113.673 655.57ZM154.181 617.684L148.63 646.721L155.505 648.036L161.057 618.998L154.181 617.684ZM182.363 589.263L165.622 600.434L169.507 606.257L186.249 595.086L182.363 589.263ZM210.603 595.702L204.526 597.614L206.628 604.292L212.705 602.379L210.603 595.702ZM245.169 599.229L218.691 595.094L217.611 602.01L244.089 606.146L245.169 599.229ZM278.636 643.588L266.996 616.23L260.555 618.97L272.195 646.328L278.636 643.588ZM302.783 658.531L292.987 655.972L291.218 662.745L301.014 665.304L302.783 658.531ZM321.722 677.442L320.178 673.705L313.708 676.377L315.252 680.114L321.722 677.442ZM342.273 685.768L332.272 685.056L331.775 692.038L341.776 692.751L342.273 685.768ZM363.804 656.332L356.963 658.352L358.944 665.065L365.786 663.046L363.804 656.332ZM373.897 648.559L369.005 653.297L373.875 658.326L378.767 653.587L373.897 648.559ZM475.009 653.567L398.368 640.912L397.228 647.818L473.869 660.473L475.009 653.567ZM491.558 660.674L483.741 656.52L480.456 662.701L488.273 666.855L491.558 660.674ZM514.384 702.259L506.476 692.639L501.069 697.085L508.977 706.704L514.384 702.259ZM537.612 709.843L531.905 710.086L532.203 717.079L537.91 716.837L537.612 709.843ZM577.243 776.171L566.532 731.651L559.727 733.288L570.437 777.809L577.243 776.171ZM603.238 795.573L591.24 791.503L588.991 798.132L600.989 802.202L603.238 795.573ZM619.668 797.999L607.601 796.561L606.772 803.512L618.84 804.95L619.668 797.999ZM644.43 817.761L640.699 811.577L634.706 815.193L638.437 821.377L644.43 817.761ZM668.499 836.92L650.471 824.241L646.444 829.967L664.472 842.646L668.499 836.92ZM731.557 818.862L690.167 838.719L693.195 845.03L734.585 825.173L731.557 818.862ZM764.249 818.357L747.379 816.273L746.521 823.22L763.39 825.305L764.249 818.357ZM812.279 832.234L785.081 831.164L784.806 838.158L812.004 839.228L812.279 832.234ZM825.101 802.209L821.061 807.38L826.577 811.69L830.617 806.518L825.101 802.209ZM872.323 801.517L854.429 794.323L851.818 800.818L869.712 808.012L872.323 801.517ZM890.688 813.648L878.257 804.769L874.189 810.465L886.619 819.344L890.688 813.648ZM954.05 810.465L930.599 808.383L929.98 815.356L953.431 817.437L954.05 810.465ZM972.126 818.226L966.985 814.908L963.189 820.789L968.33 824.107L972.126 818.226ZM1005.53 819.366L986.174 821.529L986.952 828.485L1006.3 826.322L1005.53 819.366ZM1037.22 792.941L1018.87 812.649L1024 817.419L1042.35 797.711L1037.22 792.941ZM1082.22 781.991L1055.97 783.94L1056.49 790.921L1082.73 788.972L1082.22 781.991ZM1106.61 725.963L1101.96 763.214L1108.9 764.081L1113.56 726.83L1106.61 725.963ZM1119.17 681.075L1103.57 694.028L1108.04 699.414L1123.64 686.461L1119.17 681.075ZM1146.5 671.175L1130.19 675.423L1131.96 682.197L1148.26 677.949L1146.5 671.175ZM1211.45 711.468L1172.46 677.317L1167.85 682.582L1206.83 716.733L1211.45 711.468ZM1253.37 711.433L1241.02 711.629L1241.13 718.628L1253.48 718.432L1253.37 711.433ZM1272.39 721.475L1271.64 720.469L1266.02 724.63L1266.76 725.636L1272.39 721.475ZM1293.75 720.437L1293.09 721.347L1298.77 725.439L1299.43 724.528L1293.75 720.437ZM1338.14 748.145L1332.93 727.835L1326.15 729.574L1331.36 749.884L1338.14 748.145ZM1319.76 780.21L1320.28 777.683L1313.43 776.249L1312.9 778.776L1319.76 780.21ZM1330.59 801.69L1323.72 794.364L1318.61 799.15L1325.48 806.477L1330.59 801.69ZM1336.24 821.193L1335.73 813.526L1328.74 813.994L1329.26 821.661L1336.24 821.193ZM1343.06 816.365L1342.93 821.065L1349.92 821.265L1350.06 816.565L1343.06 816.365ZM1363.62 798.921L1352.83 802.836L1355.22 809.416L1366 805.501L1363.62 798.921ZM1383.88 740.972L1377.53 782.002L1384.44 783.073L1390.8 742.043L1383.88 740.972ZM1373.09 635.978L1384 735.334L1390.96 734.57L1380.05 635.213L1373.09 635.978ZM1353.36 609.599L1366.9 623.103L1371.84 618.147L1358.31 604.643L1353.36 609.599ZM1419.78 645.107L1371.18 592.46L1366.03 597.208L1414.63 649.855L1419.78 645.107ZM1426.36 643.064L1425.88 644.122L1432.26 647.013L1432.74 645.954L1426.36 643.064ZM1421.38 634.83L1430.59 637.346L1432.44 630.593L1423.23 628.078L1421.38 634.83ZM1398.51 605.148L1415.1 630.276L1420.94 626.419L1404.35 601.291L1398.51 605.148ZM1393.53 590.851L1394.32 594.887L1401.19 593.55L1400.4 589.514L1393.53 590.851ZM1329.69 533.673L1385.78 578.103L1390.12 572.616L1334.04 528.186L1329.69 533.673ZM1296.53 549.09L1300.52 549.858L1301.84 542.984L1297.85 542.216L1296.53 549.09ZM1282.9 558.451L1283.1 557.658L1276.31 555.961L1276.11 556.754L1282.9 558.451ZM1265.42 573.319L1268.05 572.766L1266.6 565.917L1263.98 566.47L1265.42 573.319ZM1235.6 453.108L1236.79 550.384L1243.79 550.299L1242.59 453.022L1235.6 453.108ZM1271.06 406.843L1244.47 432.09L1249.29 437.167L1275.88 411.919L1271.06 406.843ZM1278.17 390.174L1276.21 398.019L1283 399.718L1284.96 391.873L1278.17 390.174ZM1307.75 366.623L1303.63 373.797L1309.7 377.281L1313.82 370.107L1307.75 366.623ZM1290.45 315.786L1307.64 345.024L1313.67 341.477L1296.49 312.239L1290.45 315.786ZM1289.96 294.523L1288.35 300.76L1295.12 302.513L1296.74 296.276L1289.96 294.523ZM1312.46 286.006L1310.62 285.09L1307.51 291.359L1309.35 292.275L1312.46 286.006ZM1317.61 276.827L1318.92 279.935L1325.37 277.215L1324.06 274.107L1317.61 276.827ZM1362.31 349.076L1341.1 268.814L1334.33 270.603L1355.55 350.865L1362.31 349.076ZM1377.13 370.59L1366.29 356.982L1360.81 361.344L1371.66 374.953L1377.13 370.59ZM1431.22 405.114L1382.75 375.543L1379.1 381.519L1427.57 411.09L1431.22 405.114ZM1444.98 345.39L1459.81 380.465L1466.25 377.739L1451.42 342.664L1444.98 345.39ZM1424.67 316.409L1442.59 341.153L1448.26 337.047L1430.34 312.303L1424.67 316.409ZM1383.47 295.264L1415.81 309.296L1418.6 302.874L1386.25 288.842L1383.47 295.264ZM1364.85 277.502L1372.74 287.156L1378.16 282.726L1370.27 273.072L1364.85 277.502ZM1363.23 239.44L1359.66 251.141L1366.36 253.185L1369.93 241.485L1363.23 239.44ZM1361.8 224.109L1363.36 229.737L1370.1 227.864L1368.54 222.236L1361.8 224.109ZM1340.31 132.695L1370.27 196.409L1376.61 193.431L1346.65 129.717L1340.31 132.695ZM1345.91 112.012L1344.67 113.049L1349.15 118.426L1350.39 117.389L1345.91 112.012ZM1325.3 102.724L1340.48 100.188L1339.33 93.2835L1324.14 95.8201L1325.3 102.724ZM1298.02 85.0098L1299.63 88.7424L1306.06 85.9674L1304.45 82.2348L1298.02 85.0098ZM1299.28 46.2192L1288.35 55.2934L1292.82 60.68L1303.75 51.6058L1299.28 46.2192ZM1306.94 34.6534L1302.92 41.8443L1309.03 45.2607L1313.05 38.0698L1306.94 34.6534ZM1268.53 29.287L1274.88 17.2412L1268.69 13.9771L1262.34 26.023L1268.53 29.287ZM1208.92 81.2176L1261.43 38.0033L1256.98 32.5984L1204.47 75.8127L1208.92 81.2176ZM1188.36 139.312L1201.91 91.9109L1195.18 89.9876L1181.63 137.389L1188.36 139.312ZM1178.09 190.279L1188.43 139.043L1181.57 137.659L1171.23 188.895L1178.09 190.279ZM1165.83 204.33L1168.45 202.991L1165.27 196.756L1162.64 198.095L1165.83 204.33ZM1134.26 198.031L1138.08 196.809L1135.95 190.141L1132.13 191.363L1134.26 198.031ZM1124.3 212.518L1125.17 208.175L1118.31 206.791L1117.44 211.135L1124.3 212.518ZM1085.79 236.36L1099.94 234.797L1099.18 227.839L1085.02 229.402L1085.79 236.36ZM1063.05 245.18L1079.6 238.004L1076.82 231.581L1060.26 238.758L1063.05 245.18ZM1024.88 230.32L1028.23 235.19L1034 231.221L1030.65 226.351L1024.88 230.32ZM1020.88 225.136L1024.99 230.472L1030.54 226.199L1026.43 220.864L1020.88 225.136ZM1029.36 202.875L1027.08 203.707L1029.49 210.28L1031.76 209.449L1029.36 202.875ZM1001.51 209.194L1025.95 195.478L1022.53 189.374L998.083 203.09L1001.51 209.194ZM983.789 218.388L1001.41 209.249L998.185 203.035L980.566 212.174L983.789 218.388ZM1001.4 233.315L990.646 236.155L992.433 242.923L1003.19 240.083L1001.4 233.315ZM1033.94 260.482L1022.94 249.125L1017.92 253.994L1028.91 265.351L1033.94 260.482ZM1035.75 262.894L1034.25 260.845L1028.6 264.987L1030.11 267.035L1035.75 262.894ZM1013.01 316.959L1031.23 301.469L1026.7 296.136L1008.48 311.626L1013.01 316.959ZM942.76 315.441L964.152 310.72L962.644 303.884L941.252 308.606L942.76 315.441ZM899.01 330.488L943.143 315.334L940.869 308.713L896.737 323.867L899.01 330.488ZM881.939 331.227L885.877 331.767L886.829 324.833L882.892 324.292L881.939 331.227ZM864.745 299.6L863.58 305.478L870.447 306.838L871.611 300.96L864.745 299.6ZM856.102 279.948L858.338 281.775L862.767 276.355L860.532 274.527L856.102 279.948ZM824.566 262.442L833.782 271.97L838.814 267.104L829.597 257.576L824.566 262.442ZM808.323 231.159L815.229 235.228L818.782 229.196L811.876 225.128L808.323 231.159ZM792.21 211.72L798.853 222.052L804.741 218.266L798.097 207.934L792.21 211.72ZM787.841 198.865L789.857 206.401L796.619 204.593L794.604 197.056L787.841 198.865ZM778.824 211.796L775.771 202.448L769.117 204.621L772.17 213.97L778.824 211.796ZM792.217 235.296L787.283 233.173L784.517 239.603L789.451 241.726L792.217 235.296ZM809.356 259.566L807.583 253.016L800.826 254.844L802.599 261.394L809.356 259.566ZM743.287 314.743L793.161 293.166L790.382 286.742L740.508 308.319L743.287 314.743ZM709.997 342.706L726.442 339.808L725.227 332.914L708.783 335.812L709.997 342.706ZM684.407 362.777L685.883 362.809L686.035 355.81L684.558 355.779L684.407 362.777ZM677.689 364.268L680.739 363.303L678.628 356.629L675.578 357.594L677.689 364.268ZM649.323 358.704L655.215 361.988L658.623 355.874L652.732 352.59L649.323 358.704ZM609.09 349.2L619.48 340.725L615.056 335.3L604.666 343.776L609.09 349.2ZM596.933 378.851L601.914 360.288L595.154 358.474L590.172 377.037L596.933 378.851ZM565.902 374.352L569.976 381.959L576.147 378.654L572.072 371.047L565.902 374.352ZM546.441 364.453L547.268 364.374L546.599 357.406L545.772 357.485L546.441 364.453ZM499.761 346.911L532.321 362.036L535.27 355.687L502.71 340.562L499.761 346.911ZM448.783 338.146L494.001 345.164L495.075 338.247L449.856 331.229L448.783 338.146ZM432.104 329.659L435.423 332.296L439.778 326.816L436.459 324.179L432.104 329.659ZM389.46 321.527L400.101 325.135L402.349 318.506L391.707 314.898L389.46 321.527ZM373.471 321.728L378.555 320.765L377.252 313.887L372.168 314.85L373.471 321.728ZM345.711 311.995L353.079 317.25L357.143 311.551L349.775 306.296L345.711 311.995ZM334.014 281.702L329.916 300.406L336.754 301.904L340.852 283.2L334.014 281.702ZM339.095 272.074L338.224 273.115L343.596 277.604L344.466 276.563L339.095 272.074ZM404.19 225.534L409.095 272.463L416.057 271.735L411.152 224.806L404.19 225.534ZM386.353 206.583L397.116 207.686L397.83 200.722L387.066 199.62L386.353 206.583ZM293.274 274.718L373.329 210.431L368.946 204.973L288.891 269.26L293.274 274.718ZM242.404 277.773L272.535 280.849L273.246 273.885L243.115 270.809L242.404 277.773ZM233.769 282.233L233.981 281.893L228.047 278.18L227.835 278.52L233.769 282.233ZM533.396 288.276L610.005 248.094L606.753 241.895L530.144 282.077L533.396 288.276ZM525.665 314.412L524.543 311.4L517.984 313.843L519.105 316.856L525.665 314.412ZM559.222 295.418L551.596 314.678L558.104 317.255L565.731 297.995L559.222 295.418ZM607.002 264.21L573.467 280.179L576.477 286.499L610.012 270.53L607.002 264.21ZM652.935 260.888L618.791 261.445L618.905 268.444L653.049 267.887L652.935 260.888ZM620.804 245.649L653.086 246.871L653.351 239.876L621.069 238.654L620.804 245.649ZM664.93 260.926C670.249 251.788 663.917 240.276 653.351 239.876L653.086 246.871C658.373 247.071 661.542 252.832 658.88 257.405L664.93 260.926ZM610.005 248.094C613.329 246.35 617.053 245.507 620.804 245.649L621.069 238.654C616.096 238.466 611.16 239.583 606.753 241.895L610.005 248.094ZM530.144 282.077C518.672 288.094 513.462 301.703 517.984 313.843L524.543 311.4C521.252 302.563 525.044 292.656 533.396 288.276L530.144 282.077ZM243.115 270.809C237.098 270.195 231.256 273.053 228.047 278.18L233.981 281.893C235.775 279.027 239.041 277.43 242.404 277.773L243.115 270.809ZM288.891 269.26C284.486 272.797 278.866 274.459 273.246 273.885L272.535 280.849C279.985 281.609 287.435 279.407 293.274 274.718L288.891 269.26ZM387.066 199.62C380.557 198.953 374.048 200.876 368.946 204.973L373.329 210.431C376.996 207.487 381.675 206.104 386.353 206.583L387.066 199.62ZM411.491 221.263C414.413 211.643 407.831 201.746 397.83 200.722L397.116 207.686C402.737 208.261 406.435 213.822 404.793 219.228L411.491 221.263ZM411.152 224.806C411.027 223.614 411.142 222.41 411.491 221.263L404.793 219.228C404.173 221.269 403.968 223.413 404.19 225.534L411.152 224.806ZM399.955 296.069C410.396 292.829 417.197 282.641 416.057 271.735L409.095 272.463C409.884 280.015 405.165 287.123 397.881 289.383L399.955 296.069ZM371.532 281.63C375.497 293.36 388.17 299.726 399.955 296.069L397.881 289.383C389.682 291.927 380.899 287.481 378.163 279.389L371.532 281.63ZM344.466 276.563C352.371 267.103 367.584 269.952 371.532 281.63L378.163 279.389C372.465 262.531 350.506 258.42 339.095 272.074L344.466 276.563ZM340.852 283.2C341.303 281.141 342.244 279.222 343.596 277.604L338.224 273.115C336.15 275.597 334.706 278.543 334.014 281.702L340.852 283.2ZM340.526 305.135C338.43 305.947 336.273 304.1 336.754 301.904L329.916 300.406C328.241 308.055 335.755 314.492 343.056 311.661L340.526 305.135ZM349.775 306.296C347.084 304.376 343.608 303.94 340.526 305.135L343.056 311.661C343.94 311.318 344.938 311.444 345.711 311.995L349.775 306.296ZM372.168 314.85C366.92 315.844 361.493 314.653 357.143 311.551L353.079 317.25C358.982 321.46 366.348 323.077 373.471 321.728L372.168 314.85ZM391.707 314.898C387.057 313.321 382.077 312.973 377.252 313.887L378.555 320.765C382.195 320.075 385.951 320.338 389.46 321.527L391.707 314.898ZM413.402 319.03C409.741 319.895 405.911 319.713 402.349 318.506L400.101 325.135C404.907 326.764 410.074 327.009 415.012 325.842L413.402 319.03ZM436.459 324.179C429.968 319.021 421.471 317.123 413.402 319.03L415.012 325.842C420.993 324.429 427.293 325.835 432.104 329.659L436.459 324.179ZM449.856 331.229C446.171 330.657 442.697 329.136 439.778 326.816L435.423 332.296C439.293 335.372 443.897 337.388 448.783 338.146L449.856 331.229ZM502.71 340.562C500.286 339.436 497.716 338.657 495.075 338.247L494.001 345.164C495.994 345.473 497.933 346.061 499.761 346.911L502.71 340.562ZM545.772 357.485C542.174 357.831 538.548 357.21 535.27 355.687L532.321 362.036C536.729 364.083 541.603 364.918 546.441 364.453L545.772 357.485ZM572.072 371.047C567.108 361.78 557.064 356.401 546.599 357.406L547.268 364.374C554.923 363.639 562.271 367.573 565.902 374.352L572.072 371.047ZM584.424 382.494C581.118 383.199 577.743 381.634 576.147 378.654L569.976 381.959C573.045 387.687 579.53 390.696 585.885 389.34L584.424 382.494ZM590.172 377.037C589.433 379.791 587.213 381.899 584.424 382.494L585.885 389.34C591.245 388.196 595.512 384.145 596.933 378.851L590.172 377.037ZM604.666 343.776C600.031 347.556 596.704 352.698 595.154 358.474L601.914 360.288C603.084 355.931 605.594 352.052 609.09 349.2L604.666 343.776ZM646.663 345.023C642.612 331.435 626.043 326.338 615.056 335.3L619.48 340.725C626.598 334.919 637.331 338.221 639.955 347.023L646.663 345.023ZM652.732 352.59C649.8 350.955 647.622 348.24 646.663 345.023L639.955 347.023C641.435 351.989 644.797 356.18 649.323 358.704L652.732 352.59ZM675.578 357.594C669.931 359.38 663.797 358.758 658.623 355.874L655.215 361.988C662.073 365.811 670.203 366.636 677.689 364.268L675.578 357.594ZM684.558 355.779C682.548 355.735 680.545 356.022 678.628 356.629L680.739 363.303C681.925 362.928 683.164 362.75 684.407 362.777L684.558 355.779ZM695.535 348.406C694.525 352.815 690.557 355.908 686.035 355.81L685.883 362.809C693.726 362.978 700.608 357.614 702.358 349.968L695.535 348.406ZM708.783 335.812C702.237 336.965 697.018 341.927 695.535 348.406L702.358 349.968C703.213 346.232 706.223 343.371 709.997 342.706L708.783 335.812ZM731.673 324.049C732.262 328.258 729.412 332.177 725.227 332.914L726.442 339.808C734.339 338.416 739.716 331.021 738.606 323.079L731.673 324.049ZM740.508 308.319C734.36 310.979 730.745 317.415 731.673 324.049L738.606 323.079C738.114 319.564 740.03 316.153 743.287 314.743L740.508 308.319ZM802.599 261.394C805.388 271.705 800.185 282.5 790.382 286.742L793.161 293.166C806.156 287.544 813.053 273.234 809.356 259.566L802.599 261.394ZM789.451 241.726C795.046 244.133 799.236 248.964 800.826 254.844L807.583 253.016C805.435 245.073 799.775 238.547 792.217 235.296L789.451 241.726ZM772.72 219.321C771.76 227.941 776.549 236.176 784.517 239.603L787.283 233.173C782.146 230.963 779.058 225.654 779.677 220.096L772.72 219.321ZM772.17 213.97C772.734 215.694 772.921 217.519 772.72 219.321L779.677 220.096C779.989 217.3 779.698 214.47 778.824 211.796L772.17 213.97ZM774.267 189.504C769.379 192.837 767.28 198.997 769.117 204.621L775.771 202.448C774.901 199.784 775.895 196.866 778.21 195.288L774.267 189.504ZM794.604 197.056C792.236 188.205 781.837 184.344 774.267 189.504L778.21 195.288C781.795 192.844 786.72 194.673 787.841 198.865L794.604 197.056ZM798.097 207.934C797.435 206.904 796.936 205.776 796.619 204.593L789.857 206.401C790.361 208.286 791.155 210.08 792.21 211.72L798.097 207.934ZM811.876 225.128C808.994 223.43 806.55 221.08 804.741 218.266L798.853 222.052C801.254 225.787 804.498 228.906 808.323 231.159L811.876 225.128ZM826.926 248.04C828.597 240.656 825.305 233.039 818.782 229.196L815.229 235.228C819.13 237.525 821.098 242.08 820.099 246.495L826.926 248.04ZM829.597 257.576C827.156 255.051 826.151 251.466 826.926 248.04L820.099 246.495C818.803 252.224 820.482 258.221 824.566 262.442L829.597 257.576ZM847.677 270.477C844.368 270.724 841.121 269.488 838.814 267.104L833.782 271.97C837.535 275.849 842.817 277.86 848.199 277.457L847.677 270.477ZM860.532 274.527C856.924 271.579 852.323 270.129 847.677 270.477L848.199 277.457C851.055 277.244 853.884 278.135 856.102 279.948L860.532 274.527ZM871.611 300.96C873.434 291.754 870.034 282.293 862.767 276.355L858.338 281.775C863.602 286.077 866.065 292.931 864.745 299.6L871.611 300.96ZM872.034 316.877C870.33 313.825 869.768 310.266 870.447 306.838L863.58 305.478C862.579 310.536 863.408 315.785 865.921 320.288L872.034 316.877ZM882.892 324.292C878.309 323.662 874.288 320.917 872.034 316.877L865.921 320.288C869.247 326.247 875.179 330.298 881.939 331.227L882.892 324.292ZM896.737 323.867C893.555 324.959 890.162 325.29 886.829 324.833L885.877 331.767C890.295 332.374 894.793 331.936 899.01 330.488L896.737 323.867ZM985.107 310.564C979.272 304.612 970.782 302.088 962.644 303.884L964.152 310.72C969.933 309.444 975.964 311.237 980.108 315.465L985.107 310.564ZM1008.48 311.626C1001.62 317.46 991.412 316.997 985.107 310.564L980.108 315.465C988.985 324.52 1003.35 325.173 1013.01 316.959L1008.48 311.626ZM1030.11 267.035C1036.78 276.128 1035.29 288.831 1026.7 296.136L1031.23 301.469C1042.62 291.786 1044.6 274.946 1035.75 262.894L1030.11 267.035ZM1013.89 246.561C1014.53 249.36 1015.92 251.931 1017.92 253.994L1022.94 249.125C1021.84 247.982 1021.07 246.557 1020.71 245.006L1013.89 246.561ZM1003.19 240.083C1007.94 238.827 1012.79 241.764 1013.89 246.561L1020.71 245.006C1018.74 236.348 1009.99 231.048 1001.4 233.315L1003.19 240.083ZM972.926 233.341C976.137 240.945 984.452 245.03 992.433 242.923L990.646 236.155C986.035 237.372 981.23 235.012 979.375 230.618L972.926 233.341ZM980.566 212.174C972.888 216.157 969.562 225.373 972.926 233.341L979.375 230.618C977.431 226.014 979.353 220.689 983.789 218.388L980.566 212.174ZM1038.76 196.575C1037.11 189.356 1028.99 185.75 1022.53 189.374L1025.95 195.478C1028.33 194.143 1031.33 195.472 1031.93 198.132L1038.76 196.575ZM1031.76 209.449C1037 207.531 1040 202.016 1038.76 196.575L1031.93 198.132C1032.39 200.137 1031.29 202.169 1029.36 202.875L1031.76 209.449ZM1026.43 220.864C1023.61 217.207 1025.16 211.867 1029.49 210.28L1027.08 203.707C1018.31 206.919 1015.18 217.732 1020.88 225.136L1026.43 220.864ZM1060.26 238.758C1050.83 242.846 1039.83 239.688 1034 231.221L1028.23 235.19C1035.96 246.413 1050.55 250.599 1063.05 245.18L1060.26 238.758ZM1085.02 229.402C1082.19 229.715 1079.43 230.449 1076.82 231.581L1079.6 238.004C1081.57 237.15 1083.66 236.596 1085.79 236.36L1085.02 229.402ZM1117.44 211.135C1115.63 220.083 1108.25 226.837 1099.18 227.839L1099.94 234.797C1112.04 233.46 1121.89 224.452 1124.3 212.518L1117.44 211.135ZM1132.13 191.363C1125.06 193.619 1119.78 199.523 1118.31 206.791L1125.17 208.175C1126.14 203.396 1129.61 199.514 1134.26 198.031L1132.13 191.363ZM1152.61 195.657C1148.84 190.4 1142.11 188.172 1135.95 190.141L1138.08 196.809C1141.35 195.764 1144.92 196.946 1146.92 199.736L1152.61 195.657ZM1162.64 198.095C1159.16 199.874 1154.89 198.838 1152.61 195.657L1146.92 199.736C1151.22 205.73 1159.26 207.682 1165.83 204.33L1162.64 198.095ZM1171.23 188.895C1170.55 192.288 1168.35 195.183 1165.27 196.756L1168.45 202.991C1173.44 200.447 1176.99 195.766 1178.09 190.279L1171.23 188.895ZM1204.47 75.8127C1200.01 79.486 1196.77 84.4296 1195.18 89.9876L1201.91 91.9109C1203.11 87.7181 1205.55 83.9887 1208.92 81.2176L1204.47 75.8127ZM1262.34 26.023C1261 28.5487 1259.18 30.784 1256.98 32.5984L1261.43 38.0033C1264.35 35.5982 1266.76 32.6351 1268.53 29.287L1262.34 26.023ZM1307.88 6.96329C1295.65 -4.01899 1276.35 -0.565717 1268.69 13.9771L1274.88 17.2412C1280.42 6.73078 1294.37 4.23504 1303.21 12.1721L1307.88 6.96329ZM1313.05 38.0698C1318.81 27.7675 1316.67 14.8486 1307.88 6.96329L1303.21 12.1721C1309.55 17.871 1311.11 27.2077 1306.94 34.6534L1313.05 38.0698ZM1303.75 51.6058C1305.89 49.8337 1307.68 47.6826 1309.03 45.2607L1302.92 41.8443C1301.99 43.5142 1300.75 44.9974 1299.28 46.2192L1303.75 51.6058ZM1295.4 74.033C1289.57 72.1641 1288.11 64.5909 1292.82 60.68L1288.35 55.2934C1279.38 62.7343 1282.17 77.1433 1293.27 80.699L1295.4 74.033ZM1304.45 82.2348C1302.76 78.3235 1299.46 75.3331 1295.4 74.033L1293.27 80.699C1295.4 81.3824 1297.13 82.9541 1298.02 85.0098L1304.45 82.2348ZM1324.14 95.8201C1316.57 97.0857 1309.1 93.0199 1306.06 85.9674L1299.63 88.7424C1303.95 98.7506 1314.55 104.52 1325.3 102.724L1324.14 95.8201ZM1355.07 104.131C1353.61 96.8622 1346.64 92.0621 1339.33 93.2835L1340.48 100.188C1344.07 99.5887 1347.49 101.943 1348.2 105.509L1355.07 104.131ZM1350.39 117.389C1354.26 114.162 1356.06 109.073 1355.07 104.131L1348.2 105.509C1348.69 107.933 1347.81 110.429 1345.91 112.012L1350.39 117.389ZM1346.65 129.717C1344.81 125.822 1345.84 121.182 1349.15 118.426L1344.67 113.049C1338.91 117.844 1337.12 125.918 1340.31 132.695L1346.65 129.717ZM1371.76 212.823C1377.78 208.332 1379.8 200.226 1376.61 193.431L1370.27 196.409C1372.05 200.195 1370.92 204.711 1367.57 207.214L1371.76 212.823ZM1368.54 222.236C1367.57 218.735 1368.85 214.997 1371.76 212.823L1367.57 207.214C1362.35 211.114 1360.05 217.825 1361.8 224.109L1368.54 222.236ZM1369.93 241.485C1371.28 237.054 1371.34 232.328 1370.1 227.864L1363.36 229.737C1364.24 232.917 1364.2 236.284 1363.23 239.44L1369.93 241.485ZM1370.27 273.072C1365.73 267.513 1364.26 260.052 1366.36 253.185L1359.66 251.141C1356.88 260.243 1358.83 270.133 1364.85 277.502L1370.27 273.072ZM1386.25 288.842C1383.11 287.478 1380.33 285.38 1378.16 282.726L1372.74 287.156C1375.62 290.675 1379.3 293.455 1383.47 295.264L1386.25 288.842ZM1430.34 312.303C1427.34 308.164 1423.28 304.908 1418.6 302.874L1415.81 309.296C1419.35 310.83 1422.41 313.287 1424.67 316.409L1430.34 312.303ZM1451.42 342.664C1450.58 340.678 1449.52 338.794 1448.26 337.047L1442.59 341.153C1443.54 342.47 1444.34 343.892 1444.98 345.39L1451.42 342.664ZM1435.05 414.22C1456.52 419.57 1474.87 398.111 1466.25 377.739L1459.81 380.465C1466.17 395.522 1452.61 411.382 1436.75 407.427L1435.05 414.22ZM1427.57 411.09C1429.89 412.506 1432.41 413.562 1435.05 414.22L1436.75 407.427C1434.8 406.941 1432.93 406.161 1431.22 405.114L1427.57 411.09ZM1371.66 374.953C1373.74 377.56 1376.26 379.782 1379.1 381.519L1382.75 375.543C1380.6 374.233 1378.7 372.557 1377.13 370.59L1371.66 374.953ZM1355.55 350.865C1356.56 354.685 1358.35 358.254 1360.81 361.344L1366.29 356.982C1364.43 354.65 1363.08 351.958 1362.31 349.076L1355.55 350.865ZM1328.7 266.567C1331.3 266.388 1333.67 268.082 1334.33 270.603L1341.1 268.814C1339.58 263.048 1334.17 259.175 1328.22 259.583L1328.7 266.567ZM1324.06 274.107C1322.61 270.667 1324.98 266.822 1328.7 266.567L1328.22 259.583C1319.71 260.166 1314.29 268.961 1317.61 276.827L1324.06 274.107ZM1322.78 290.143C1326.21 286.773 1327.24 281.648 1325.37 277.215L1318.92 279.935C1319.68 281.722 1319.26 283.788 1317.88 285.146L1322.78 290.143ZM1309.35 292.275C1313.82 294.498 1319.21 293.642 1322.78 290.143L1317.88 285.146C1316.44 286.557 1314.27 286.902 1312.46 286.006L1309.35 292.275ZM1296.74 296.276C1297.95 291.588 1303.17 289.205 1307.51 291.359L1310.62 285.09C1302.3 280.957 1292.29 285.529 1289.96 294.523L1296.74 296.276ZM1296.49 312.239C1294.76 309.305 1294.27 305.807 1295.12 302.513L1288.35 300.76C1287.03 305.85 1287.79 311.254 1290.45 315.786L1296.49 312.239ZM1313.82 370.107C1318.91 361.23 1318.86 350.301 1313.67 341.477L1307.64 345.024C1311.55 351.681 1311.59 359.925 1307.75 366.623L1313.82 370.107ZM1294.42 385.186C1300.62 385.776 1306.6 382.685 1309.7 377.281L1303.63 373.797C1301.89 376.818 1298.55 378.547 1295.08 378.217L1294.42 385.186ZM1284.96 391.873C1286.03 387.612 1290.05 384.77 1294.42 385.186L1295.08 378.217C1287.27 377.474 1280.08 382.555 1278.17 390.174L1284.96 391.873ZM1275.88 411.919C1279.36 408.611 1281.83 404.379 1283 399.718L1276.21 398.019C1275.37 401.39 1273.58 404.45 1271.06 406.843L1275.88 411.919ZM1242.59 453.022C1242.52 447.035 1244.95 441.289 1249.29 437.167L1244.47 432.09C1238.71 437.555 1235.5 445.172 1235.6 453.108L1242.59 453.022ZM1263.98 566.47C1253.66 568.647 1243.92 560.848 1243.79 550.299L1236.79 550.384C1236.97 565.345 1250.78 576.407 1265.42 573.319L1263.98 566.47ZM1276.11 556.754C1274.96 561.376 1271.26 564.933 1266.6 565.917L1268.05 572.766C1275.33 571.23 1281.1 565.672 1282.9 558.451L1276.11 556.754ZM1297.85 542.216C1288.16 540.352 1278.7 546.387 1276.31 555.961L1283.1 557.658C1284.59 551.69 1290.49 547.928 1296.53 549.09L1297.85 542.216ZM1310.69 536.943C1309.93 541.064 1305.96 543.775 1301.84 542.984L1300.52 549.858C1308.45 551.383 1316.11 546.159 1317.58 538.218L1310.69 536.943ZM1334.04 528.186C1325.44 521.378 1312.69 526.162 1310.69 536.943L1317.58 538.218C1318.61 532.623 1325.23 530.14 1329.69 533.673L1334.04 528.186ZM1400.4 589.514C1399.1 582.835 1395.46 576.841 1390.12 572.616L1385.78 578.103C1389.8 581.29 1392.55 585.812 1393.53 590.851L1400.4 589.514ZM1404.35 601.291C1402.8 598.943 1401.72 596.312 1401.19 593.55L1394.32 594.887C1395.03 598.548 1396.45 602.035 1398.51 605.148L1404.35 601.291ZM1423.23 628.078C1422.29 627.821 1421.48 627.232 1420.94 626.419L1415.1 630.276C1416.57 632.507 1418.81 634.126 1421.38 634.83L1423.23 628.078ZM1433.21 645.506C1440.28 642.763 1439.75 632.591 1432.44 630.593L1430.59 637.346C1430.86 637.418 1430.98 637.532 1431.06 637.629C1431.15 637.747 1431.22 637.922 1431.23 638.133C1431.24 638.344 1431.19 638.525 1431.11 638.651C1431.05 638.755 1430.93 638.881 1430.68 638.981L1433.21 645.506ZM1432.74 645.954C1432.83 645.749 1433 645.588 1433.21 645.506L1430.68 638.981C1428.76 639.725 1427.21 641.191 1426.36 643.064L1432.74 645.954ZM1414.63 649.855C1419.83 655.487 1429.09 653.994 1432.26 647.013L1425.88 644.122C1424.79 646.541 1421.58 647.058 1419.78 645.107L1414.63 649.855ZM1358.97 596.487C1361.17 594.91 1364.2 595.219 1366.03 597.208L1371.18 592.46C1366.95 587.876 1359.96 587.163 1354.89 590.798L1358.97 596.487ZM1358.31 604.643C1355.96 602.303 1356.28 598.417 1358.97 596.487L1354.89 590.798C1348.68 595.248 1347.96 604.205 1353.36 609.599L1358.31 604.643ZM1380.05 635.213C1379.34 628.756 1376.44 622.735 1371.84 618.147L1366.9 623.103C1370.37 626.564 1372.55 631.106 1373.09 635.978L1380.05 635.213ZM1390.8 742.043C1391.18 739.57 1391.24 737.057 1390.96 734.57L1384 735.334C1384.21 737.211 1384.17 739.106 1383.88 740.972L1390.8 742.043ZM1366 805.501C1375.78 801.951 1382.85 793.354 1384.44 783.073L1377.53 782.002C1376.33 789.758 1370.99 796.243 1363.62 798.921L1366 805.501ZM1350.06 816.565C1350.15 813.348 1352.2 810.514 1355.22 809.416L1352.83 802.836C1347.11 804.914 1343.23 810.277 1343.06 816.365L1350.06 816.565ZM1338.83 831.288C1344.71 831.716 1349.75 827.156 1349.92 821.265L1342.93 821.065C1342.87 822.97 1341.24 824.445 1339.34 824.306L1338.83 831.288ZM1329.26 821.661C1329.6 826.807 1333.69 830.913 1338.83 831.288L1339.34 824.306C1337.67 824.185 1336.35 822.857 1336.24 821.193L1329.26 821.661ZM1325.48 806.477C1327.4 808.53 1328.56 811.186 1328.74 813.994L1335.73 813.526C1335.43 809.105 1333.62 804.924 1330.59 801.69L1325.48 806.477ZM1312.9 778.776C1311.37 786.092 1313.5 793.696 1318.61 799.15L1323.72 794.364C1320.17 790.575 1318.69 785.293 1319.76 780.21L1312.9 778.776ZM1324.61 763.052C1318.89 765.281 1314.69 770.245 1313.43 776.249L1320.28 777.683C1321.06 773.993 1323.64 770.943 1327.15 769.573L1324.61 763.052ZM1331.36 749.884C1332.76 755.349 1329.86 761.001 1324.61 763.052L1327.15 769.573C1335.7 766.236 1340.42 757.039 1338.14 748.145L1331.36 749.884ZM1299.43 724.528C1306.87 714.196 1322.99 717.239 1326.15 729.574L1332.93 727.835C1328.29 709.749 1304.66 705.287 1293.75 720.437L1299.43 724.528ZM1282.75 733.672C1289.1 733.652 1295.06 730.591 1298.77 725.439L1293.09 721.347C1290.69 724.679 1286.84 726.659 1282.73 726.672L1282.75 733.672ZM1266.76 725.636C1270.51 730.707 1276.45 733.691 1282.75 733.672L1282.73 726.672C1278.65 726.684 1274.81 724.754 1272.39 721.475L1266.76 725.636ZM1253.48 718.432C1258.42 718.354 1263.08 720.662 1266.02 724.63L1271.64 720.469C1267.37 714.684 1260.56 711.319 1253.37 711.433L1253.48 718.432ZM1233.75 720.38C1236.06 719.266 1238.58 718.669 1241.13 718.628L1241.02 711.629C1237.45 711.686 1233.93 712.521 1230.71 714.077L1233.75 720.38ZM1206.83 716.733C1214.26 723.24 1224.86 724.676 1233.75 720.38L1230.71 714.077C1224.35 717.151 1216.76 716.124 1211.45 711.468L1206.83 716.733ZM1148.26 677.949C1155.15 676.153 1162.49 677.888 1167.85 682.582L1172.46 677.317C1165.36 671.095 1155.63 668.795 1146.5 671.175L1148.26 677.949ZM1123.64 686.461C1126.07 684.447 1128.91 682.992 1131.96 682.197L1130.19 675.423C1126.15 676.477 1122.39 678.406 1119.17 681.075L1123.64 686.461ZM1108.03 712.813C1103.84 709.324 1103.85 702.894 1108.04 699.414L1103.57 694.028C1096.01 700.303 1096 711.897 1103.54 718.189L1108.03 712.813ZM1113.56 726.83C1114.22 721.521 1112.14 716.24 1108.03 712.813L1103.54 718.189C1105.82 720.09 1106.98 723.018 1106.61 725.963L1113.56 726.83ZM1082.73 788.972C1096.27 787.966 1107.22 777.552 1108.9 764.081L1101.96 763.214C1100.69 773.376 1092.43 781.232 1082.22 781.991L1082.73 788.972ZM1042.35 797.711C1046.04 793.747 1051.09 791.322 1056.49 790.921L1055.97 783.94C1048.81 784.472 1042.12 787.687 1037.22 792.941L1042.35 797.711ZM1006.3 826.322C1013.08 825.565 1019.35 822.407 1024 817.419L1018.87 812.649C1015.37 816.412 1010.64 818.794 1005.53 819.366L1006.3 826.322ZM968.33 824.107C973.848 827.668 980.425 829.215 986.952 828.485L986.174 821.529C981.251 822.079 976.288 820.912 972.126 818.226L968.33 824.107ZM953.431 817.437C956.908 817.746 960.257 818.896 963.189 820.789L966.985 814.908C963.098 812.399 958.659 810.874 954.05 810.465L953.431 817.437ZM917.063 819.021C920.771 816.252 925.37 814.947 929.98 815.356L930.599 808.383C924.273 807.822 917.963 809.612 912.874 813.412L917.063 819.021ZM886.619 819.344C895.757 825.871 908.066 825.74 917.063 819.021L912.874 813.412C906.318 818.309 897.347 818.404 890.688 813.648L886.619 819.344ZM869.712 808.012C871.296 808.649 872.799 809.473 874.189 810.465L878.257 804.769C876.415 803.453 874.423 802.362 872.323 801.517L869.712 808.012ZM830.617 806.518C835.625 800.108 844.27 797.784 851.818 800.818L854.429 794.323C843.988 790.126 832.029 793.341 825.101 802.209L830.617 806.518ZM825.652 819.144C824.562 816.679 824.917 813.814 826.577 811.69L821.061 807.38C817.812 811.539 817.116 817.149 819.25 821.976L825.652 819.144ZM812.004 839.228C822.583 839.644 829.934 828.827 825.652 819.144L819.25 821.976C821.437 826.921 817.682 832.446 812.279 832.234L812.004 839.228ZM770.84 830.054C773.868 834.899 779.097 837.933 784.806 838.158L785.081 831.164C781.686 831.03 778.577 829.226 776.776 826.344L770.84 830.054ZM763.39 825.305C766.462 825.684 769.199 827.429 770.84 830.054L776.776 826.344C774.017 821.93 769.415 818.996 764.249 818.357L763.39 825.305ZM734.585 825.173C738.294 823.394 742.437 822.716 746.521 823.22L747.379 816.273C741.966 815.604 736.474 816.503 731.557 818.862L734.585 825.173ZM664.472 842.646C672.909 848.58 683.894 849.492 693.195 845.03L690.167 838.719C683.151 842.085 674.864 841.397 668.499 836.92L664.472 842.646ZM638.437 821.377C640.481 824.765 643.208 827.691 646.444 829.967L650.471 824.241C648.03 822.524 645.972 820.317 644.43 817.761L638.437 821.377ZM618.84 804.95C625.425 805.734 631.28 809.514 634.706 815.193L640.699 811.577C636.158 804.049 628.397 799.039 619.668 797.999L618.84 804.95ZM600.989 802.202C602.866 802.838 604.804 803.278 606.772 803.512L607.601 796.561C606.116 796.384 604.654 796.053 603.238 795.573L600.989 802.202ZM570.437 777.809C572.725 787.318 579.729 794.99 588.991 798.132L591.24 791.503C584.253 789.133 578.969 783.345 577.243 776.171L570.437 777.809ZM537.91 716.837C548.18 716.4 557.322 723.294 559.727 733.288L566.532 731.651C563.345 718.403 551.226 709.264 537.612 709.843L537.91 716.837ZM508.977 706.704C514.66 713.617 523.261 717.459 532.203 717.079L531.905 710.086C525.16 710.372 518.672 707.474 514.384 702.259L508.977 706.704ZM496.152 681.307C495.673 687.006 497.437 692.667 501.069 697.085L506.476 692.639C504.003 689.63 502.801 685.775 503.128 681.894L496.152 681.307ZM488.273 666.855C493.554 669.662 496.654 675.347 496.152 681.307L503.128 681.894C503.864 673.143 499.313 664.795 491.558 660.674L488.273 666.855ZM473.869 660.473C476.171 660.853 478.396 661.606 480.456 662.701L483.741 656.52C481.01 655.068 478.061 654.071 475.009 653.567L473.869 660.473ZM378.767 653.587C383.66 648.849 390.508 646.709 397.228 647.818L398.368 640.912C389.46 639.441 380.383 642.278 373.897 648.559L378.767 653.587ZM365.786 663.046C368.824 662.149 371.6 660.529 373.875 658.326L369.005 653.297C367.542 654.714 365.758 655.756 363.804 656.332L365.786 663.046ZM354.929 673.847C353.323 670.308 355.217 666.166 358.944 665.065L356.963 658.352C349.157 660.656 345.191 669.329 348.555 676.74L354.929 673.847ZM341.776 692.751C351.908 693.472 359.127 683.097 354.929 673.847L348.555 676.74C350.56 681.158 347.112 686.113 342.273 685.768L341.776 692.751ZM315.252 680.114C318.054 686.899 324.452 691.517 331.775 692.038L332.272 685.056C327.597 684.723 323.511 681.775 321.722 677.442L315.252 680.114ZM301.014 665.304C306.747 666.801 311.446 670.9 313.708 676.377L320.178 673.705C317.079 666.2 310.639 660.582 302.783 658.531L301.014 665.304ZM272.195 646.328C275.651 654.452 282.677 660.515 291.218 662.745L292.987 655.972C286.543 654.29 281.243 649.716 278.636 643.588L272.195 646.328ZM244.089 606.146C251.423 607.291 257.648 612.139 260.555 618.97L266.996 616.23C263.143 607.175 254.892 600.748 245.169 599.229L244.089 606.146ZM212.705 602.379C214.29 601.88 215.969 601.754 217.611 602.01L218.691 595.094C215.985 594.672 213.217 594.879 210.603 595.702L212.705 602.379ZM192.62 597.233C194.608 602.991 200.818 606.12 206.628 604.292L204.526 597.614C202.332 598.305 199.988 597.123 199.237 594.949L192.62 597.233ZM186.249 595.086C188.563 593.542 191.712 594.603 192.62 597.233L199.237 594.949C196.833 587.984 188.492 585.174 182.363 589.263L186.249 595.086ZM161.057 618.998C162.052 613.79 165.097 609.2 169.507 606.257L165.622 600.434C159.651 604.418 155.529 610.633 154.181 617.684L161.057 618.998ZM128.041 661.656C139.448 667.323 153.114 660.546 155.505 648.036L148.63 646.721C147.108 654.681 138.413 658.993 131.156 655.387L128.041 661.656ZM116.917 661.772C120.393 659.954 124.529 659.911 128.041 661.656L131.156 655.387C125.635 652.645 119.135 652.712 113.673 655.57L116.917 661.772ZM99.0802 676.963C100.983 672.187 104.533 668.252 109.087 665.869L105.842 659.666C99.805 662.825 95.0989 668.042 92.5772 674.372L99.0802 676.963ZM64.9138 736.945C71.2711 736.675 76.8773 732.697 79.2322 726.786L72.7292 724.195C71.3949 727.545 68.2185 729.799 64.6165 729.952L64.9138 736.945ZM48.1328 722.154C48.8544 730.787 56.2585 737.313 64.9138 736.945L64.6165 729.952C59.7125 730.16 55.5173 726.462 55.1085 721.571L48.1328 722.154ZM38.688 673.482C42.3951 676.636 44.7035 681.129 45.1089 685.979L52.0846 685.396C51.5251 678.703 48.3398 672.503 43.2242 668.15L38.688 673.482ZM29.7805 655.565C30.1761 662.503 33.3949 668.978 38.688 673.482L43.2242 668.15C39.3884 664.886 37.0558 660.195 36.7691 655.166L29.7805 655.565ZM24.8281 636.975C27.5591 640.439 29.1587 644.659 29.4098 649.063L36.3984 648.664C36.0656 642.827 33.9453 637.233 30.3251 632.641L24.8281 636.975ZM0.500681 596.038C0.455968 602.508 2.61383 608.8 6.61953 613.881L12.1165 609.547C9.09465 605.714 7.46678 600.967 7.50051 596.087L0.500681 596.038ZM32.6822 540.769C15.842 538.459 0.808631 551.48 0.691159 568.477L7.69099 568.526C7.77927 555.753 19.0762 545.968 31.7309 547.704L32.6822 540.769ZM44.8255 538.829C41.059 540.663 36.8328 541.338 32.6822 540.769L31.7309 547.704C37.2543 548.462 42.8783 547.563 47.8905 545.122L44.8255 538.829ZM80.2442 533.009C75.675 528.4 68.6783 527.211 62.8435 530.053L65.9085 536.346C69.0487 534.817 72.814 535.457 75.2731 537.937L80.2442 533.009ZM90.7466 533.926C87.4919 536.228 83.0506 535.84 80.2442 533.009L75.2731 537.937C80.4878 543.197 88.7403 543.918 94.788 539.642L90.7466 533.926ZM104.884 508.201C107.291 515.873 104.473 524.221 97.908 528.862L101.949 534.578C110.996 528.181 114.88 516.677 111.563 506.106L104.884 508.201ZM92.7699 452.573C91.0338 458.122 91.0363 464.069 92.7769 469.616L99.4558 467.52C98.1427 463.336 98.1409 458.849 99.4506 454.663L92.7699 452.573ZM99.225 411.636C102.102 415.103 103.027 419.792 101.681 424.091L108.362 426.182C110.416 419.617 109.004 412.459 104.612 407.166L99.225 411.636ZM96.9676 388.328C91.9379 394.148 91.8516 402.75 96.7637 408.67L102.151 404.2C99.4232 400.913 99.4711 396.137 102.264 392.905L96.9676 388.328ZM115.229 384.22C108.93 381.471 101.489 383.096 96.9676 388.328L102.264 392.905C104.753 390.025 108.901 389.096 112.429 390.635L115.229 384.22ZM127.738 377.711C126.672 383.328 120.55 386.542 115.229 384.22L112.429 390.635C121.787 394.719 132.695 389.134 134.615 379.016L127.738 377.711ZM136.088 355.596C132.74 358.977 130.477 363.281 129.59 367.956L136.467 369.261C137.094 365.956 138.694 362.912 141.062 360.522L136.088 355.596ZM653.049 267.887C657.955 267.807 662.461 265.167 664.93 260.926L658.88 257.405C657.645 259.527 655.39 260.848 652.935 260.888L653.049 267.887ZM147.246 333.055C148.643 338.645 147.02 344.558 142.966 348.651L147.94 353.577C153.716 347.745 156.027 339.321 154.037 331.358L147.246 333.055ZM610.012 270.53C612.793 269.206 615.825 268.494 618.905 268.444L618.791 261.445C614.709 261.512 610.688 262.455 607.002 264.21L610.012 270.53ZM154.019 310.181C147.768 316.006 145.174 324.766 147.246 333.055L154.037 331.358C152.583 325.539 154.403 319.39 158.791 315.302L154.019 310.181ZM565.731 297.995C567.731 292.943 571.571 288.835 576.477 286.499L573.467 280.179C566.964 283.276 561.874 288.721 559.222 295.418L565.731 297.995ZM178.663 290.819C174.733 292.106 171.131 294.233 168.106 297.053L172.878 302.174C175.16 300.047 177.878 298.442 180.842 297.471L178.663 290.819ZM537.807 330.436C546.688 330.808 554.831 325.52 558.104 317.255L551.596 314.678C549.42 320.173 544.005 323.69 538.1 323.442L537.807 330.436ZM214.985 288.353C221.902 291.13 229.815 288.551 233.769 282.233L227.835 278.52C225.679 281.965 221.364 283.371 217.592 281.857L214.985 288.353ZM519.105 316.856C522.039 324.733 529.408 330.084 537.807 330.436L538.1 323.442C532.516 323.208 527.616 319.65 525.665 314.412L519.105 316.856ZM217.592 281.857C214.233 280.509 210.505 280.387 207.065 281.514L209.245 288.166C211.121 287.552 213.153 287.618 214.985 288.353L217.592 281.857Z" fill="url(#paint1_linear_369_1308)"/>
<defs>
<linearGradient id="paint0_linear_369_1308" x1="734.46" y1="4" x2="734.881" y2="705.933" gradientUnits="userSpaceOnUse">
<stop stop-color="white"/>
<stop offset="1" stop-color="white" stop-opacity="0"/>
</linearGradient>
<linearGradient id="paint1_linear_369_1308" x1="734.46" y1="4" x2="734.46" y2="844.334" gradientUnits="userSpaceOnUse">
<stop stop-color="white"/>
<stop offset="1" stop-color="white" stop-opacity="0"/>
</linearGradient>
</defs>
</svg>
